<?xml version="1.0" standalone="no"?>
<!DOCTYPE svg PUBLIC "-//W3C//DTD SVG 20010904//EN"
 "http://www.w3.org/TR/2001/REC-SVG-20010904/DTD/svg10.dtd">
<svg version="1.0" xmlns="http://www.w3.org/2000/svg"
 width="88.000000pt" height="88.000000pt" viewBox="0 0 88.000000 88.000000"
 preserveAspectRatio="xMidYMid meet">
<metadata>
Created by potrace 1.14, written by Peter Selinger 2001-2017
</metadata>
<g transform="translate(0.000000,88.000000) scale(0.100000,-0.100000)"
fill="#000000" stroke="none">
<path d="M320 860 c0 -13 7 -20 20 -20 13 0 20 -7 20 -20 0 -18 -7 -20 -60
-20 l-60 0 0 -40 c0 -33 3 -40 20 -40 13 0 20 -7 20 -20 0 -13 7 -20 20 -20
13 0 20 -7 20 -20 0 -17 -7 -20 -40 -20 -33 0 -40 -3 -40 -20 0 -13 -7 -20
-20 -20 -13 0 -20 -7 -20 -20 0 -13 -7 -20 -20 -20 -17 0 -20 -7 -20 -40 0
-33 -3 -40 -20 -40 -17 0 -20 -7 -20 -40 l0 -40 -40 0 c-33 0 -40 -3 -40 -20
0 -17 7 -20 40 -20 33 0 40 -3 40 -20 0 -18 -7 -20 -60 -20 -53 0 -60 -2 -60
-20 0 -18 7 -20 60 -20 l60 0 0 -60 c0 -53 2 -60 20 -60 13 0 20 -7 20 -20 0
-13 -7 -20 -20 -20 -13 0 -20 -7 -20 -20 0 -13 7 -20 20 -20 13 0 20 -7 20
-20 0 -18 7 -20 60 -20 53 0 60 2 60 20 0 19 7 20 140 20 133 0 140 -1 140
-20 0 -13 7 -20 20 -20 13 0 20 -7 20 -20 0 -18 7 -20 60 -20 53 0 60 2 60 20
0 13 7 20 20 20 13 0 20 7 20 20 0 13 -7 20 -20 20 -17 0 -20 7 -20 40 0 33 3
40 20 40 17 0 20 7 20 40 l0 40 60 0 c53 0 60 2 60 20 0 18 -7 20 -60 20 -53
0 -60 2 -60 20 0 17 7 20 40 20 33 0 40 3 40 20 0 17 -7 20 -40 20 l-40 0 0
60 c0 53 -2 60 -20 60 -17 0 -20 7 -20 40 0 33 -3 40 -20 40 -13 0 -20 7 -20
20 0 13 -7 20 -20 20 -13 0 -20 7 -20 20 0 17 -7 20 -40 20 -33 0 -40 3 -40
20 0 18 -7 20 -60 20 -53 0 -60 2 -60 20 0 18 7 20 60 20 l60 0 0 40 c0 33 -3
40 -20 40 -13 0 -20 7 -20 20 0 13 -7 20 -20 20 -13 0 -20 7 -20 20 0 13 -7
20 -20 20 -13 0 -20 -7 -20 -20 0 -17 -7 -20 -40 -20 -33 0 -40 3 -40 20 0 13
-7 20 -20 20 -13 0 -20 -7 -20 -20z m240 -240 c0 -17 7 -20 40 -20 33 0 40 -3
40 -20 0 -13 7 -20 20 -20 17 0 20 -7 20 -40 0 -33 3 -40 20 -40 18 0 20 -7
20 -60 0 -53 -2 -60 -20 -60 -13 0 -20 -7 -20 -20 0 -13 7 -20 20 -20 13 0 20
-7 20 -20 0 -13 -7 -20 -20 -20 -13 0 -20 -7 -20 -20 0 -13 7 -20 20 -20 13 0
20 -7 20 -20 0 -13 -7 -20 -20 -20 -13 0 -20 -7 -20 -20 0 -17 -7 -20 -40 -20
-33 0 -40 -3 -40 -20 0 -17 7 -20 40 -20 33 0 40 -3 40 -20 0 -13 7 -20 20
-20 13 0 20 -7 20 -20 0 -18 -7 -20 -60 -20 -53 0 -60 2 -60 20 0 13 -7 20
-20 20 -13 0 -20 7 -20 20 0 19 -7 20 -140 20 -133 0 -140 -1 -140 -20 0 -18
-7 -20 -60 -20 -53 0 -60 2 -60 20 0 17 7 20 40 20 33 0 40 3 40 20 0 13 -7
20 -20 20 -17 0 -20 7 -20 40 0 33 -3 40 -20 40 -19 0 -20 7 -20 120 0 113 1
120 20 120 17 0 20 7 20 40 0 33 3 40 20 40 13 0 20 7 20 20 0 17 7 20 40 20
33 0 40 3 40 20 0 19 7 20 120 20 113 0 120 -1 120 -20z"/>
<path d="M240 540 c0 -17 7 -20 40 -20 33 0 40 3 40 20 0 17 -7 20 -40 20 -33
0 -40 -3 -40 -20z"/>
<path d="M520 540 c0 -17 7 -20 40 -20 33 0 40 3 40 20 0 17 -7 20 -40 20 -33
0 -40 -3 -40 -20z"/>
<path d="M240 460 c0 -13 7 -20 20 -20 13 0 20 7 20 20 0 13 -7 20 -20 20 -13
0 -20 -7 -20 -20z"/>
<path d="M520 460 c0 -13 7 -20 20 -20 13 0 20 7 20 20 0 13 -7 20 -20 20 -13
0 -20 -7 -20 -20z"/>
<path d="M240 380 c0 -13 -7 -20 -20 -20 -18 0 -20 -7 -20 -60 0 -53 2 -60 20
-60 13 0 20 -7 20 -20 0 -13 7 -20 20 -20 13 0 20 -7 20 -20 0 -19 7 -20 120
-20 113 0 120 1 120 20 0 13 7 20 20 20 13 0 20 7 20 20 0 13 7 20 20 20 17 0
20 7 20 40 0 33 -3 40 -20 40 -17 0 -20 -7 -20 -40 0 -33 -3 -40 -20 -40 -13
0 -20 -7 -20 -20 0 -19 -7 -20 -120 -20 -113 0 -120 1 -120 20 0 13 -7 20 -20
20 -18 0 -20 7 -20 60 0 53 2 60 20 60 13 0 20 7 20 20 0 13 -7 20 -20 20 -13
0 -20 -7 -20 -20z"/>
</g>
</svg>
