<?xml version="1.0" encoding="UTF-8" standalone="no"?>
<!-- Generator: Adobe Illustrator 24.0.1, SVG Export Plug-In . SVG Version: 6.00 Build 0)  -->

<svg
   version="1.1"
   id="Layer_1"
   x="0px"
   y="0px"
   width="2781.4062"
   height="1029.129"
   viewBox="0 0 2781.4062 1029.129"
   enable-background="new 0 0 3000 3000"
   xml:space="preserve"
   sodipodi:docname="brand_no_color.svg"
   inkscape:version="1.2.2 (732a01da63, 2022-12-09)"
   xmlns:inkscape="http://www.inkscape.org/namespaces/inkscape"
   xmlns:sodipodi="http://sodipodi.sourceforge.net/DTD/sodipodi-0.dtd"
   xmlns="http://www.w3.org/2000/svg"
   xmlns:svg="http://www.w3.org/2000/svg"><defs
   id="defs875" /><sodipodi:namedview
   id="namedview873"
   pagecolor="#505050"
   bordercolor="#eeeeee"
   borderopacity="1"
   inkscape:showpageshadow="0"
   inkscape:pageopacity="0"
   inkscape:pagecheckerboard="0"
   inkscape:deskcolor="#505050"
   showgrid="false"
   inkscape:zoom="0.34233333"
   inkscape:cx="1018.0136"
   inkscape:cy="517.03992"
   inkscape:window-width="2560"
   inkscape:window-height="1417"
   inkscape:window-x="-8"
   inkscape:window-y="-8"
   inkscape:window-maximized="1"
   inkscape:current-layer="Layer_1" />
<g
   id="g870"
   transform="translate(-109.29581,-985.431)">
	<path
   fill="#ffffff"
   d="m 2728.017,1647.895 c 36.142,-131.3 77.063,-292.086 122.717,-482.379 l -141.286,11.414 c -4.777,0 -9.059,1.427 -12.84,4.279 -133.874,77.043 -261.261,191.959 -382.208,344.81 -1.902,4.604 -3.675,8.862 -5.296,12.732 -0.065,0.195 -0.151,0.367 -0.237,0.541 -4.928,11.003 -7.307,19.26 -8.366,25.291 2.01,-0.237 4.149,-0.627 6.268,-1.146 22.764,-5.599 37.614,-28.059 42.24,-47.838 1.944,-8.258 8.149,-14.873 16.278,-17.337 2.249,-0.67 4.582,-1.015 6.875,-1.015 5.966,0 11.801,2.248 16.276,6.441 2.077,1.968 11.459,11.458 18.375,29.594 68.719,-82.576 142.477,-156.16 221.291,-220.772 -43.775,142.714 -80.414,257.37 -109.9,343.944 h -121.248 c -3.309,7.35 -6.961,14.44 -11.047,21.423 -0.172,0.324 -0.367,0.67 -0.584,1.037 -20.427,34.673 -51.685,62.278 -88.499,78.814 77.949,1.946 139.385,2.919 184.281,2.919 -20.946,60.895 -49.954,138.909 -87.05,234.045 l 241.178,-24.254 c 18.073,-59.943 38.544,-129.399 61.371,-208.387 68.502,0 119.887,-0.453 154.126,-1.405 l 39.97,-131.3 c -63.746,10.464 -117.982,16.647 -162.685,18.549 z"
   id="path770" />
	<path
   fill="#ffffff"
   d="m 399.765,1548.79 c 0.215,-0.022 0.408,-0.022 0.602,0 25.051,-0.301 50.035,0.043 74.978,0.925 7.505,-24.211 15.224,-52.787 23.008,-86.46 4.945,-21.826 10.386,-42.682 16.277,-62.442 -513.449,39.112 -393.575,337.087 -392.349,340.098 0.021,0.021 0.021,0.021 0.021,0.021 -8.365,-50.766 18.578,-108.8 61.732,-140.774 56.594,-41.908 130.991,-49.713 201.389,-51.154 4.773,-0.085 9.568,-0.171 14.342,-0.214 z"
   id="path772" />
	<path
   fill="#ffffff"
   d="m 2363.84,1667.307 c 0.151,-0.279 0.3,-0.538 0.472,-0.838 7.095,-12.192 12.666,-24.641 17.073,-37.565 0.021,-0.043 0.021,-0.107 0.042,-0.15 22.943,-75.085 -10.386,-106.371 -10.386,-106.371 -2.795,11.934 -7.933,23.523 -15.072,33.63 -0.021,0.021 -0.042,0.064 -0.086,0.086 -6.493,8.127 -13.632,15.008 -20.857,20.813 -0.042,0.022 -0.086,0.065 -0.128,0.086 -5.224,4.258 -10.493,7.913 -15.547,11.074 -0.386,0.236 -0.773,0.472 -1.182,0.71 -8.75,5.074 -32.123,15.481 -35.8,16.878 -0.258,0.086 -0.517,0.194 -0.775,0.279 -3.849,1.442 -7.267,2.581 -8.901,2.753 -0.023,0 -0.023,0 -0.044,0 -1.613,0.322 -3.204,0.495 -4.794,0.495 -3.528,0 -5.741,-1.871 -6.623,-5.634 -0.538,-2.322 -0.302,-4.752 0.279,-7.052 10.3,-41.414 -15.289,-63.84 -15.44,-63.969 40.402,-12.364 60.615,-34.791 60.615,-67.28 0,-13.137 -3.914,-24.555 -11.698,-34.188 -7.826,-9.676 -17.932,-16.922 -30.317,-21.76 -12.385,-4.838 -24.534,-8.299 -36.447,-10.429 -11.868,-2.085 -23.415,-3.139 -34.575,-3.139 -20.297,0 -40.379,3.397 -60.227,10.234 -19.803,6.795 -36.961,17.761 -51.498,32.899 -14.491,15.115 -21.737,32.682 -21.737,52.766 0,13.654 7.31,26.297 21.93,37.93 l 45.736,-22.298 c -19.824,-11.397 -29.759,-23.674 -29.759,-36.812 0,-14.126 10.127,-26.684 30.317,-37.736 8.408,-4.581 17.073,-8.235 25.975,-10.902 l -16.213,99.899 v 0.108 c -1.096,6.256 -2.171,13.181 -3.267,20.77 -7.935,61.711 -22.814,78.139 -47.349,78.139 -8.063,0 -12.857,-4.43 -14.342,-13.289 -0.365,-2.021 -0.538,-4.3 -0.538,-6.795 0,-9.116 1.268,-19.18 3.828,-30.189 -13.632,14.148 -26.836,25.437 -39.607,33.845 -1.785,1.182 -3.591,2.257 -5.441,3.246 -11.891,6.688 -24.683,9.977 -38.317,9.977 -15.738,0 -28.963,-5.505 -39.67,-16.47 -10.709,-10.988 -16.064,-23.933 -16.064,-38.876 v -1.054 c 0.13,-3.182 1.505,-13.267 13.073,-24.34 9.203,-8.816 21.416,-14.041 34.168,-14.084 h 0.214 c 7.333,0 16.427,0.968 27.243,2.839 l 10.193,-36.209 c -0.817,0 -2.043,-0.129 -3.656,-0.409 -11.675,-0.795 -19.955,-1.613 -24.834,-2.43 -4.859,-0.817 -10.106,-3.656 -15.675,-8.536 -5.569,-4.903 -8.322,-11.955 -8.322,-21.159 v -0.172 c 0.021,-11.159 4.817,-21.824 12.922,-29.5 3.807,-3.613 8.452,-7.267 13.783,-9.912 17.246,-8.601 38.317,1.591 42.015,20.491 0,0.064 0.021,0.107 0.021,0.172 1.119,5.569 1.634,10.772 1.634,15.675 l 31.739,-36.231 c -2.967,-14.105 -9.979,-24.555 -20.944,-31.328 -10.988,-6.774 -23.932,-10.171 -38.876,-10.171 -24.921,0 -47.798,7.397 -68.548,22.19 -20.75,14.793 -31.136,33.543 -31.136,56.335 0,20.88 10.451,37.306 31.35,49.241 0,0 -33.887,3.117 -54.786,31.564 -8.301,11.224 -14.535,26.448 -15.868,46.982 -18.47,9.87 -31.953,14.793 -40.425,14.793 -6.515,0 -9.784,-2.602 -9.784,-7.848 0,-2.279 1.699,-7.826 5.032,-16.578 l 89.125,-205.28 -95.64,-9.462 -39.156,96.008 c -34.081,2.537 -68.612,9.138 -96.651,15.739 5.505,-38.854 18.406,-84.353 34.576,-121.723 l -75,-8.278 c -63.839,111.703 -53.69,231.19 -53.69,231.19 -29.587,16.621 -50.53,24.921 -62.873,24.921 -15.245,0 -22.878,-9.375 -22.878,-28.125 l 36.06,-182.789 52.851,2.623 20.298,-50.637 -200.011,-21.266 -14.965,51.927 59.689,8.365 c -11.31,37.048 -44.144,179.565 -44.144,199.626 0,0.86 0,1.677 0.022,2.516 -0.43,0.15 -3.849,0.064 -7.999,-0.086 3.075,-15.246 4.71,-31.006 4.71,-47.155 0,-101.275 -63.496,-187.692 -152.837,-221.665 l 22.77,-67.926 95.534,137.27 -58.831,-155.89 163.094,29.565 -151.826,-69.043 141.764,-99.104 -161.138,63.991 27.329,-162.384 -65.796,149.483 -98.265,-137.722 61.432,157.116 -167.674,-30.34 159.503,69.344 -149.805,102.286 165.932,-65.969 -19.374,68.979 c -14.061,-2.946 -28.554,-4.666 -43.391,-4.989 h -0.043 c -1.806,-0.042 -3.613,-0.064 -5.44,-0.064 -116.907,0 -214.032,84.611 -233.492,195.948 -2.343,13.353 -3.548,27.093 -3.548,41.112 0,43.176 11.547,83.665 31.716,118.541 0.129,0.237 0.258,0.452 0.408,0.689 5.182,8.88 10.923,17.395 17.181,25.501 -6.881,5.462 -13.654,9.504 -20.298,12.128 -7.269,2.838 -14.794,4.278 -22.577,4.278 -24.384,-2.085 -36.554,-25.932 -36.554,-71.581 0,-71.365 28.382,-188.336 85.126,-350.957 l -110.155,-11.697 c -19.825,17.416 -37.801,37.822 -53.927,61.195 -23.093,33.457 -40.467,65.108 -52.12,94.909 -11.676,29.846 -25.674,65.754 -42.015,107.748 -16.342,42.015 -31.264,75.73 -44.725,101.146 5.16,-31.631 7.762,-75.193 7.762,-130.711 v -87.901 c 0,-73.128 4.516,-119.723 15.933,-164.34 l -85.943,-9.138 c -27.501,33.199 -49.284,68.85 -65.345,106.973 -16.083,38.123 -29.824,82.332 -41.241,132.624 -36.812,159.224 -79.343,238.845 -127.572,238.845 -15.051,-2.085 -22.555,-17.631 -22.555,-46.681 0,-6.235 0.387,-13.094 1.161,-20.62 0.774,-7.505 1.677,-14.643 2.731,-21.395 1.032,-6.73 1.548,-11.137 1.548,-13.224 0,0 -0.021,0.022 -0.064,0.043 l -31.372,28.576 c -24.835,26.104 -53.304,66.054 -40.23,102.414 6.924,19.266 24.47,32.382 44.639,35.823 4.709,0.796 9.547,1.182 14.578,1.182 26.448,0 50.96,-9.332 73.517,-28.017 22.555,-18.664 41.628,-41.219 57.174,-67.668 21.265,-35.801 41.886,-92.974 61.862,-171.543 19.953,-78.569 34.081,-128.475 42.402,-149.762 -8.837,45.132 -15.051,114.24 -18.685,207.323 -3.634,93.104 -10.106,163.244 -19.438,210.441 38.359,0 65.345,-3.613 80.891,-10.88 26.447,-25.416 49.927,-56.529 70.419,-93.363 20.47,-36.811 36.295,-71.429 47.455,-103.855 11.138,-32.403 25.136,-68.591 41.994,-108.52 16.857,-39.93 34.619,-73.645 53.304,-101.146 -39.436,93.877 -59.131,178.94 -59.131,255.165 0,36.316 4.666,68.204 13.997,95.705 15.051,44.079 40.467,66.119 76.246,66.119 25.932,0 54.057,-9.976 84.396,-29.952 17.202,-11.311 33.157,-23.502 47.928,-36.553 22.47,19.781 48.681,35.435 77.473,45.627 l -73.193,260.454 85.943,-256.369 c 21.073,6.15 43.349,9.483 66.399,9.483 22.555,0 44.38,-3.161 65.044,-9.03 73.536,-20.944 132.474,-76.527 158.104,-147.956 7.311,-1.463 16.793,-3.914 22.513,-6.193 3.526,8.709 8.837,16.407 15.911,23.158 14.148,13.525 31.479,20.277 51.97,20.277 13.094,0 27.802,-3.699 44.143,-11.116 16.364,-7.397 28.684,-13.933 36.963,-19.61 5.783,-3.978 13.653,-9.569 23.522,-16.771 1.721,16.427 4.538,32.898 8.516,49.476 l 79.773,-13.094 c 0,0 -6.43,-57.797 -0.215,-130.582 27.5,-5.656 58.313,-10.3 85.062,-13.804 l -19.138,46.96 c -6.213,12.643 -10.858,23.868 -13.976,33.673 -3.096,9.805 -4.644,18.191 -4.644,25.179 0,15.245 6.192,27.436 18.62,36.618 12.407,9.138 26.04,13.74 40.876,13.74 6.966,0 14.385,-1.097 22.233,-3.29 7.848,-2.171 14.708,-4.472 20.599,-6.859 5.891,-2.386 13.182,-6.106 21.911,-11.116 8.708,-5.01 15.138,-8.923 19.266,-11.761 2.667,-1.828 6.299,-4.322 10.858,-7.505 1.743,2.107 3.7,4.321 5.892,6.816 10.816,12.343 23.652,21.309 38.425,26.835 14.793,5.57 29.931,8.365 45.392,8.365 22.233,0 45.261,-6.945 69.107,-20.835 0.193,0.279 0.431,0.516 0.645,0.774 2.537,2.881 5.741,5.246 9.611,7.139 1.785,1.117 3.828,2.278 6.108,3.439 43.907,22.513 97.49,3.656 119.702,-40.38 6.6,-13.116 12.213,-28.921 14.772,-47.348 h -0.044 c 1.72,-9.16 2.688,-18.535 2.795,-28.146 l 1.85,15.631 h 7.074 c 5.138,0 7.719,4.409 7.805,13.246 v 0.043 l -5.289,35.371 -0.151,0.967 c -1.031,7.01 -1.096,14.171 0.279,21.116 1.55,7.912 4.538,14.793 8.924,20.599 6.795,9.03 16.664,13.546 29.565,13.546 2.215,0 4.407,-0.129 6.623,-0.365 16.192,-1.226 33.135,-8.408 48.701,-17.589 28.555,-16.857 52.487,-40.553 58.723,-46.939 1.031,-1.075 1.569,-1.656 1.569,-1.656 v -0.021 c 4.861,-5.268 9.269,-10.987 13.096,-17.03 -0.668,1.053 -0.023,4.773 -0.065,6.085 -0.861,29.199 -12.58,56.571 -31.478,78.719 -13.72,16.083 -30.964,28.985 -49.778,38.51 -20.557,10.429 -43.241,15.633 -65.926,18.859 -23.394,3.375 -46.874,6.365 -70.419,8.643 -48.638,4.71 -97.534,6.537 -146.386,5.871 -49.045,-0.646 -98.028,-3.763 -146.794,-8.838 -49.047,-5.138 -97.879,-12.235 -146.431,-20.856 -32.145,-5.742 -64.162,-12.084 -96.05,-19.03 -13.267,-2.881 -26.468,-5.849 -39.693,-8.923 -10.234,-2.365 -20.491,-4.795 -30.683,-7.268 -2.688,1.29 -5.505,2.56 -8.45,3.914 -19.159,8.687 -37.134,13.115 -53.412,13.115 -26.382,0 -49.131,-8.901 -67.537,-26.511 -1.311,-1.247 -2.581,-2.559 -3.806,-3.849 -8.816,22.749 -21.653,43.499 -37.586,61.453 15.46,3.548 30.877,7.031 46.316,10.493 273.334,60.916 562.388,102.113 831.895,34.124 44.339,-11.204 82.654,-39.436 105.834,-78.85 z m -1035.777,10.924 c -40.144,41.779 -94.051,63.539 -148.085,64.055 -58.185,0.56 -108.478,-19.416 -150.385,-59.668 -41.671,-40.037 -63.539,-94.029 -64.012,-148.321 -0.495,-58.399 19.631,-108.822 60.12,-150.773 40.037,-41.477 93.727,-63.001 147.461,-63.538 58.55,-0.581 109.08,19.588 151.116,60.27 41.048,39.715 62.85,93.427 63.582,163.803 -0.064,42.014 -19.567,92.329 -59.797,134.172 z m 883.436,-160.191 c -1.485,0 -3.958,-0.064 -7.44,-0.193 -3.463,-0.107 -6.043,-0.172 -7.784,-0.172 l 7.977,-84.826 v -0.021 l 1.483,-15.739 c 5.527,0.838 10.709,2.236 15.547,4.214 4.838,1.999 9.332,4.558 13.46,7.698 11.289,8.558 16.901,20.276 16.901,35.112 0,35.974 -13.353,53.927 -40.144,53.927 z"
   id="path774" />
	<path
   fill="#ffffff"
   d="m 1156.82,1625.852 c 1.397,1.763 3.268,2.86 5.333,3.892 0.689,-0.451 1.656,-0.774 2.043,-1.419 0.86,-1.462 1.397,-3.074 2.15,-4.816 -0.946,-0.344 -1.635,-0.667 -2.365,-0.882 -1.892,-0.581 -2.989,-2.021 -3.827,-3.656 -0.925,-1.87 -1.699,-3.827 -2.538,-5.741 -2.193,0.236 -4.365,0.408 -6.515,0.753 -0.925,0.15 -1.678,-0.021 -2.431,-0.451 -0.473,-0.258 -0.903,-0.581 -1.397,-0.753 -0.903,-0.279 -1.054,-0.881 -0.903,-1.72 0.107,-0.71 0.129,-1.44 0.172,-2.129 -0.989,-0.753 -2.043,-0.129 -2.989,-0.343 -0.129,-0.022 -0.408,0.279 -0.495,0.472 -0.495,1.011 -0.968,2.043 -1.419,3.053 1.183,1.419 2.322,2.688 3.978,3.268 1.376,0.495 2.214,1.355 2.559,2.796 0.301,1.247 1.118,2.064 2.279,2.774 2.28,1.397 4.645,2.752 6.365,4.902 z"
   id="path776" />
	<path
   fill="#ffffff"
   d="m 1158.455,1676.79 c 0.817,0.129 1.634,0.474 2.494,0.731 1.075,-0.452 2.043,-1.032 3.096,-1.246 1.033,-0.194 2.129,-0.022 3.204,-0.022 0.408,0 0.839,0.086 1.182,-0.043 1.011,-0.408 1.978,-0.903 3.075,-1.418 -0.474,-0.667 -0.925,-1.247 -1.29,-1.85 -0.495,-0.838 -1.225,-1.161 -2.15,-1.397 -1.849,-0.43 -3.741,-0.602 -5.634,-0.581 -2.537,0 -4.73,0.882 -6.429,2.795 0.15,0.452 0.279,0.882 0.474,1.269 0.407,0.859 0.881,1.612 1.978,1.762 z"
   id="path778" />
	<path
   fill="#ffffff"
   d="m 1149.746,1629.206 c -0.279,0.71 -0.451,1.182 -0.645,1.656 -0.194,0.538 -0.408,1.053 -0.624,1.613 -1.311,-0.086 -2.559,-0.172 -3.827,-0.258 -0.689,0.796 -1.333,1.57 -2.043,2.408 0.796,1.591 1.461,3.246 3.354,3.87 0.495,0.172 0.967,0.451 1.418,0.689 1.463,0.731 2.925,1.484 4.366,2.214 1.333,-1.419 1.333,-1.484 0.581,-3.01 -0.344,-0.688 -0.581,-1.397 -0.86,-2.064 0.881,-0.774 1.655,-1.463 2.494,-2.193 -1.44,-1.678 -2.752,-3.226 -4.214,-4.925 z"
   id="path780" />
	<path
   fill="#ffffff"
   d="m 1130.652,1619.358 c -0.408,0.193 -0.796,0.451 -1.225,0.558 -2.215,0.667 -4.128,1.871 -5.956,3.247 -1.592,1.182 -3.096,2.495 -4.602,3.763 -0.968,0.796 -1.182,0.817 -2.064,0.064 -0.603,-0.495 -1.226,-0.989 -1.957,-1.591 -0.193,0.946 -0.344,1.72 -0.538,2.645 0.624,0.064 1.032,0.086 1.42,0.172 3.053,0.645 6.106,0.558 9.138,-0.086 0.516,-0.107 1.032,-0.322 1.441,-0.603 0.86,-0.624 1.634,-1.311 2.429,-1.956 0.151,-1.097 0.279,-2.129 0.43,-3.311 1.182,0.15 2.279,0.279 3.375,0.408 0.258,1.182 0.451,2.214 0.71,3.375 0.753,0.065 1.527,0.366 2.128,0.151 0.99,-0.387 1.957,-0.646 3.011,-0.646 0.365,0.022 0.752,0.043 1.161,0.065 0,-1.354 -0.237,-2.688 0.064,-3.892 0.279,-1.204 1.097,-2.3 1.763,-3.57 -1.763,-0.774 -3.418,-1.441 -5.009,-2.214 -1.592,-0.796 -3.161,-0.861 -4.881,-0.215 -0.278,1.185 -0.558,2.389 -0.838,3.636 z"
   id="path782" />
	<path
   fill="#ffffff"
   d="m 1153.617,1603.102 c 0.624,-0.279 1.268,-0.495 1.785,-0.839 1.031,-0.645 2.128,-0.688 3.267,-0.645 0.71,0.021 1.44,-0.021 2.15,0 1.376,0.021 2.731,0.065 4.086,0.086 1.053,0.021 2.128,0 3.182,0 0.193,-2 -0.946,-3.375 -2.624,-4.666 1.268,-0.839 2.279,-1.526 3.332,-2.236 -1.182,-1.484 -2.042,-2.989 -3.591,-3.978 -1.484,-0.946 -2.731,-2.257 -3.505,-3.913 -0.021,-0.086 -0.129,-0.108 -0.258,-0.215 -0.236,0.064 -0.538,0.129 -0.86,0.215 -0.086,2.43 1.269,4.58 1.139,7.052 -0.473,-0.107 -0.881,-0.172 -1.246,-0.322 -1.527,-0.645 -3.096,-0.387 -4.667,-0.301 -0.322,0.022 -0.709,0.194 -0.967,0.408 -0.71,0.603 -1.354,1.269 -2.064,1.957 0.817,2.107 -0.667,3.763 -1.054,5.72 0.626,0.538 1.249,1.097 1.895,1.677 z"
   id="path784" />
	<path
   fill="#ffffff"
   d="m 1183.224,1681.456 c -0.042,0.065 -0.085,0.151 -0.128,0.215 0.258,0.301 0.451,0.667 0.752,0.882 0.861,0.645 1.29,1.57 1.549,2.536 0.408,1.528 1.333,2.731 2.214,4 1.011,1.418 2.56,1.375 4.107,1.613 -0.193,-1.032 -0.322,-2.086 -0.86,-2.839 -1.204,-1.72 -2.688,-3.246 -3.935,-4.924 -1.011,-1.354 -2.451,-1.075 -3.699,-1.483 z"
   id="path786" />
	<path
   fill="#ffffff"
   d="m 1206.64,1648.493 c -0.386,0.043 -0.688,0.086 -1.075,0.151 -0.193,0.946 -0.386,1.871 -0.624,2.946 h 2.581 c -0.322,-1.118 -0.601,-2.086 -0.882,-3.097 z"
   id="path788" />
	<path
   fill="#ffffff"
   d="m 1194.342,1674.059 c 0.129,-2.602 -0.818,-4.881 -1.204,-7.267 -1.247,-0.344 -1.85,0.516 -2.624,0.989 -0.753,0.451 -1.484,0.989 -2.279,1.354 -0.881,0.387 -1.827,0.581 -2.838,0.903 v 3.806 c -2.538,-0.214 -4.945,-0.429 -7.354,-0.645 0.258,1.096 0.967,1.463 2.042,1.484 1.506,0.022 3.011,0.064 4.473,0.344 1.398,0.257 2.452,-0.086 3.376,-1.075 0.064,-0.065 0.128,-0.108 0.172,-0.172 1.397,-1.463 3.16,-1.419 5.095,-1.268 -0.107,0.581 -0.215,1.096 -0.279,1.613 -0.129,1.01 -0.581,1.763 -1.463,2.364 -0.924,0.624 -1.72,1.442 -2.559,2.172 0.043,0.086 0.086,0.172 0.129,0.236 1.075,0.086 2.15,0.172 3.268,0.258 1.013,-1.591 1.937,-3.032 2.045,-5.096 z"
   id="path790" />
	<path
   fill="#ffffff"
   d="m 1171.635,1657.288 c -0.731,-0.989 -1.463,-1.957 -2.172,-2.882 -1.57,-0.386 -2.945,-0.3 -4.085,0.904 -0.15,0.15 -0.322,0.236 -0.495,0.365 -0.538,0.365 -0.925,0.839 -1.139,1.505 -0.56,1.742 -1.161,3.463 -2.71,4.645 -0.387,0.301 -0.645,0.71 -0.989,1.096 0.108,0.71 0.236,1.376 0.365,2.194 0.71,0.085 1.42,0.193 2.129,0.236 2.107,0.15 3.527,-0.968 3.892,-3.01 0.064,-0.323 0.128,-0.667 0.258,-0.947 0.171,-0.386 0.343,-0.795 0.623,-1.096 0.431,-0.474 0.99,-0.839 1.463,-1.29 0.645,-0.581 1.354,-0.817 2.236,-0.731 1.634,0.193 3.289,0.387 4.945,0.472 0.925,0.043 1.635,0.323 2.172,1.075 0.989,1.355 2.214,2.215 3.913,2.645 1.613,0.431 2.903,0.022 4.236,-0.602 -0.517,-1.871 -1.592,-3.311 -2.796,-4.623 -1.375,-1.505 -0.903,-3.204 -1.01,-4.946 2.343,0.344 4.128,1.376 5.634,2.903 0.579,0.581 1.117,0.689 1.827,0.56 1.376,-0.258 2.731,-0.646 4.086,-0.732 1.87,-0.107 2.881,-1.289 3.719,-2.407 -0.538,-1.979 -1.01,-3.763 -1.483,-5.548 -0.215,-0.753 -0.065,-1.419 0.452,-2.043 0.493,-0.624 0.924,-1.311 1.44,-2.064 -1.592,-0.796 -2.774,-1.914 -4.645,-1.871 -1.699,0.065 -3.354,0.065 -4.903,0.517 -0.86,2.538 -0.688,4.816 1.14,7.074 h 3.763 c 0.322,1.332 1.268,2.279 1.333,3.677 -2.581,0.581 -5.01,0.774 -7.397,-0.365 -0.882,-0.408 -1.699,-0.968 -2.538,-1.419 -1.075,-0.56 -2.15,-1.075 -3.29,-1.656 -0.924,0.968 -2.042,1.72 -2.537,2.753 -0.43,0.946 -0.193,2.192 -0.258,3.396 -2.168,1.29 -4.534,2.107 -7.179,2.215 z"
   id="path792" />
	<path
   fill="#ffffff"
   d="m 1200.255,1680.832 c -0.474,-0.645 -1.097,-1.161 -2.129,-1.01 0.882,1.806 1.699,3.526 2.559,5.353 0.71,0.172 1.376,0.322 2.043,0.495 1.01,0.237 1.892,0.538 2.602,1.441 1.14,1.463 2.667,2.387 4.666,2.538 -0.731,-1.139 -1.506,-2.15 -2.645,-2.795 -2.732,-1.57 -5.247,-3.42 -7.096,-6.022 z"
   id="path794" />
	<path
   fill="#ffffff"
   d="m 1179.785,1612.37 c -0.301,0.043 -0.517,0.065 -0.968,0.15 0.667,0.646 1.161,1.14 1.678,1.656 0.064,-0.064 0.107,-0.107 0.172,-0.172 -0.281,-0.538 -0.582,-1.076 -0.882,-1.634 z"
   id="path796" />
	<path
   fill="#ffffff"
   d="m 1179.032,1628.798 c 2.386,-0.452 4.537,-1.14 6.666,-2.107 0.236,0.538 0.408,0.946 0.602,1.333 1.075,2.386 0.15,4.816 -2.257,5.869 -0.581,0.258 -1.355,0.474 -1.656,0.947 -0.624,0.989 -1.011,2.15 -1.57,3.375 1.548,0.086 2.86,0.387 4.235,-0.215 1.397,-0.602 2.925,-0.774 4.473,-0.451 0.495,0.086 1.032,0.065 1.592,0.086 0.365,-0.968 0.688,-1.871 1.075,-2.924 -0.194,-0.172 -0.344,-0.408 -0.56,-0.474 -0.731,-0.236 -1.032,-0.796 -1.397,-1.42 -1.053,-1.677 -1.268,-3.439 -0.946,-5.353 0.086,-0.452 0.043,-1.053 -0.215,-1.376 -1.247,-1.505 -2.559,-2.946 -3.87,-4.365 -0.473,-0.516 -0.968,-0.387 -1.376,0.086 -0.236,0.257 -0.408,0.602 -0.581,0.924 -0.516,1.097 -1.268,1.957 -2.386,2.495 -0.753,0.365 -1.484,0.796 -2.258,1.204 0.15,0.817 0.279,1.506 0.429,2.366 z"
   id="path798" />
	<path
   fill="#ffffff"
   d="m 1169.614,1729.234 v 0.279 h 2.602 c -0.86,-0.344 -1.742,-0.279 -2.602,-0.279 z"
   id="path800" />
	<path
   fill="#ffffff"
   d="m 1089.089,1502.902 c -0.086,-0.043 -0.172,-0.107 -0.258,-0.15 0.151,0.451 0.301,0.903 0.495,1.419 1.226,-0.194 2.408,-0.366 3.591,-0.581 0.215,-0.043 0.474,-0.215 0.582,-0.408 0.538,-0.925 1.053,-1.893 1.569,-2.86 -0.516,-0.818 -0.989,-1.549 -1.418,-2.215 -1.572,1.656 -3.056,3.226 -4.561,4.795 z"
   id="path802" />
	<path
   fill="#ffffff"
   d="m 1096.571,1458.695 c 0.689,0.473 1.376,0.946 2.043,1.418 1.57,-2.752 1.268,-5.483 0.365,-8.386 -1.698,2.044 -2.623,4.236 -2.408,6.968 z"
   id="path804" />
	<path
   fill="#ffffff"
   d="m 1104.872,1450.997 c 0.15,-1.032 -0.646,-1.419 -1.269,-1.893 -1.418,-1.053 -2.838,-2.107 -3.182,-4.02 -0.043,-0.323 -0.193,-0.646 -0.386,-0.903 -0.194,-0.237 -0.474,-0.43 -0.71,-0.646 -0.152,5.333 2.236,6.559 5.547,7.462 z"
   id="path806" />
	<path
   fill="#ffffff"
   d="m 1089.971,1459.038 c 0.71,0.946 1.397,1.871 2.085,2.774 1.097,-0.516 2.086,-0.967 3.333,-1.549 -1.914,-0.816 -3.311,-2.278 -5.418,-1.225 z"
   id="path808" />
	<path
   fill="#ffffff"
   d="m 1007.789,1477.703 c 0.882,0.774 1.613,1.397 2.301,2.085 0.322,0.301 0.666,0.667 0.752,1.054 0.43,1.699 0.818,3.398 1.097,5.117 0.279,1.871 0.817,3.634 1.892,5.246 1.656,-0.429 2.559,-1.87 3.978,-3.031 0.043,0.495 0.086,0.795 0.086,1.075 -0.022,1.139 -0.215,2.278 0.279,3.353 1.354,2.968 2.753,5.935 4.171,8.881 0.172,0.343 0.473,0.645 0.796,0.838 0.903,0.603 2.021,0.99 2.731,1.764 1.333,1.462 2.645,2.924 3.462,4.795 0.431,0.989 1.14,1.871 1.742,2.795 1.204,1.828 2.452,3.634 3.634,5.484 1.225,1.913 2.322,3.934 4.021,5.461 1.44,1.312 3.032,2.452 4.537,3.678 1.097,0.881 2.193,1.806 3.268,2.709 1.419,1.204 2.753,2.495 4.559,3.139 0.839,0.279 1.57,0.753 2.128,1.549 0.667,0.946 1.527,1.763 2.301,2.645 1.161,1.311 2.409,2.473 4.042,3.246 1.032,0.474 1.914,0.474 2.903,0.086 0.451,-0.15 1.075,-0.365 1.397,-0.172 1.182,0.689 2.322,1.463 3.376,2.322 0.731,0.624 1.225,1.506 1.935,2.172 1.053,0.989 2.257,1.849 3.354,2.795 1.354,1.161 2.859,2.171 3.849,3.699 0.86,1.311 1.827,2.559 3.31,3.505 -0.215,-0.43 -0.386,-0.732 -0.516,-1.054 -0.279,-0.645 -0.624,-1.246 -0.775,-1.913 -0.407,-1.678 -0.709,-3.397 -1.117,-5.096 -0.365,-1.549 -0.989,-2.946 -2.344,-3.935 -1.053,-0.774 -2.021,-1.635 -2.945,-2.559 -1.011,-1.011 -2.129,-1.742 -3.613,-1.72 -1.635,0.021 -2.817,-0.839 -3.849,-2 -0.344,-0.387 -0.753,-0.753 -1.204,-1.011 -0.968,-0.624 -1.935,-1.204 -2.946,-1.72 -1.763,-0.903 -3.548,-1.764 -5.354,-2.602 -1.204,-0.56 -2.452,-1.032 -2.989,-2.452 -0.193,-0.474 -0.517,-0.925 -0.817,-1.354 -0.193,-0.236 -0.43,-0.537 -0.71,-0.624 -2.064,-0.602 -3.978,-1.57 -5.806,-2.71 -0.495,-0.3 -0.967,-0.731 -1.247,-1.225 -0.709,-1.225 -1.246,-2.538 -1.935,-3.763 -0.581,-1.032 -1.354,-1.935 -1.956,-2.946 -1.635,-2.731 -3.29,-5.419 -5.591,-7.655 -0.56,-0.537 -0.989,-1.139 -1.011,-1.999 -0.064,-2.129 -1.118,-3.849 -2.45,-5.441 -0.301,-0.365 -0.56,-0.817 -0.646,-1.268 -0.322,-1.548 -0.71,-3.118 -0.795,-4.688 -0.172,-3.096 -0.56,-6.235 0.107,-9.288 0.43,-1.935 1.053,-3.827 2.752,-5.117 0.624,-0.474 1.226,-0.946 1.893,-1.354 0.236,-0.172 0.579,-0.258 0.881,-0.28 1.054,-0.021 2.107,0 3.225,0 0.71,-1.096 1.42,-2.193 2.215,-3.396 0.623,0.709 1.118,1.268 1.677,1.913 -1.096,1.032 -2.064,1.935 -3.01,2.817 0,0.387 -0.043,0.71 0,1.032 0.365,2.129 0.71,4.257 1.096,6.387 0.28,1.548 0.408,3.182 0.946,4.644 0.796,2.107 1.893,4.064 2.882,6.128 0.322,-0.538 0.71,-1.053 0.946,-1.634 0.215,-0.451 0.344,-1.032 0.279,-1.506 -0.215,-1.526 -0.495,-3.053 -1.354,-4.386 -1.29,-2.021 -0.796,-4.171 -0.344,-6.235 0.387,-1.742 1.118,-3.398 1.699,-5.096 0.193,-0.602 0.408,-1.204 0.645,-1.871 0.624,-0.15 1.205,-0.322 1.807,-0.386 1.139,-0.108 2.086,-0.624 2.946,-1.354 0.645,-0.56 1.29,-1.097 1.956,-1.656 1.764,-1.506 3.635,-2.86 5.741,-3.871 1.204,-0.559 2.387,-0.386 3.742,-0.365 -0.215,1.161 -0.408,2.193 -0.624,3.225 -0.043,0.172 -0.215,0.344 -0.365,0.474 -1.463,1.268 -2.881,2.645 -4.752,3.354 -1.484,0.58 -1.785,1.935 -2.365,3.289 0.474,0.15 0.796,0.279 1.139,0.365 1.312,0.344 2.387,-0.558 3.613,-0.71 0.474,-0.064 0.968,-0.129 1.397,-0.021 0.452,0.107 0.861,0.452 1.29,0.645 0.925,0.408 1.763,0.946 2.86,0.301 0.667,-0.387 1.527,-0.387 2.386,-0.603 0.279,0.925 0.517,1.742 0.839,2.817 -0.925,-0.043 -1.591,-0.043 -2.258,-0.129 -0.989,-0.107 -1.827,-0.021 -2.451,0.904 -0.365,0.516 -0.925,0.903 -1.397,1.332 0.085,0.043 0.15,0.086 0.236,0.129 -0.43,1.914 -0.839,3.849 -1.354,5.763 -0.172,0.753 -0.172,1.29 0.365,1.914 0.774,0.924 1.527,1.913 2.085,2.988 0.882,1.656 2.258,2.817 3.635,4.021 1.784,1.57 3.375,3.311 3.505,5.849 0.107,1.978 1.827,2.537 3.053,3.891 0.344,-1.182 0.839,-2.064 0.796,-2.924 -0.086,-2.236 -0.581,-4.365 -2.753,-5.633 -0.107,-0.065 -0.172,-0.151 -0.279,-0.237 -0.516,-0.516 -0.86,-1.075 -0.989,-1.871 -0.215,-1.311 -0.689,-2.58 -1.054,-3.849 -0.172,-0.58 -0.365,-1.139 -0.58,-1.827 0.322,0.064 0.452,0.064 0.538,0.129 0.171,0.107 0.343,0.236 0.472,0.386 1.01,1.011 3.075,1.204 4.257,0.408 0.753,-0.495 1.549,-0.989 2.386,-1.526 0.495,1.14 1.097,2.129 1.354,3.204 0.258,1.118 0.172,2.3 0.258,3.763 0.925,-1.29 1.871,-2.215 2.193,-3.591 0.344,-1.485 0.968,-2.839 2.043,-4.15 0.451,1.139 0.839,2.15 1.268,3.268 3.42,-0.989 6.988,-1.505 8.923,-5.053 -1.375,-1.699 -2.73,-3.44 -4.149,-5.096 -1.118,-1.311 -1.29,-2.881 -1.699,-4.515 0.989,-0.732 1.935,-1.398 3.053,-2.193 0.258,1.375 0.495,2.494 0.731,3.698 0.646,-0.107 1.183,-0.193 1.85,-0.279 -0.431,-2.602 -0.839,-5.074 -1.269,-7.676 h 2.236 c 0.581,1.548 1.397,3.096 1.742,4.73 0.344,1.699 0.796,3.268 1.978,4.58 0.537,0.581 0.989,0.882 1.785,0.516 1.678,-0.753 3.418,-1.247 5.246,-1.419 1.635,-0.172 2.946,-1.075 4.43,-1.699 -0.322,-0.86 -0.796,-1.311 -1.656,-1.247 -0.624,0.022 -1.225,-0.021 -1.828,0.022 -1.634,0.107 -3.031,-0.516 -4.257,-1.484 -0.667,-0.537 -1.182,-1.226 -1.828,-1.785 -1.375,-1.182 -1.289,-2.86 -1.806,-4.407 0.689,-0.365 1.204,-0.646 1.914,-1.011 -2.688,-2.645 -5.956,-3.139 -9.375,-3.289 -0.108,1.032 -0.108,1.956 -0.323,2.86 -0.236,0.924 -0.624,1.849 -1.01,2.73 -0.193,0.43 -0.495,0.861 -0.86,1.118 -1.463,1.054 -2.925,2.065 -4.43,3.032 -0.946,0.624 -1.678,1.354 -2.193,2.386 -0.365,0.732 -0.903,1.506 -1.57,1.957 -0.775,0.517 -1.764,0.667 -2.796,1.011 0.022,-0.43 0,-0.667 0.065,-0.882 0.343,-1.054 0.795,-2 1.72,-2.71 1.054,-0.817 1.742,-1.87 2.107,-3.182 0.323,-1.096 0.71,-2.214 1.699,-3.031 0.495,-0.431 0.839,-1.075 1.29,-1.635 -0.301,-0.429 -0.516,-0.881 -0.86,-1.204 -1.268,-1.161 -1.678,-2.666 -1.806,-4.257 -0.086,-1.053 -0.537,-1.849 -1.269,-2.537 -1.699,-1.613 -1.871,-3.72 -2,-5.913 1.054,-0.237 1.979,-0.43 2.946,-0.646 0,-0.71 0.043,-1.268 -0.021,-1.849 -0.065,-0.753 -0.043,-1.57 -0.323,-2.257 -0.451,-1.204 -1.053,-2.365 -1.698,-3.484 -0.431,-0.753 -0.904,-1.635 -1.592,-2.064 -0.839,-0.538 -1.956,-0.689 -3.031,-1.011 0.128,1.354 0.516,2.602 0.3,3.72 -0.258,1.204 -1.397,2.021 -2.279,2.817 -6.322,-3.074 -7.397,-2.709 -11.16,-1.656 0.731,2.495 0.495,4.967 -0.193,7.462 -0.645,-0.129 -1.247,-0.237 -1.828,-0.387 -0.731,-0.193 -1.161,-0.624 -1.247,-1.44 -0.107,-0.882 -0.301,-1.763 -0.473,-2.688 -0.818,-0.56 -1.635,-1.139 -2.452,-1.721 -0.086,0.044 -0.151,0.086 -0.215,0.151 0.108,0.452 0.258,0.882 0.322,1.354 0.129,0.903 0.387,1.828 0.301,2.71 -0.15,1.72 -0.344,3.396 0.108,5.095 0.085,0.323 0.085,0.667 0.128,1.161 -2.666,-0.408 -5.052,0.086 -7.181,1.247 -0.538,-0.15 -0.968,-0.301 -1.397,-0.408 -0.688,-0.15 -0.989,-0.538 -1.075,-1.268 -0.108,-1.097 -0.322,-2.172 -0.517,-3.247 -0.322,-1.935 -0.538,-3.87 -2.279,-5.203 -0.58,-0.452 -1.117,-0.839 -1.892,-0.946 -1.225,-0.172 -2.559,-0.15 -3.612,-0.946 -1.828,-1.312 -3.892,-1.957 -6.107,-2.15 -0.236,0 -0.495,-0.129 -0.645,-0.301 -0.839,-0.86 -1.656,-1.763 -2.602,-2.795 0.946,-0.646 1.784,-1.226 2.602,-1.807 1.268,0.903 2.473,1.742 3.677,2.581 0.774,-0.387 1.484,-0.731 2.3,-1.14 -0.731,-0.924 -1.247,-1.763 -2.236,-2.214 -1.72,-0.753 -3.311,-1.699 -3.977,-3.634 -0.086,-0.215 -0.323,-0.387 -0.43,-0.603 -0.387,-0.731 -1.075,-1.01 -1.871,-1.182 -0.279,1.247 -0.516,2.429 -0.796,3.699 -1.117,-0.237 -2.128,-0.452 -3.182,-0.667 -0.451,0.667 -0.86,1.247 -1.246,1.828 0.752,1.139 1.461,2.15 2.214,3.289 -1.763,1.462 -3.354,2.817 -5.01,4.128 -0.688,0.538 -1.225,1.075 -1.505,1.957 -0.366,1.161 -0.989,2.214 -1.506,3.311 -0.408,0.882 -0.946,1.677 -0.882,2.731 0.129,1.785 -0.193,3.548 -0.645,5.267 -0.065,0.301 -0.215,0.581 -0.344,0.925 -0.796,-0.322 -1.484,-0.538 -2.128,-0.882 -0.796,-0.429 -1.549,-0.322 -2.344,-0.107 -0.71,0.193 -1.397,0.408 -2.107,0.558 -2.021,0.453 -4.042,0.882 -6.084,1.312 -0.582,0.107 -0.925,0.473 -1.119,0.989 -0.193,0.538 -0.365,1.053 -0.559,1.613 0.387,0.645 0.753,1.268 1.14,1.892 0.645,1.032 1.203,2.107 1.289,3.375 0.129,1.635 0.775,3.118 1.44,4.602 0.56,1.225 1.527,2 2.452,2.817 0.495,0.43 1.311,0.495 2.021,0.731 v -3.784 z"
   id="path810" />
	<path
   fill="#ffffff"
   d="m 1080.424,1420.335 c -1.161,-0.258 -1.978,-1.418 -3.311,-0.839 -0.215,0.538 -0.431,1.033 -0.667,1.592 1.354,0.946 2.666,1.849 3.978,2.774 z"
   id="path812" />
	<path
   fill="#ffffff"
   d="m 1116.203,1427.581 c 1.204,-0.086 2.108,-0.15 3.333,-0.215 -0.322,-1.161 -0.581,-2.085 -0.903,-3.268 -0.86,1.247 -1.592,2.258 -2.43,3.483 z"
   id="path814" />
	<path
   fill="#ffffff"
   d="m 1142.994,1500.538 c -1.01,-0.581 -1.849,-1.075 -2.709,-1.592 -0.667,0.71 -1.247,1.463 -1.957,2.043 -1.247,1.053 -0.602,2.3 -0.666,3.483 0.085,0.043 0.171,0.108 0.279,0.151 1.614,-1.311 3.247,-2.623 5.053,-4.085 z"
   id="path816" />
	<path
   fill="#ffffff"
   d="m 1112.591,1581.579 c 0.408,0.236 0.731,0.472 1.096,0.624 2.322,0.86 4.624,1.87 7.01,2.494 1.784,0.474 2.903,1.44 3.934,2.903 1.571,2.193 3.225,4.386 5.957,5.225 -0.861,-1.333 -1.785,-2.645 -2.581,-4.021 -0.538,-0.903 -0.839,-1.935 -1.311,-2.881 -0.71,-1.376 -1.14,-2.968 -2.731,-3.72 -1.161,-0.538 -1.85,-1.549 -2.409,-2.667 -0.129,-0.279 -0.301,-0.667 -0.558,-0.774 -1.376,-0.581 -2.688,-1.42 -4.258,-1.312 -1.161,0.065 -2.3,0.366 -3.591,0.603 -0.193,1.182 -0.365,2.322 -0.558,3.526 z"
   id="path818" />
	<path
   fill="#ffffff"
   d="m 1076.296,1678.167 c 0.365,-0.817 0.666,-1.505 0.946,-2.086 -0.408,-0.645 -0.732,-1.161 -1.054,-1.677 -0.429,-0.688 -0.967,-1.247 -1.742,-1.635 -1.268,-0.645 -2.473,-1.397 -3.677,-2.128 -1.742,-1.054 -3.441,-2.15 -5.505,-2.516 -0.343,-0.065 -0.731,-0.215 -0.989,-0.43 -1.247,-1.032 -2.494,-2.064 -3.634,-3.225 -1.247,-1.225 -2.752,-1.978 -4.235,-2.817 -0.366,-0.193 -0.861,-0.279 -1.269,-0.236 -0.774,0.064 -1.527,0.279 -2.279,0.408 -0.602,0.107 -1.075,0.322 -1.289,0.968 -0.108,0.343 -0.409,0.602 -0.56,0.946 -0.193,0.472 -0.474,1.01 -0.429,1.484 0.107,1.118 0.386,2.214 0.602,3.332 0.839,0.301 1.57,0.56 2.559,0.925 -0.517,-1.311 -0.925,-2.322 -1.333,-3.354 0.861,-0.774 1.656,-1.463 2.429,-2.129 1.161,0.366 2.236,0.732 3.463,1.119 -0.043,3.01 -0.108,5.934 -3.011,7.998 1.247,1.376 2.624,2.516 3.613,4.042 1.054,1.656 1.14,3.527 1.678,5.332 0.688,0.237 1.354,0.408 1.978,0.689 0.343,0.15 0.774,0.429 0.86,0.731 0.215,0.817 0.279,1.656 0.408,2.452 -0.817,0.774 -1.527,1.44 -2.343,2.214 1.053,0.646 1.935,1.204 2.86,1.699 0.279,0.129 0.645,0.129 0.967,0.15 1.354,0.065 2.731,0.086 4.086,0.194 3.332,0.279 6.687,0.581 10.127,0.881 0.236,-1.827 0.472,-3.569 0.645,-5.333 0.236,-2.257 -0.882,-4.042 -2.107,-5.762 -0.562,-0.796 -1.207,-1.527 -1.765,-2.236 z"
   id="path820" />
	<path
   fill="#ffffff"
   d="m 1133.598,1580.568 c 0.193,1.14 0.365,2.172 0.538,3.204 0.903,0.472 1.784,0.924 2.623,1.397 0.258,0.15 0.56,0.365 0.689,0.624 0.322,0.71 0.538,1.44 0.817,2.171 0.258,0.689 0.236,1.29 -0.279,1.914 -0.775,0.946 -1.42,1.978 -2.15,3.032 0.236,1.806 0.495,3.591 0.753,5.419 2.15,0.602 4.192,1.139 6.385,0.86 0.043,-0.086 0.107,-0.193 0.15,-0.301 0.043,-0.15 0.129,-0.322 0.129,-0.474 -0.043,-2.257 1.032,-4.128 2.064,-6.02 0.129,-0.258 0.43,-0.538 0.689,-0.602 1.375,-0.301 2.752,-0.753 4.128,0.043 0.495,0.279 1.053,0.386 1.72,0.602 0.108,-1.011 0.237,-1.935 0.301,-2.838 0.043,-0.603 -0.279,-0.925 -0.796,-1.226 -1.613,-0.967 -3.16,-1.978 -4.709,-3.031 -0.344,-0.237 -0.645,-0.646 -0.796,-1.032 -0.3,-0.818 -0.495,-1.678 -0.752,-2.56 -1.29,-0.559 -2.581,-1.139 -4.021,-1.763 -0.301,-2.386 -0.581,-4.795 -0.861,-7.246 -0.645,-0.021 -1.418,-0.429 -2.171,0.301 0.107,2.473 -0.064,5.01 -1.096,7.333 -1.14,0.064 -2.172,0.129 -3.355,0.193 z"
   id="path822" />
	<path
   fill="#ffffff"
   d="m 1121.6,1643.14 c 1.376,0.236 2.602,-0.129 3.87,-0.646 1.613,-0.623 3.311,-0.967 5.032,-1.462 0.795,0.903 1.548,1.72 2.386,2.666 0.516,-0.881 0.925,-1.613 1.397,-2.429 -0.473,-0.322 -0.86,-0.688 -1.311,-0.925 -1.118,-0.602 -1.721,-1.547 -2.064,-2.73 -0.172,-0.667 -0.43,-1.29 -0.646,-1.893 h -3.505 c -0.624,1.269 -1.247,2.495 -1.849,3.699 -1.849,-0.129 -2.924,-0.43 -3.849,-1.161 1.29,-1.742 0.903,-3.935 1.354,-5.956 -1.053,0.172 -2.086,0.516 -3.053,1.161 -1.463,0.989 -2.989,1.828 -4.816,1.914 -1.247,0.064 -2.194,0.731 -3.097,1.527 -0.602,0.537 -1.225,1.139 -1.935,1.484 -2.688,1.29 -5.505,2.171 -8.558,1.828 -0.667,-0.086 -1.354,-0.086 -2.15,-0.151 -1.914,1.527 -3.87,3.075 -5.87,4.666 -0.15,-0.236 -0.301,-0.408 -0.344,-0.579 -0.3,-1.269 -0.645,-2.517 -0.86,-3.807 -0.258,-1.655 -0.71,-3.225 -1.591,-4.752 -1.075,0.258 -2.107,0.537 -3.161,0.796 -1.01,-2.107 -1.763,-4.214 -3.806,-5.591 -1.849,0.323 -3.849,0.71 -5.849,1.032 -0.451,0.086 -1.01,0.172 -1.418,0.022 -0.774,-0.344 -1.505,-0.817 -2.193,-1.29 -1.354,-0.924 -2.946,-0.968 -4.386,-1.333 -1.29,1.764 -1.914,3.613 -2.3,5.591 -0.065,0.322 -0.215,0.796 -0.474,0.903 -1.527,0.71 -2.989,1.699 -4.817,1.312 -0.559,-0.108 -1.117,-0.151 -1.87,-0.258 0,-0.903 0.064,-1.807 -0.022,-2.71 -0.086,-0.903 -0.3,-1.806 -0.495,-2.902 -0.581,0.429 -1.075,0.774 -1.547,1.117 -0.495,0.344 -0.989,0.71 -1.484,1.075 -0.861,-0.236 -1.678,-0.472 -2.495,-0.709 -1.247,-0.366 -1.333,-0.43 -1.182,-1.699 0.214,-1.957 -0.646,-3.548 -1.85,-4.924 -1.182,-1.311 -2.537,-2.495 -3.935,-3.613 -1.032,-0.817 -1.311,-1.72 -1.032,-2.967 0.129,-0.645 0.215,-1.463 -0.085,-1.978 -0.387,-0.689 -1.183,-1.14 -1.936,-1.828 -0.516,1.139 -0.924,2.086 -1.42,3.203 -1.547,-1.849 -3.267,-2.838 -5.526,-2.666 -0.495,0.022 -1.053,-0.322 -1.526,-0.581 -0.452,-0.279 -0.839,-0.645 -1.225,-1.032 -0.495,-0.495 -1.097,-0.989 -1.376,-1.613 -0.387,-0.796 -0.474,-1.699 -0.731,-2.559 -0.108,-0.301 -0.236,-0.667 -0.474,-0.817 -1.075,-0.646 -2.064,-1.419 -3.441,-1.355 -0.774,0.043 -1.57,-0.085 -2.407,-0.15 -0.172,-1.032 -0.237,-1.935 -0.474,-2.795 -0.301,-1.075 -0.086,-2.086 0.258,-3.097 0.795,-2.171 0.688,-4.385 0.279,-6.622 -0.129,-0.689 -0.429,-1.376 -0.688,-2.215 -0.775,-0.71 -1.742,-1.461 -2.538,-2.386 -0.774,-0.903 -1.44,-1.957 -2.042,-3.01 -0.43,-0.774 -1.033,-1.14 -1.936,-1.29 0.279,1.096 0.517,2.107 0.796,3.182 -3.096,1.161 -5.827,2.731 -9.095,2.495 -0.538,-0.043 -0.989,0.021 -1.44,0.452 -1.506,1.526 -2.409,3.332 -2.903,5.483 0.15,0.258 0.301,0.581 0.517,0.882 1.01,1.463 1.849,3.01 2.386,4.73 0.107,0.323 0.301,0.689 0.559,0.904 1.14,0.924 2.215,1.999 3.506,2.623 1.849,0.882 2.709,2.15 2.752,4.15 0.022,0.731 0.279,1.44 0.86,2.064 1.075,1.182 2,2.516 3.032,3.784 0.451,0.56 0.903,1.161 1.484,1.592 1.656,1.225 3.332,2.429 5.074,3.527 1.312,0.817 2.731,1.418 3.978,2.064 0.408,-0.215 0.624,-0.366 0.86,-0.43 1.14,-0.322 2.129,-1.311 3.418,-1.096 2.043,0.343 3.935,0.064 5.72,-0.968 0.237,-0.129 0.517,-0.193 0.817,-0.301 0.753,0.817 1.484,1.613 2.387,2.559 -1.054,0.71 -2,1.333 -3.075,2.086 0.946,0.365 1.721,0.667 2.43,0.946 0.086,2.559 -2.107,3.441 -3.354,4.967 0.194,1.118 0.409,2.171 0.624,3.418 0.775,-0.558 1.463,-0.989 2.064,-1.526 1.204,-1.075 2.538,-0.624 3.763,-0.236 0.861,0.258 1.657,0.86 2.388,1.44 0.752,0.581 1.484,0.688 2.386,0.451 1.354,-0.343 2.731,-0.258 4.064,0.322 0.15,0.775 0.193,1.57 0.408,2.301 0.429,1.289 -0.215,2.171 -1.032,2.988 -0.065,0.065 -0.151,0.108 -0.193,0.172 -0.968,1.161 -1.678,2.43 -2.043,3.785 2.516,0.624 4.838,1.204 7.267,1.785 0.667,-1.032 1.376,-2.043 2,-3.14 1.118,-1.978 2.15,-3.977 3.268,-5.955 0.15,-0.28 0.408,-0.603 0.688,-0.646 1.763,-0.429 3.57,-1.032 5.289,0.108 0.28,0.193 0.538,0.602 0.603,0.946 0.386,1.978 0.709,3.999 1.075,5.999 0.215,1.225 -0.301,2.171 -1.097,3.053 -1.118,-0.387 -2.15,-0.732 -3.375,-1.118 -0.108,0.946 -0.194,1.72 -0.258,2.386 2.064,0.774 3.913,1.484 5.784,2.172 0.71,0.279 1.419,0.602 2.172,0.774 1.956,0.429 3.634,1.354 5.181,2.58 1.721,1.355 3.72,2.408 5.87,2.538 2.193,0.129 4.257,0.474 6.257,1.311 0.15,0.043 0.322,0.043 0.538,0.086 0.043,-1.118 0.108,-2.193 0.172,-3.354 1.118,-0.064 2.236,-0.129 3.462,-0.193 -0.968,-1.656 -1.849,-3.246 -3.763,-3.677 -1.505,-0.365 -2.516,-1.376 -3.612,-2.343 -1.011,-0.904 -1.505,-1.979 -1.592,-3.29 -0.043,-0.495 -0.086,-0.967 -0.129,-1.44 2.107,0.731 4.042,1.44 5.999,2.064 1.849,0.603 3.763,0.56 5.677,0.322 0.989,-0.128 2.021,-0.408 3.01,-0.3 1.613,0.172 3.182,0.558 4.774,0.903 0.838,0.172 1.634,0.429 2.15,0.558 1.741,-0.881 3.181,-1.699 4.687,-2.364 1.247,-0.56 2.624,-0.839 3.849,-1.398 1.291,-0.585 2.582,-0.951 3.979,-0.692 z"
   id="path824" />
	<path
   fill="#ffffff"
   d="m 1122.374,1438.891 c 0.172,-0.516 0.301,-0.924 -0.495,-1.311 -1.785,1.441 -3.569,2.86 -5.289,4.236 1.161,2.645 3.375,3.591 5.999,4.085 0.71,-0.344 1.526,-0.731 2.602,-1.247 -0.86,-0.495 -1.441,-0.817 -2.042,-1.139 -0.925,-0.538 -1.678,-1.183 -1.333,-2.431 0.193,-0.731 0.322,-1.484 0.558,-2.193 z"
   id="path826" />
	<path
   fill="#ffffff"
   d="m 1035.742,1641.075 c -1.075,-0.194 -2.214,-0.387 -3.484,-0.624 -0.107,1.161 -0.214,2.193 -0.322,3.139 2.193,1.505 4.387,2.343 6.838,1.591 0.624,-2.257 0.344,-4.407 -0.279,-6.579 -1.892,-0.279 -1.828,1.591 -2.753,2.473 z"
   id="path828" />
	<path
   fill="#ffffff"
   d="m 1267.535,1480.261 c -1.247,0.322 -2.365,1.139 -3.527,1.742 0.344,1.785 0.624,3.375 0.924,4.945 2.603,0.731 5.075,0.215 7.505,-0.15 0.495,1.333 0.925,2.473 1.376,3.72 0.387,-0.236 0.602,-0.408 0.839,-0.538 1.139,-0.645 2.214,-1.354 3.396,-1.871 0.86,-0.386 1.85,-0.688 2.796,-0.71 1.677,-0.021 3.311,0 4.687,-1.161 0.409,-0.322 0.882,-0.559 1.526,-0.989 3.484,1.764 6.967,3.549 10.494,5.332 v -3.591 c 0.903,-0.322 1.849,-0.688 2.817,-0.967 0.3,-0.086 0.731,0 1.032,0.15 1.375,0.731 2.709,1.484 4.063,2.236 0.968,0.516 1.957,0.925 3.182,0.903 -0.107,-0.258 -0.15,-0.451 -0.236,-0.624 -0.731,-1.504 -1.441,-2.989 -0.903,-4.752 0.129,-0.495 0.215,-1.161 -0.022,-1.549 -0.688,-1.117 -1.375,-2.407 -2.386,-3.182 -1.376,-1.032 -2.989,-1.784 -4.602,-2.407 -1.827,-0.71 -3.483,-1.699 -5.16,-2.688 -1.828,-1.097 -3.677,-2.215 -5.569,-3.182 -2.128,-1.097 -4.344,-2 -6.214,-2.839 -1.161,-2.343 -2.15,-4.365 -3.139,-6.343 -0.558,-0.129 -0.946,-0.215 -1.526,-0.323 0.151,0.603 0.193,1.011 0.344,1.376 0.71,1.871 0.602,2 -1.226,2.903 -1.161,0.581 -2.322,0.817 -3.591,0.688 -0.495,-0.064 -0.989,-0.021 -1.505,-0.021 1.828,2.623 4.106,4.085 7.245,3.913 0.258,-0.021 0.538,0.258 0.839,0.408 -0.429,0.882 -0.817,1.635 -1.182,2.408 -1.204,0.193 -2.344,0.581 -3.441,0.474 -1.075,-0.086 -2.129,-0.689 -3.29,-1.097 -0.688,0.732 -1.354,1.463 -2.085,2.258 0.43,2.085 1.592,3.827 2.752,5.784 -1.118,-0.043 -2.042,-0.108 -2.945,-0.151 -1.097,-0.062 -2.258,-0.384 -3.268,-0.105 z"
   id="path830" />
	<path
   fill="#ffffff"
   d="m 1365.971,1535.629 c 0.107,-0.172 0.129,-0.517 0.021,-0.688 -0.472,-0.968 -0.989,-1.914 -1.526,-2.903 -0.838,0.172 -1.505,0.322 -2.171,0.451 -0.172,1.182 -0.344,2.257 -0.537,3.484 0.71,0.795 1.463,1.634 2.408,2.666 0.687,-1.139 1.268,-2.064 1.805,-3.01 z"
   id="path832" />
	<path
   fill="#ffffff"
   d="m 1356.274,1537.134 c 1.203,-1.484 2.128,-3.139 2.774,-4.966 0.408,-1.14 0.452,-2.086 -0.344,-3.097 -0.172,0.237 -0.365,0.431 -0.516,0.646 -1.139,1.742 -2.3,3.441 -3.419,5.182 -1.742,2.709 -3.441,5.419 -5.16,8.106 -0.172,0.279 -0.387,0.579 -0.667,0.688 -1.42,0.581 -2.817,1.311 -4.3,1.613 -1.764,0.387 -3.441,0.839 -5.074,1.613 -0.818,0.365 -1.442,0.882 -2,1.526 -0.387,0.452 -0.753,0.946 -1.182,1.506 0.236,0.667 0.495,1.375 0.752,2.128 0.861,-0.365 1.571,-0.731 2.344,-1.01 0.839,-0.323 1.44,-0.839 1.935,-1.571 0.581,-0.817 1.311,-1.527 2.043,-2.364 1.741,1.268 3.634,1.677 5.655,1.699 0.731,0.021 1.354,-0.129 1.957,-0.451 1.741,-0.947 3.505,-1.85 5.267,-2.753 0.624,0.71 1.161,1.333 1.699,1.935 -0.022,-0.452 -0.215,-0.795 -0.322,-1.182 -0.516,-1.592 -1.764,-2.688 -2.71,-3.999 -0.193,-0.28 -0.452,-0.71 -0.365,-0.947 0.515,-1.442 0.622,-3.033 1.633,-4.302 z"
   id="path834" />
	<path
   fill="#ffffff"
   d="m 1302.733,1515.869 c -1.289,0.086 -2.516,0.774 -3.763,1.204 0,0.129 -0.021,0.257 -0.021,0.408 0.538,0.473 0.989,1.139 1.613,1.375 1.506,0.56 3.074,1.033 4.666,1.333 2.215,0.452 4.494,0.194 6.58,-0.581 2.128,-0.774 4.107,-1.956 6.128,-2.988 0.279,-0.151 0.559,-0.474 0.688,-0.775 0.882,-2.214 1.742,-4.451 2.559,-6.622 -0.581,-0.882 -1.182,-1.528 -1.484,-2.301 -0.538,-1.376 -1.699,-1.247 -2.752,-1.461 -0.495,0.838 -1.011,1.547 -1.333,2.3 -0.344,0.774 -0.839,1.139 -1.678,1.161 -1.527,0.064 -2.774,0.645 -3.741,1.914 -0.516,0.709 -1.268,1.246 -1.806,1.956 -1.441,1.894 -3.247,2.884 -5.656,3.077 z"
   id="path836" />
	<path
   fill="#ffffff"
   d="m 1331.159,1495.764 v -3.418 c 2.193,-0.344 4.323,-0.172 6.429,0.064 v -2.15 c -1.246,-1.032 -3.203,-0.645 -3.698,-2.559 -2.15,1.613 -3.418,3.72 -4.365,6.085 -0.064,0.172 -0.064,0.451 0.044,0.581 0.407,0.538 0.881,1.032 1.332,1.527 0.086,-0.044 0.172,-0.087 0.258,-0.13 z"
   id="path838" />
	<path
   fill="#ffffff"
   d="m 1312.86,1387.135 c 0.108,0.903 0.215,1.806 0.344,2.838 -2.214,-0.214 -4.257,-0.408 -6.344,-0.602 -0.407,0.688 -0.709,1.376 -1.139,1.935 -0.495,0.688 -0.581,1.354 -0.236,2.064 1.053,2.086 0.172,3.935 -0.581,5.935 -1.397,0.236 -2.796,0.473 -3.999,0.667 -1.678,-1.57 -2.474,-3.225 -1.893,-5.354 0.301,-1.053 -0.365,-1.656 -1.204,-1.978 -1.289,-0.517 -2.085,-1.463 -2.688,-2.667 -0.602,-1.182 -1.354,-2.235 -2.623,-2.795 -1.44,-0.624 -2.429,-1.656 -3.139,-3.053 -0.344,-0.71 -0.86,-1.397 -1.44,-1.914 -0.71,-0.667 -1.549,-1.204 -2.387,-1.72 -2.171,-1.376 -4.558,-2.064 -7.009,-2.107 0.774,0.667 1.742,1.246 2.322,2.107 0.602,0.838 1.289,1.827 1.096,3.246 -2.214,-0.408 -4.3,-0.731 -6.343,-1.204 -0.624,-0.129 -1.226,-0.581 -1.764,-0.967 -0.602,-0.408 -1.118,-0.946 -1.634,-1.399 -0.538,0.151 -1.075,0.237 -1.549,0.453 -1.634,0.731 -3.117,0.021 -4.278,-0.882 -1.505,-1.139 -2.71,-2.667 -3.957,-4.107 -0.645,-0.774 -1.311,-1.57 -1.441,-2.731 -0.214,-1.849 -0.645,-3.677 -0.946,-5.526 -0.064,-0.408 0,-0.839 0,-1.463 1.656,0.732 3.268,1.032 4.451,2.279 1.033,1.075 2.215,1.763 3.807,1.721 0.881,-0.022 1.784,0.236 2.623,0.473 1.763,0.516 3.505,1.054 5.225,1.699 0.881,0.344 1.656,0.15 2.473,-0.107 1.096,-0.365 2.193,-0.796 3.332,-0.989 1.118,-0.172 2.322,-0.366 3.354,-0.086 2.796,0.731 5.548,1.57 8.063,3.031 1.397,0.818 2.774,1.635 3.742,3.032 1.075,1.506 2.386,2.86 3.591,4.3 0.731,-0.344 1.397,-0.645 2.236,-1.032 0.667,0.344 1.44,0.774 2.236,1.161 0.795,0.365 1.634,0.688 2.45,1.032 0.043,-0.108 0.086,-0.215 0.129,-0.322 -18.706,-16.406 -39.714,-28.921 -63.194,-37.542 -0.323,1.311 -0.624,2.473 -0.904,3.591 -1.01,0 -1.892,0.043 -2.795,0 -0.495,-0.043 -0.925,-0.172 -1.354,-0.603 -0.904,-0.924 -1.914,-1.763 -3.01,-2.407 -1.613,-0.968 -3.311,-1.742 -4.989,-2.538 -1.182,-0.559 -2.171,-1.268 -2.795,-2.43 -0.323,-0.56 -0.796,-0.882 -1.441,-1.032 -2.495,-0.581 -4.989,-1.226 -7.484,-1.807 -7.461,-1.72 -15.007,-2.945 -22.619,-3.698 -5.677,-0.537 -11.375,-0.86 -17.074,-0.989 -5.117,-0.108 -10.255,0.086 -15.374,0.365 -4.558,0.258 -9.095,0.731 -13.61,1.247 -6.645,0.774 -13.203,2.021 -19.696,3.548 -11.203,2.624 -22.083,6.192 -32.661,10.729 -6.817,2.903 -13.439,6.214 -19.89,9.891 -10.322,5.935 -20.084,12.686 -29.179,20.427 -1.225,1.054 -1.225,1.032 -0.86,2.688 -1.699,1.592 -4.085,2.301 -5.784,4.193 0.731,0.365 1.376,0.667 1.978,0.967 2.172,-0.946 4.15,-2.257 6.752,-1.634 -0.387,1.054 -0.925,2.064 -1.161,3.139 -0.236,1.096 -0.193,2.257 -0.279,3.441 -4.107,2.817 -8.515,4.902 -13.762,5.225 0.796,0.86 1.398,1.527 2.022,2.214 -1.011,1.29 -1.936,2.495 -2.903,3.677 -0.989,1.182 -2.086,2.3 -3.032,3.505 -0.71,0.925 -1.72,1.333 -2.709,1.807 -0.537,0.236 -1.097,0.451 -1.613,0.666 -0.172,2.538 -0.301,4.946 -0.474,7.462 -2.236,0.258 -4.473,0.258 -6.666,1.333 0.56,0.881 1.118,1.763 1.699,2.623 0.086,0.151 0.322,0.237 0.495,0.322 1.828,0.753 3.656,1.399 5.677,0.753 0.107,-0.043 0.236,-0.043 0.344,-0.064 0.967,-0.086 3.396,1.871 3.483,2.817 v 0.236 c -0.193,1.935 -0.365,3.87 -0.58,5.784 -0.065,0.495 0.042,0.86 0.516,0.946 1.354,0.258 2.774,0.603 4.085,0 0.989,-0.472 1.957,-0.408 2.967,-0.3 1.398,0.128 2.774,0.279 4.107,-0.537 1.311,-0.796 2.795,-0.989 4.321,-0.603 0.474,0.107 1.033,0.172 1.442,0 1.311,-0.538 2.688,-1.032 3.827,-1.828 2.581,-1.806 5.16,-3.548 8.106,-4.687 1.849,-0.71 3.096,-2.172 4.064,-3.699 1.247,-1.935 2.15,-4.107 2.516,-6.429 0.043,-0.301 0.129,-0.71 0.344,-0.861 1.01,-0.709 2.064,-1.354 3.182,-2.042 0.408,1.354 0.731,2.495 1.096,3.72 0.56,0 1.054,0.021 1.527,-0.022 1.011,-0.043 2.043,-0.257 3.032,-0.15 1.311,0.15 2.279,-0.215 3.096,-1.204 0.968,-1.161 2,-2.15 3.634,-2.452 0.839,-0.171 1.506,-0.279 2.3,0.151 1.119,0.602 2.258,1.268 3.656,1.053 0.538,-0.086 1.118,0 1.656,0.129 2.3,0.474 4.623,0.903 6.881,1.526 0.967,0.258 1.677,0.129 2.321,-0.516 1.29,-1.269 2.86,-2.086 4.495,-2.839 2.386,-1.096 4.902,-1.999 6.924,-3.763 0.15,-0.128 0.365,-0.172 0.645,-0.3 0.838,0.795 1.656,1.591 2.473,2.343 -0.258,0.558 -0.451,0.925 -0.581,1.29 -0.451,1.268 -1.032,2.429 -2.085,3.375 -0.925,0.817 -1.807,1.785 -2.431,2.839 -0.946,1.591 -2.365,2.407 -3.999,3.01 -0.558,0.215 -1.032,0.15 -1.592,-0.129 -1.548,-0.796 -3.096,-1.656 -4.88,-1.828 -0.56,-0.064 -1.183,-0.451 -1.635,-0.301 -1.333,0.495 -2.71,1.011 -3.827,1.85 -1.355,0.989 -2.474,2.3 -3.699,3.483 -0.56,0.56 -1.118,1.097 -1.785,1.742 -1.677,-1.913 -3.225,-3.677 -4.795,-5.483 -0.516,0.408 -0.968,0.731 -1.484,1.118 0.344,0.774 0.71,1.441 0.946,2.15 0.237,0.688 0.538,1.418 0.452,2.085 -0.236,1.699 -0.495,3.42 -1.075,4.989 -0.667,1.849 0.043,3.203 0.903,4.773 1.183,-0.538 2.322,-1.053 3.42,-1.57 v -3.763 c 1.935,-1.01 3.892,-1.375 5.891,-1.139 0.903,-0.903 1.764,-1.721 2.559,-2.581 0.194,-0.215 0.28,-0.581 0.322,-0.881 0.151,-0.99 0.258,-1.979 0.387,-3.011 2.495,0.129 4.881,0.301 7.311,0.861 -0.343,0.924 -0.58,1.655 -0.881,2.364 -0.451,1.011 -0.387,1.936 0.064,2.925 0.279,0.624 0.322,1.332 0.474,2.021 -0.839,0.688 -1.592,1.375 -2.408,1.956 -0.495,0.323 -1.097,0.495 -1.656,0.732 -1.333,0.516 -2.838,0.624 -3.999,1.613 -0.753,0.645 -1.613,1.139 -2.409,1.677 -0.817,0.56 -1.635,1.118 -2.516,1.72 0.451,0.624 0.753,1.075 1.075,1.528 0.774,-0.344 1.505,-0.689 2.236,-1.011 0.753,0.968 1.461,1.892 2.236,2.903 0.429,-0.301 0.838,-0.517 1.118,-0.839 0.946,-1.053 2.021,-2.043 2.73,-3.246 0.968,-1.57 2.452,-2.129 3.935,-2.753 1.226,0.839 2.387,1.635 3.484,2.387 0.989,-1.678 1.871,-3.204 2.795,-4.731 0.624,-1.054 1.376,-2.021 1.957,-3.096 0.731,-1.376 1.678,-2.559 2.989,-3.441 0.882,-0.603 1.527,-1.42 2,-2.386 0.71,-1.355 1.484,-2.71 2.257,-4.021 0.322,-0.56 0.688,-1.161 1.161,-1.57 1.742,-1.463 3.527,-2.881 5.31,-4.279 0.344,-0.257 0.775,-0.452 1.183,-0.516 1.57,-0.236 3.161,-0.387 4.278,1.118 0.108,0.129 0.258,0.193 0.387,0.3 0.431,0.474 0.925,0.56 1.549,0.41 0.903,-0.215 1.827,-0.41 2.752,-0.431 0.968,-0.021 1.978,-0.365 3.096,0.344 -0.882,1.161 -1.57,2.365 -2.516,3.332 -1.075,1.097 -2.386,1.978 -3.57,2.967 -1.203,0.968 -2.386,1.957 -3.203,3.311 -0.495,0.839 -1.075,1.656 -1.742,2.365 -1.42,1.484 -1.892,3.441 -2.731,5.182 0.731,0.645 1.376,1.182 2.086,1.785 0.516,-0.323 1.031,-0.581 1.44,-0.968 0.817,-0.839 1.785,-1.032 2.881,-0.817 0.989,0.215 1.828,-0.065 2.559,-0.753 0.796,-0.71 1.677,-1.118 2.796,-0.903 0.386,0.086 0.817,-0.108 1.44,-0.215 -2.236,-1.871 -2.796,-4.214 -2.839,-6.838 0.516,-0.214 1.032,-0.451 1.57,-0.602 0.882,-0.279 1.656,-0.688 2.172,-1.463 0.796,-1.139 1.806,-1.978 3.118,-2.409 1.203,-0.408 2.128,-1.16 2.773,-2.257 0.215,-0.365 0.516,-0.688 0.904,-1.204 0.838,0.946 1.677,1.678 2.214,2.602 0.56,0.925 0.817,2 1.247,3.161 0.472,-0.796 0.881,-1.354 1.139,-1.978 0.301,-0.689 0.516,-1.44 0.646,-2.193 0.236,-1.376 0.171,-2.817 0.967,-4.085 0.301,-0.516 0.603,-1.054 0.817,-1.635 0.237,-0.624 0.689,-0.946 1.269,-1.204 1.763,-0.753 3.527,-1.505 5.225,-2.343 1.225,-0.581 2.473,-1.204 3.439,-2.236 -0.15,-1.054 -0.3,-2.043 -0.451,-3.161 1.011,-0.473 2.021,-0.86 2.967,-1.375 1.075,-0.581 2.086,0.236 3.183,0.064 -0.43,-0.558 -0.775,-1.118 -1.205,-1.591 -0.774,-0.839 -0.924,-1.678 -0.322,-2.645 0.194,-0.323 0.258,-0.71 0.474,-0.989 0.279,-0.387 0.581,-0.818 0.989,-1.011 1.57,-0.817 3.16,-1.549 4.967,-0.688 0.215,0.086 0.495,0.064 0.688,0.171 0.495,0.237 1.054,0.474 1.441,0.839 0.603,0.603 1.14,1.29 1.592,2 0.215,0.343 0.279,0.86 0.215,1.268 -0.108,0.839 -0.366,1.656 -0.581,2.538 -1.226,-0.086 -2.429,-0.151 -3.763,-0.237 -0.796,0.753 -1.678,1.592 -2.538,2.409 0.108,2.107 -0.043,4.128 -0.774,6.064 -0.193,0.516 -0.172,1.117 -0.193,1.677 -0.065,1.505 -0.43,2.752 -1.764,3.763 -0.946,0.71 -1.763,1.161 -2.946,0.925 -1.999,-0.409 -3.891,0.021 -5.741,0.903 0.451,1.182 1.14,2.279 1.268,3.418 0.13,1.161 -0.279,2.386 -0.452,3.527 -0.236,0.193 -0.365,0.343 -0.558,0.429 -2.688,1.312 -5.376,2.646 -8.106,3.914 -0.667,0.322 -1.419,0.602 -2.15,0.667 -0.946,0.086 -1.914,-0.086 -2.967,-0.151 -0.15,-0.451 -0.344,-0.86 -0.365,-1.29 -0.065,-0.731 0.085,-1.462 0,-2.192 -0.086,-0.796 0.365,-1.678 -0.237,-2.365 -2.45,0.537 -4.666,1.418 -6.515,3.053 0.172,0.258 0.258,0.429 0.408,0.581 1.354,1.376 2.043,2.967 1.526,4.945 -0.172,0.689 -0.043,1.376 0.387,1.978 0.322,0.43 0.602,0.882 0.882,1.312 0.645,1.032 1.16,2.107 1.268,3.548 -0.517,-0.129 -0.903,-0.193 -1.268,-0.279 -0.99,-0.237 -1.957,-0.516 -2.968,-0.667 -0.795,-0.129 -1.613,-0.215 -2.386,-0.086 -0.667,0.086 -1.333,0.43 -1.892,0.796 -1.247,0.838 -2.645,0.731 -4,0.752 -2.344,0.086 -4.623,1.333 -5.246,3.527 0.925,0.236 1.893,0.365 2.753,0.732 0.924,0.386 1.763,0.967 2.731,1.505 0.752,-0.731 1.462,-1.419 2.278,-2.236 0.237,0.474 0.453,0.817 0.603,1.161 0.559,1.29 1.29,2.386 2.538,3.161 0.838,0.538 1.548,1.289 2.257,1.999 0.387,0.365 0.688,0.839 1.183,1.44 0.042,-1.01 0.064,-1.72 0.107,-2.473 0.236,-0.086 0.431,-0.15 0.624,-0.193 1.527,-0.517 3.053,-1.032 4.58,-1.549 0.946,-0.322 1.871,-0.752 2.86,-0.946 0.796,-0.15 1.656,-0.043 2.645,-0.043 0.452,0.603 0.925,1.376 1.505,2.043 0.56,0.624 0.646,1.268 0.387,2.021 -0.258,0.817 -0.474,1.635 -0.753,2.538 1.032,0.408 2,0.774 2.967,1.161 -0.967,2.752 -2.602,4.644 -5.762,5.009 -0.172,-0.15 -0.517,-0.429 -0.796,-0.774 -1.182,-1.354 -2.473,-2.429 -4.386,-2.537 -0.472,-0.022 -0.989,-0.366 -1.375,-0.237 -0.989,0.301 -1.936,0.796 -3.032,1.268 1.591,1.399 3.57,0.431 5.01,1.204 0.214,0.56 0.408,0.99 0.581,1.442 0.343,0.946 -0.56,3.246 -1.463,3.698 -0.065,0.043 -0.15,0.086 -0.215,0.086 -1.397,0.236 -2.774,0.645 -4.192,0 -1.635,-0.774 -3.376,-1.118 -5.182,-1.118 -0.344,0 -0.796,-0.043 -1.032,-0.258 -0.71,-0.645 -1.333,-1.397 -2.15,-2.257 1.161,-0.796 2.214,-1.505 3.268,-2.236 -0.129,-0.474 -0.237,-0.839 -0.387,-1.354 -1.032,0.753 -1.978,1.44 -2.945,2.128 -1.269,-0.365 -2.495,-0.71 -3.763,-1.075 -0.28,0.237 -0.516,0.452 -0.753,0.667 -1.204,1.118 -2.021,2.495 -2.817,3.913 -0.43,0.775 -0.581,1.506 -0.408,2.322 0.064,0.323 0.15,0.646 0.171,0.968 0.366,3.375 2.602,5.44 5.075,7.354 1.225,-0.558 2.364,-1.075 3.505,-1.57 0.15,-1.139 0.301,-2.214 0.472,-3.418 1.161,-0.043 2.236,-0.108 3.311,-0.172 0.732,0.774 1.442,1.505 2.236,2.365 -0.602,1.289 -1.203,2.559 -1.827,3.87 -1.333,-0.064 -2.624,-0.129 -3.871,-0.193 -0.257,0.559 -0.538,0.989 -0.645,1.44 -0.301,1.118 -1.183,1.527 -2.15,1.699 -1.527,0.279 -2.817,0.924 -3.913,2.021 -0.775,0.796 -1.657,1.225 -2.839,0.968 -0.774,-0.151 -1.656,-0.301 -2.386,-0.065 -1.011,0.301 -1.935,0.968 -3.053,1.57 1.418,1.592 2.731,3.053 4.085,4.559 1.139,-1.849 1.161,-1.828 2.86,-2.924 1.354,-0.882 2.688,-1.807 4.063,-2.667 0.323,-0.193 0.775,-0.387 1.118,-0.301 0.796,0.215 1.549,0.603 2.279,0.882 0.022,0.236 0.043,0.322 0.022,0.387 -1.183,3.053 -2.989,5.569 -6.257,6.644 -0.946,0.322 -1.613,0.839 -1.978,1.785 -0.387,0.989 -0.774,1.957 -1.247,2.903 -0.495,0.967 -0.344,1.763 0.279,2.602 0.624,0.817 1.075,1.742 0.495,2.795 -0.86,1.613 -0.645,2.925 1.032,3.849 0.065,0.043 0.172,0.043 0.301,0.065 0.129,-0.215 0.279,-0.452 0.387,-0.71 0.924,-1.892 1.828,-3.806 2.752,-5.699 0.151,-0.3 0.451,-0.731 0.71,-0.731 0.968,-0.086 1.957,0 3.075,0.022 -0.086,1.268 -0.172,2.344 -0.28,3.612 0.603,-0.15 1.097,-0.3 1.592,-0.386 0.581,-0.129 1.204,-0.301 1.763,-0.237 1.075,0.151 2.15,0.408 3.204,0.71 2.279,0.624 4.537,1.097 6.923,0.387 0.946,-0.301 2.538,0.71 2.753,1.742 0.301,1.57 1.075,3.225 -0.301,4.752 -0.301,0.343 -0.386,0.881 -0.602,1.354 0.817,0.968 1.613,1.914 2.343,2.817 1.397,-0.603 2.602,-1.225 3.87,-1.634 1.549,-0.517 2.86,-1.29 3.892,-2.581 0.237,-0.301 0.731,-0.56 1.118,-0.56 0.71,-0.043 1.484,0.022 2.172,0.215 2.15,0.667 4.364,1.29 6.429,2.193 1.785,0.774 3.613,0.732 5.16,0.882 1.183,-1.14 2.172,-2.086 3.161,-3.053 0.731,-0.732 1.526,-1.442 2.15,-2.279 0.86,-1.097 1.785,-1.978 3.268,-2 0.172,0 0.322,-0.043 0.495,-0.086 0.753,-0.236 1.333,0.043 1.892,0.538 0.603,0.537 1.204,1.075 1.871,1.549 1.204,0.882 2.429,1.72 3.806,2.688 v -2.452 c 1.397,-0.774 2.752,-1.268 4.321,-0.602 1.033,0.451 2.129,0.645 3.311,0.408 1.097,-0.194 2.279,-0.086 3.397,-0.065 1.182,0.022 2.344,0.151 3.505,0.129 1.011,-0.021 2,-0.15 3.161,-0.258 0.236,1.376 0.429,2.624 0.667,3.957 -1.29,0.538 -2.452,1.01 -3.656,1.527 0.043,0.301 0.108,0.558 0.086,0.839 -0.172,2.623 -0.279,5.246 -0.538,7.848 -0.193,1.763 0.237,3.225 1.613,4.623 v -3.677 c 0.882,-0.516 1.892,-0.817 2.387,-1.484 0.538,-0.71 0.559,-1.807 0.795,-2.71 -1.032,-0.429 -2.15,0 -3.031,-0.796 0.881,-0.817 1.699,-1.613 2.58,-2.321 0.279,-0.215 0.774,-0.322 1.118,-0.28 2.086,0.344 4.107,0.043 6.171,-0.236 1.785,-0.258 3.612,-0.301 5.376,0.43 1.849,0.753 3.741,1.311 5.612,1.999 0.408,0.151 0.839,0.366 1.161,0.646 1.463,1.268 2.946,2.559 4.343,3.892 0.753,0.731 1.397,1.57 2.021,2.407 0.172,0.237 0.258,0.753 0.129,0.989 -0.538,1.011 -1.118,2 -1.828,2.882 -0.301,0.365 -0.946,0.538 -1.463,0.645 -0.602,0.129 -1.246,0.086 -2.085,0.108 0.301,1.053 0.43,1.935 0.796,2.709 0.386,0.796 1.075,1.441 1.527,2.193 0.989,1.656 2.838,1.721 4.386,2.43 0.236,1.183 0.451,2.344 0.667,3.548 0.946,0.258 1.87,0.537 2.709,0.775 1.849,-1.785 1.763,-4.021 1.914,-6.15 0.688,-0.602 1.354,-1.16 2.107,-1.827 -0.925,0.086 -1.677,0.15 -2.365,0.214 -0.581,-2.257 -1.139,-4.3 -1.72,-6.536 1.44,0.021 2.731,-0.215 3.935,0.408 1.096,0.559 2.171,1.182 3.267,1.806 0.065,-1.182 0.108,-2.279 0.194,-3.591 1.978,0.667 3.827,1.268 5.655,1.871 1.44,0.473 2.924,0.624 4.43,0.731 0.386,0.021 0.989,0.258 1.075,0.537 0.408,1.182 0.667,2.386 0.989,3.613 -0.495,0.343 -0.817,0.645 -1.225,0.817 -0.387,0.15 -0.818,0.15 -1.463,0.236 0.753,1.42 1.397,2.71 2.129,3.935 0.602,0.968 1.332,1.828 1.978,2.774 0.386,0.558 0.688,1.182 1.118,1.699 0.236,0.279 0.645,0.538 0.989,0.581 0.989,0.107 1.999,0.129 3.139,0.172 -0.301,-2.538 0.129,-4.838 2.15,-6.666 1.032,0.495 2,0.946 3.031,1.44 -0.365,0.989 -0.645,1.828 -0.989,2.645 -0.3,0.688 -0.257,1.311 0.043,2 0.537,1.118 1.14,2.257 1.484,3.44 0.56,1.957 1.699,3.225 3.592,3.914 0.516,0.172 0.989,0.581 1.332,0.989 0.646,0.796 1.204,1.634 1.785,2.473 0.129,0.193 0.301,0.408 0.344,0.646 0.322,2.278 0.645,4.58 0.946,6.859 0.022,0.214 -0.107,0.516 -0.258,0.645 -0.967,0.817 -1.956,1.57 -2.752,2.214 -2.279,-0.279 -4.344,-0.516 -6.344,-0.752 -0.817,0.602 -1.57,1.161 -2.322,1.72 0.022,0.474 0.043,0.882 0.108,1.29 0.301,1.763 0.559,3.527 0.946,5.289 0.408,1.742 -0.796,2.709 -1.592,3.999 -1.117,-0.602 -2.171,-1.053 -3.117,-1.699 -0.903,-0.624 -1.678,-1.418 -2.516,-2.171 -0.56,1.547 -0.344,2.817 0.473,4.063 0.688,1.054 0.537,2.15 -0.086,3.225 -0.236,0.387 -0.408,0.839 -0.709,1.442 1.053,0.495 1.978,1.161 2.945,1.29 1.333,0.193 2.731,0.021 4.085,-0.044 0.903,-0.021 1.785,-0.15 2.667,-0.15 0.279,0 0.624,0.15 0.86,0.344 1.29,0.989 2.516,2.042 3.785,3.075 0.279,0.236 0.559,0.516 0.946,0.86 -1.549,1.548 -2.774,3.117 -2.215,5.505 2.172,-0.667 4.323,-1.463 6.795,-1.484 -0.431,2.15 -2.495,2.624 -3.289,3.742 -0.215,1.527 -0.344,2.774 -0.56,3.978 -0.086,0.602 -0.344,1.161 -0.516,1.763 -0.151,0.538 -0.451,0.925 -0.968,1.161 -1.226,0.559 -2.473,1.054 -3.613,1.742 -1.032,0.624 -1.978,0.537 -2.989,0.064 -1.01,-0.472 -2.042,-0.774 -3.181,-0.624 -1.635,0.194 -3.204,-0.086 -4.774,-0.602 -0.624,-0.215 -1.354,-0.236 -2.021,-0.129 -1.764,0.236 -3.527,0.603 -5.289,0.882 -1.463,0.215 -2.71,-0.193 -3.677,-1.354 -0.603,-0.71 -1.29,-1.355 -1.828,-2.108 -0.581,-0.817 -1.054,-1.698 -0.946,-2.859 1.225,-0.215 2.364,-0.451 3.634,-0.689 0.215,-0.86 0.429,-1.763 0.667,-2.688 -0.946,-0.817 -1.871,-1.613 -2.839,-2.45 -0.924,1.484 -1.741,2.817 -2.559,4.192 -0.279,-0.129 -0.495,-0.172 -0.624,-0.322 -0.838,-0.86 -1.72,-1.677 -1.784,-3.053 -0.022,-0.839 -0.258,-1.656 -0.387,-2.495 -1.032,-0.581 -2.021,-1.139 -3.139,-1.763 -0.194,1.118 -0.365,2.064 -0.537,3.032 -1.807,-0.237 -2.129,-0.56 -2.043,-2.043 0.108,-1.635 -0.064,-3.182 -0.946,-4.58 -0.15,-0.215 -0.15,-0.495 -0.279,-1.011 0.645,0.344 1.053,0.581 1.484,0.753 0.408,0.15 0.839,0.322 1.268,0.322 0.925,-0.021 1.849,-0.172 2.753,-0.215 0.279,-0.021 0.602,0.022 0.817,0.151 0.817,0.451 1.635,0.924 2.408,1.44 1.139,0.753 2.128,0.624 3.096,-0.474 -0.624,-2.042 -1.764,-3.806 -3.204,-5.353 -0.343,-0.387 -0.924,-0.71 -1.44,-0.775 -1.634,-0.257 -3.289,-0.472 -4.945,-0.537 -0.946,-0.042 -1.656,-0.365 -2.15,-1.161 -0.753,-1.246 -1.828,-1.892 -3.29,-1.978 -0.516,-0.043 -1.053,-0.128 -1.354,-0.774 0.086,-0.645 0.301,-1.376 0.301,-2.086 0.021,-1.075 0.538,-1.763 1.311,-2.473 1.247,-1.161 2.452,-2.257 4.344,-1.913 0.56,0.085 1.053,-0.194 1.225,-0.796 0.258,-0.839 0.496,-1.699 0.775,-2.731 -0.646,0 -1.161,0 -1.656,-0.022 -1.14,-0.043 -2.279,-0.064 -3.397,-0.214 -0.86,-0.129 -1.075,-0.474 -1.011,-1.355 0.065,-0.752 0.194,-1.505 0.301,-2.407 1.311,0.365 2.495,0.709 3.634,1.032 0.517,-0.796 0.925,-1.441 1.397,-2.193 0.387,0.236 0.753,0.408 1.054,0.645 1.204,1.032 2.624,1.656 4.128,2.064 1.935,0.537 2.796,2.15 3.656,3.656 0.753,1.311 1.096,2.86 1.634,4.3 0.581,1.591 1.333,3.139 1.505,4.859 0.086,0.839 0.15,1.57 -0.28,2.365 -0.408,0.817 -0.624,1.742 -0.924,2.624 0.386,0.408 0.71,0.774 1.032,1.118 0.839,0.881 1.742,1.72 2.494,2.645 0.775,0.946 1.442,1.956 2.538,2.602 0.688,0.408 1.269,0.989 1.893,1.526 0.171,0.15 0.386,0.343 0.429,0.559 0.258,1.506 0.753,2.989 0.344,4.581 -0.474,1.741 -0.839,3.526 -1.29,5.483 0.882,-0.56 1.634,-1.011 1.999,-1.871 0.624,-1.526 1.247,-3.074 1.85,-4.623 0.3,-0.817 0.559,-1.656 0.817,-2.408 h 3.032 c 0.172,-0.817 0.322,-1.591 0.495,-2.43 -0.474,-0.108 -0.818,-0.236 -1.183,-0.236 -1.72,-0.043 -3.462,-0.022 -5.203,-0.086 -0.365,-0.022 -0.903,-0.129 -1.075,-0.387 -0.924,-1.419 -1.999,-2.752 -2.107,-4.58 -0.064,-1.204 -0.408,-2.386 -0.989,-3.484 -0.645,-1.182 -1.075,-2.43 -1.29,-3.784 -0.386,-2.71 -1.289,-5.246 -2.902,-7.505 -0.044,-0.043 0,-0.15 0,-0.429 2.042,-0.904 4.214,-1.828 5.612,-3.978 -0.925,-1.075 -1.57,-2.365 -3.204,-2.753 -1.29,-0.279 -2.536,-0.774 -3.289,-2.064 -0.279,-0.473 -0.753,-0.839 -1.118,-1.247 -1.161,0.495 -2.279,0.989 -3.289,1.442 -2.022,-2.129 -2.495,-4.71 -2.753,-7.419 0.645,-0.56 1.311,-1.161 2.193,-1.935 -1.183,-0.28 -2.128,-0.56 -3.096,-0.732 -0.237,-0.043 -0.538,0.151 -0.775,0.323 -0.365,0.257 -0.709,0.538 -1.031,0.838 -0.947,0.903 -2.022,1.419 -3.333,1.613 -0.989,0.129 -1.978,0.474 -2.881,0.903 -1.397,0.689 -2.817,0.925 -4.344,0.646 -0.624,-0.108 -1.161,-0.279 -1.549,-0.817 -0.516,-0.667 -1.075,-1.269 -1.699,-2 -0.688,0.968 -1.29,1.828 -2.064,2.946 0.344,0.214 0.689,0.386 0.968,0.624 1.096,0.946 1.978,2.021 1.935,3.591 -0.021,0.086 0,0.172 0.043,0.236 0.387,1.097 0.064,1.914 -0.753,2.731 -1.72,1.699 -1.677,1.763 -1.268,4.171 0.043,0.279 0.172,0.56 0.15,0.839 -0.021,0.301 -0.086,0.688 -0.279,0.882 -0.56,0.516 -1.182,0.924 -1.935,1.505 -0.344,-1.247 -0.56,-2.365 -0.989,-3.397 -0.452,-1.053 -1.14,-1.999 -1.764,-3.074 -0.579,1.354 -1.032,2.58 -1.634,3.698 -0.558,1.075 -1.14,2.236 -2,3.01 -2.537,2.322 -2.58,2.258 -5.999,2.86 -0.559,0.086 -1.118,0.043 -1.698,0.108 -0.538,0.064 -1.097,0.15 -1.678,0.236 -0.129,0.667 -0.236,1.204 -0.344,1.742 0.71,0.343 1.312,0.645 2.043,1.01 -0.451,0.904 -0.925,1.656 -1.204,2.495 -0.279,0.796 -0.839,1.032 -1.57,1.118 -0.688,0.107 -1.397,0.236 -2.215,0.387 0.387,0.817 0.775,1.44 0.99,2.128 0.171,0.538 0.365,1.247 0.15,1.699 -0.839,1.656 -1.785,3.268 -2.795,4.838 -0.237,0.365 -0.839,0.603 -1.312,0.689 -0.946,0.171 -1.935,0.128 -2.881,0.322 -2.043,0.429 -2.645,1.161 -2.753,3.074 1.764,-0.043 3.484,-0.795 5.42,-0.322 -0.323,0.946 -0.71,1.849 -0.925,2.774 -0.15,0.558 -0.215,1.225 -0.064,1.763 0.494,1.85 1.569,3.441 2.516,5.096 0.645,1.097 1.139,2.3 1.741,3.591 -1.182,0.301 -2.15,0.022 -3.181,-0.15 -0.474,-0.925 -0.968,-1.849 -1.463,-2.795 -2.602,-0.387 -5.074,-0.215 -7.462,1.375 0.258,1.742 0.495,3.505 0.753,5.246 0.15,0.968 -0.429,1.528 -1.075,2.452 -0.667,-1.441 -1.849,-2.214 -2.107,-3.634 -0.301,-1.72 -0.558,-3.441 -0.903,-5.16 -0.279,-1.354 -0.451,-2.645 0.667,-3.763 0.301,-0.301 0.408,-0.796 0.731,-1.441 -0.451,0.365 -0.731,0.538 -0.967,0.752 -0.904,0.861 -1.893,1.247 -3.183,0.968 -0.731,-0.15 -1.527,-0.021 -2.364,-0.021 -0.56,0.817 -1.14,1.655 -1.764,2.536 0.925,2.172 1.85,4.323 2.817,6.58 1.097,0.495 2.322,1.032 3.57,1.57 0.215,1.118 0.429,2.215 0.602,3.29 0.022,0.214 -0.021,0.495 -0.129,0.688 -0.452,0.946 -0.924,1.892 -1.441,2.946 -1.075,-0.344 -2.107,-0.667 -3.289,-1.032 0.472,-1.097 0.882,-2.064 1.247,-2.946 -0.151,-0.172 -0.194,-0.236 -0.258,-0.279 -0.172,-0.108 -0.365,-0.172 -0.538,-0.258 -1.333,-0.71 -2.645,-1.397 -3.118,-3.032 -0.451,-1.548 -1.461,-2.795 -2.429,-4.042 -0.15,-0.193 -0.344,-0.344 -0.517,-0.517 0.409,1.893 -0.322,3.527 -0.645,5.161 -1.075,0.365 -2.064,0.71 -3.139,1.075 0.172,1.032 0.322,1.978 0.472,2.945 0.28,1.635 1.333,2.645 2.946,3.096 0.775,0.215 1.742,0.022 2.322,0.796 -0.645,1.118 -1.268,2.193 -1.978,3.441 2.129,0.43 4.064,0.796 6.063,1.204 0.151,0.731 0.258,1.419 0.408,2.085 0.151,0.667 0.151,1.485 0.56,1.957 0.817,0.925 1.806,1.721 2.795,2.495 0.667,0.516 1.699,0.731 2.107,1.376 0.861,1.332 1.592,2.838 1.033,4.58 -0.151,0.495 -0.28,1.01 -0.323,1.527 -0.021,0.344 0.065,0.731 0.237,1.011 0.602,0.924 1.225,1.849 1.913,2.688 0.603,0.731 1.333,1.354 2,2.042 0.881,-0.882 1.613,-1.656 2.386,-2.343 0.344,-0.301 0.817,-0.56 1.247,-0.624 0.667,-0.108 1.354,-0.043 2.236,-0.043 -0.043,0.839 0.043,1.591 -0.129,2.257 -0.279,1.097 0.064,2.021 0.516,2.925 1.592,3.225 3.269,6.429 4.86,9.654 0.258,0.495 0.387,1.204 0.258,1.742 -0.301,1.204 -0.774,2.365 -1.225,3.548 -0.323,0.796 -0.775,1.57 -1.14,2.322 0.989,0.989 2.043,0.882 3.16,0.667 2.022,-0.431 4.021,-0.344 5.999,0.193 0.667,0.193 1.312,0.431 1.936,0.71 0.602,0.279 1.096,0.215 1.591,-0.215 0.301,-0.257 0.603,-0.537 0.946,-0.753 0.732,-0.495 1.441,-1.225 2.258,-1.354 1.87,-0.279 3.591,-0.924 5.267,-1.763 0.431,-0.215 0.925,-0.344 1.398,-0.365 1.935,-0.108 3.375,-1.011 4.472,-2.731 -1.72,-0.022 -3.203,-0.408 -4.171,-1.871 -0.322,-0.495 -0.882,-1.054 -0.882,-1.549 0.044,-1.16 0.366,-2.3 0.603,-3.462 0,-0.086 0.15,-0.193 0.258,-0.236 1.01,-0.452 2.042,-0.882 3.16,-1.376 0.258,1.333 0.474,2.495 0.71,3.699 0.603,0.171 1.182,0.343 1.871,0.537 0.129,-1.333 0.258,-2.538 0.386,-3.742 0.668,-0.71 1.269,-1.463 2,-2.107 0.474,-0.43 0.56,-0.86 0.474,-1.419 -0.258,-1.484 -0.474,-2.967 -0.775,-4.451 -0.472,-2.322 -0.279,-4.58 0.56,-6.773 0.322,-0.839 0.71,-1.678 0.882,-2.538 0.386,-1.914 0.753,-3.784 1.784,-5.505 0.882,-1.461 1.419,-3.117 2.387,-4.515 1.225,-1.828 2.774,-3.377 4.752,-4.43 0.753,-0.408 1.462,-0.603 2.322,-0.495 1.548,0.193 3.117,0.3 4.687,0.365 0.882,0.021 1.721,-0.022 2.602,-0.408 1.011,-0.43 1.978,-1.097 3.225,-0.882 0.947,0.15 1.914,0.172 2.946,0.236 0.731,-0.881 1.44,-1.785 2.215,-2.688 0.3,-0.365 0.624,-0.774 1.032,-0.989 2.709,-1.441 2.731,-1.42 5.741,-0.452 0.107,0.022 0.236,0.043 0.408,0.065 0.903,-0.646 1.806,-1.29 2.903,-2.043 0.538,0.968 1.032,1.871 1.57,2.795 1.268,-0.386 2.495,-0.795 3.72,-1.182 1.806,-0.559 3.441,-1.397 4.881,-2.624 1.182,-0.989 2.58,-1.418 4.085,-1.999 0.215,1.204 0.387,2.279 0.602,3.441 -1.117,0.731 -2.171,1.461 -3.203,2.128 -0.108,1.139 -0.215,2.193 -0.344,3.375 0.408,0.065 0.774,0.194 1.161,0.194 1.376,0.021 2.774,-0.065 3.849,1.075 0.408,0.451 0.946,0.386 1.463,0.215 0.924,-0.323 1.849,-0.624 2.902,-0.989 0.968,0.86 1.957,1.741 2.882,2.58 -0.322,1.656 -1.14,2.838 -2.365,3.677 0.193,1.054 0.365,2.021 0.537,2.967 0.086,0.517 0.086,0.968 -0.365,1.333 -0.537,0.43 -1.032,0.925 -1.549,1.376 -0.602,0.537 -1.225,0.71 -1.999,0.365 -0.796,-0.365 -1.656,-0.602 -2.559,-0.903 -0.56,1.161 -0.989,2.193 -1.506,3.203 -0.86,1.635 -1.935,3.075 -3.57,4.043 -0.429,0.257 -0.882,0.645 -1.096,1.075 -0.387,0.838 -0.624,1.741 -0.968,2.709 0.946,0.065 1.764,0.129 2.731,0.215 -0.559,1.57 -0.989,2.989 -2.43,3.784 -0.646,0.366 -1.29,0.71 -1.871,1.14 -0.925,0.645 -1.785,1.354 -2.666,2.042 0.042,0.086 0.064,0.172 0.107,0.258 1.182,0.065 2.408,0.301 3.57,0.129 2.537,-0.387 3.419,-1.011 5.01,-3.075 0.451,-0.602 0.924,-0.924 1.699,-0.989 1.741,-0.128 3.31,-0.624 4.558,-1.978 0.624,-0.688 1.463,-1.204 2.193,-1.785 1.182,-0.967 2.322,-1.935 3.053,-3.398 0.56,-1.139 1.354,-2.214 2.129,-3.246 0.258,-0.365 0.731,-0.624 1.161,-0.753 0.796,-0.215 1.613,-0.301 2.409,-0.386 0.386,-0.022 0.838,0.021 1.182,0.171 0.946,0.474 1.828,1.011 2.752,1.526 0.258,1.247 0.517,2.474 0.753,3.699 1.032,0.193 1.935,0.344 2.774,0.495 2,-1.527 3.742,-3.139 4.688,-5.44 0.15,-0.344 0.495,-0.667 0.839,-0.839 1.548,-0.774 3.117,-1.592 4.902,-1.742 0.645,-0.043 1.268,-0.215 2.021,-0.344 1.14,-2.257 2.645,-4.343 3.591,-6.794 -0.667,-0.56 -1.247,-1.075 -1.871,-1.613 -0.3,0.258 -0.645,0.473 -0.924,0.752 -1.354,1.355 -2.71,2.688 -4.042,4.064 -1.033,1.075 -2.408,1.226 -3.742,1.527 -0.065,0.022 -0.172,-0.107 -0.344,-0.215 0.279,-0.795 0.775,-1.613 0.753,-2.386 -0.043,-0.817 -0.581,-1.613 -0.967,-2.516 -0.775,0.71 -1.419,1.247 -2.043,1.828 -2.129,1.978 -3.784,4.516 -6.773,5.591 -0.753,-0.151 -1.613,-0.344 -2.495,-0.517 -1.075,-0.236 -1.247,-0.451 -1.225,-1.591 0.021,-1.57 0.193,-3.139 0.472,-4.688 0.258,-1.397 0.968,-2.236 2.15,-2.881 1.29,-0.732 2.279,-1.807 2.925,-3.182 0.624,-1.312 1.354,-2.452 2.967,-2.753 0.495,-0.107 0.924,-0.472 1.419,-0.731 0,-3.785 -1.29,-7.483 -0.689,-11.332 -0.472,-0.086 -0.774,-0.129 -1.096,-0.193 -1.14,-0.237 -2.388,-0.28 -3.42,-0.775 -1.763,-0.838 -3.289,-0.581 -4.924,0.301 -1.418,0.774 -2.924,1.333 -4.451,2 -0.193,-0.387 -0.322,-0.689 -0.495,-0.968 -0.56,-0.989 -0.624,-1.935 -0.064,-2.989 0.322,-0.581 0.452,-1.268 0.709,-2.042 -1.57,-0.129 -3.01,-0.517 -4.537,0.236 -1.763,0.903 -3.634,1.549 -5.462,2.3 -1.204,-0.817 -2.322,-1.57 -3.397,-2.343 -0.236,-0.193 -0.408,-0.495 -0.559,-0.774 -0.86,-1.527 -1.505,-3.139 -1.635,-4.924 -0.107,-1.311 -0.667,-2.386 -1.591,-3.332 -0.474,-0.474 -1.054,-1.033 -1.204,-1.657 -0.365,-1.569 -0.817,-3.203 -0.731,-4.794 0.15,-3.506 0.623,-7.01 0.946,-10.515 0.15,-1.484 0.386,-2.989 0.258,-4.473 -0.151,-1.978 -0.56,-3.935 -0.925,-5.892 -0.086,-0.516 -0.322,-1.032 -0.624,-1.44 -1.032,-1.354 -2.086,-2.709 -3.225,-3.956 -1.075,-1.161 -2.021,-2.322 -2,-4.021 0,-0.236 -0.128,-0.451 -0.172,-0.71 -0.257,-1.139 -0.559,-2.279 -0.752,-3.441 -0.065,-0.386 0.086,-0.903 0.322,-1.225 0.452,-0.624 1.011,-1.161 1.613,-1.806 1.182,0.429 2.516,0.624 3.462,1.333 0.968,0.709 1.549,1.913 2.365,2.988 0.408,-0.537 0.731,-0.903 0.989,-1.311 0.387,-0.688 1.032,-0.989 1.742,-0.903 2.536,0.279 4.214,-1.182 5.72,-2.86 1.225,-1.354 2.364,-2.774 4.235,-3.311 0.344,-0.086 0.689,-0.258 0.989,-0.451 0.882,-0.538 1.764,-1.118 2.688,-1.699 -2.257,-1.397 -4.171,-0.129 -6.085,0.517 -1.139,-2.431 -0.731,-4.71 0.365,-7.01 -1.87,-0.71 -3.526,-1.656 -5.181,0 -0.258,0.258 -0.602,0.451 -0.925,0.624 -0.279,0.15 -0.581,0.344 -0.882,0.322 -1.935,-0.043 -3.87,-0.129 -5.783,-0.193 -0.56,-0.021 -1.183,-0.107 -1.678,0.086 -1.785,0.753 -3.527,1.634 -5.31,2.386 -1.226,0.516 -2.474,1.032 -3.763,1.311 -0.882,0.215 -1.571,0.56 -2.15,1.226 -0.56,0.624 -1.161,1.182 -1.807,1.828 -0.903,-0.775 -1.742,-1.376 -2.408,-2.107 -1.204,-1.312 -2.321,-2.71 -3.441,-4.107 -0.623,-0.796 -1.246,-1.613 -1.72,-2.495 -1.053,-1.999 -1.999,-4.063 -2.967,-6.042 -0.344,-0.107 -0.581,-0.15 -0.817,-0.236 -1.075,-0.43 -2.322,-0.688 -3.225,-1.354 -1.892,-1.441 -3.613,-3.118 -5.655,-4.924 -0.968,0.968 -1.936,1.871 -2.818,2.838 -0.623,0.689 -1.246,1.183 -2.235,1.311 -1.312,0.172 -2.603,0.582 -3.914,0.904 -0.688,0.171 -1.397,0.365 -2.171,0.581 -0.301,-1.247 -1.269,-2.236 -1.397,-3.677 2.236,-0.323 4.3,-0.882 6.192,-2.064 -0.731,-1.871 -2.086,-3.398 -2.538,-5.268 0.603,-0.624 1.097,-1.161 1.592,-1.699 0.688,-0.753 1.032,-0.796 2.042,-0.451 1.656,0.559 3.333,1.075 4.989,1.591 0.236,0.065 0.495,0.065 0.989,0.129 -0.839,-0.881 -1.312,-1.677 -1.118,-2.666 0.172,-0.86 -0.408,-1.849 0.451,-2.624 -1.247,-0.043 -2.516,-0.279 -3.742,-0.15 -2.45,0.279 -4.73,-0.258 -6.945,-1.204 -1.418,-0.603 -2.816,-1.311 -4.3,-1.699 -2.623,-0.667 -5.031,-1.763 -7.246,-3.332 -0.516,-0.365 -1.075,-0.667 -1.591,-0.989 -0.429,0.236 -0.731,0.429 -1.075,0.58 -0.688,0.28 -1.376,0.689 -2.107,0.775 -0.817,0.107 -1.72,0.064 -2.516,-0.129 -2.257,-0.581 -4.731,-0.731 -6.214,-2.924 -0.043,-0.065 -0.129,-0.086 -0.236,-0.129 -1.247,0.172 -2.538,0.365 -3.87,0.559 -0.474,-0.774 -0.968,-1.484 -1.333,-2.236 -0.387,-0.774 -0.947,-1.268 -1.721,-1.613 -1.699,-0.753 -3.418,-1.29 -5.289,-1.332 -0.429,0 -0.881,-0.086 -1.311,-0.194 -1.656,-0.516 -3.29,-1.182 -4.989,-1.547 -2.321,-0.474 -4.214,-2.172 -4.537,-4.559 -0.215,-1.592 -0.667,-3.075 -1.44,-4.494 -0.301,-0.537 -0.429,-1.161 -0.645,-1.807 1.032,-0.451 1.892,-0.796 2.688,-1.139 0.257,-1.118 0.495,-2.15 0.753,-3.29 2.236,-1.01 4.515,-2.042 6.794,-3.096 0.753,0.903 1.463,1.721 2.129,2.516 1.268,-0.516 2.43,-0.989 3.634,-1.484 0.731,0.796 1.634,1.442 2.021,2.301 0.408,0.903 0.301,2.021 0.429,3.117 0.409,-0.043 0.71,-0.021 0.947,-0.129 1.656,-0.731 3.311,-0.731 4.988,-0.171 0.688,0.214 1.333,0.021 1.914,-0.495 0.688,-0.602 1.44,-1.16 2.257,-1.806 0.796,0.667 1.463,1.268 2.215,1.914 -0.301,0.301 -0.474,0.516 -0.71,0.667 -1.505,1.01 -3.011,2.064 -4.58,3.032 -0.646,0.386 -0.968,0.817 -0.818,1.548 0.194,1.011 0.366,2 0.495,2.688 2.258,1.484 4.3,2.817 6.43,4.214 0.258,-0.043 0.667,-0.193 1.053,-0.15 2.065,0.236 3.506,-0.71 4.623,-2.301 0.624,-0.903 1.269,-1.784 1.914,-2.666 h 3.268 c 0.603,-0.624 1.097,-1.161 1.57,-1.678 1.054,0.28 2.021,0.56 3.182,0.861 -0.386,-0.882 -0.666,-1.549 -0.967,-2.193 -0.495,-0.989 -0.495,-1.183 0.386,-1.828 1.183,-0.86 2.365,-1.699 3.161,-2.989 0.43,-0.667 1.054,-1.204 1.677,-1.914 0.732,0.818 1.419,1.592 2.172,2.408 0.537,-0.753 0.946,-1.397 1.461,-1.978 0.517,-0.624 0.603,-1.29 0.451,-2.043 -0.322,-1.763 -0.623,-3.526 -0.945,-5.289 -0.215,-1.182 -0.517,-1.699 -1.442,-2.537 -0.043,0.214 -0.086,0.408 -0.107,0.602 -0.301,2.645 -1.505,4.881 -3.096,6.924 -1.592,2.021 -3.463,3.763 -5.376,5.462 -1.484,1.289 -3.053,2.559 -5.161,2.214 -1.462,-0.236 -1.935,0.646 -2.473,1.635 -0.279,0.472 -0.581,0.946 -0.86,1.397 -0.731,-0.151 -1.333,-0.28 -1.913,-0.408 -0.624,-0.151 -1.226,-0.301 -1.914,-0.495 2.602,-2.925 2.386,-3.699 9.568,-5.849 -0.021,-0.129 -0.043,-0.258 -0.107,-0.344 -0.129,-0.193 -0.279,-0.386 -0.452,-0.559 -1.161,-1.182 -2,-2.495 -2.15,-4.214 -0.065,-0.731 -0.387,-1.526 -0.839,-2.107 -1.204,-1.592 -2.193,-3.312 -3.01,-5.118 -0.474,-1.053 -0.086,-2.235 1.01,-2.881 0.603,0.581 1.204,1.14 1.936,1.828 0.946,-1.42 1.827,-2.71 2.688,-3.999 h 3.074 c 0.581,-2.215 0.624,-4.214 -0.624,-6.107 -0.279,-0.408 -0.408,-1.01 -0.365,-1.526 0.108,-1.118 0.344,-2.214 0.56,-3.419 1.246,0.043 2.257,-0.925 3.548,-0.71 0.688,2.236 -0.151,4.344 -0.408,6.58 0.946,-0.172 1.699,-0.301 2.452,-0.43 0.903,-2.429 1.763,-4.795 2.666,-7.245 -0.538,-0.581 -1.075,-1.118 -1.549,-1.721 -1.031,-1.354 -2.085,-2.752 -2.278,-4.494 -0.108,-1.096 0.172,-2.236 0.279,-3.462 0.817,-0.301 1.634,-0.603 2.516,-0.925 1.054,1.118 2.322,2.064 3.053,3.311 1.075,1.806 2,3.72 2.15,5.913 0.043,0.559 0.237,1.225 0.56,1.677 1.375,1.914 2.817,3.785 4.3,5.613 0.709,0.86 1.505,1.763 2.473,2.257 1.461,0.774 3.096,1.225 4.687,1.742 2.172,0.688 3.914,2.107 5.699,3.462 0.343,0.258 0.602,0.667 0.796,1.054 0.989,1.956 1.956,3.913 2.967,5.934 1.763,0.903 3.827,1.355 5.224,3.075 1.463,1.828 3.139,3.505 4.688,5.268 0.602,0.688 1.161,1.462 1.699,2.15 h 3.591 c 0.753,-1.399 -0.172,-2.688 -0.022,-4.064 0.968,-0.774 1.957,-1.592 2.925,-2.344 1.182,0.344 2.3,0.538 3.289,0.989 3.29,1.485 6.516,3.097 9.805,4.602 1.011,0.474 1.871,1.097 2.452,2.086 0.86,1.484 2.107,2.559 3.569,3.418 0.387,0.215 0.796,0.408 1.226,0.474 1.527,0.171 3.074,0.279 4.602,0.386 0.753,0.043 1.505,0 2.3,0 0.043,-0.924 -0.107,-1.591 -1.075,-1.978 -0.882,-0.343 -1.656,-0.903 -2.473,-1.354 0.021,-0.086 0.043,-0.193 0.043,-0.279 1.957,-0.538 3.935,-1.097 5.913,-1.656 -0.151,-1.721 -0.279,-3.333 -0.387,-4.881 1.57,-1.311 3.484,-1.505 5.311,-1.978 -0.753,-0.474 -1.505,-0.753 -2.236,-1.075 -1.075,-0.474 -2.15,-0.603 -3.311,-0.301 -2.388,0.581 -4.838,0.451 -7.267,0.558 -1.42,0.043 -2.903,-0.021 -4.193,0.839 -0.43,0.301 -0.968,0.452 -1.463,0.581 -0.322,0.107 -0.709,0.107 -1.053,0.043 -2.021,-0.43 -4.042,-0.86 -6.064,-1.311 -0.559,-0.129 -1.053,-0.129 -1.613,0.172 -0.838,0.408 -1.784,0.645 -2.709,0.967 -0.344,-1.01 -0.667,-1.914 -1.01,-2.903 -1.097,0.323 -2.086,0.624 -3.225,0.968 -2.408,-1.72 -4.924,-3.484 -7.441,-5.289 0.322,-0.989 0.603,-1.828 0.839,-2.602 2.193,-0.022 4.171,0.3 6.128,0.882 1.075,0.3 2.236,0.386 3.354,0.516 0.882,0.107 1.763,0.107 2.645,0.215 1.935,0.193 3.849,0.473 5.763,0.624 0.538,0.064 1.139,-0.065 1.634,-0.279 2.452,-1.054 4.902,-2.108 7.311,-3.269 1.269,-0.623 2.581,-1.268 3.634,-2.192 2.322,-2.022 4.473,-4.258 6.752,-6.323 0.753,-0.666 0.731,-1.311 0.429,-2.236 -1.075,0.796 -2.042,1.505 -3.031,2.215 -1.333,-0.71 -2.15,-2.3 -4.064,-2.107 -0.365,0.989 -0.774,2.042 -1.182,3.096 -0.71,1.828 -1.484,3.613 -3.677,4.128 -0.086,0 -0.151,0.086 -0.215,0.108 -1.849,0.838 -3.785,1.246 -5.806,1.096 -2.752,-0.193 -5.483,-0.537 -8.213,-0.688 -1.549,-0.086 -2.946,-0.495 -4.387,-0.989 -1.096,-0.365 -2.257,-0.689 -3.418,-0.71 -2.193,-0.086 -3.978,-1.118 -5.655,-2.301 -1.657,-1.161 -2.968,-2.73 -4.064,-4.472 -0.344,-0.495 -0.408,-0.925 -0.129,-1.463 0.3,-0.645 0.559,-1.333 0.838,-2.021 -0.257,-0.408 -0.494,-0.796 -0.731,-1.161 -0.258,-0.387 -0.516,-0.731 -0.86,-1.204 -0.258,1.14 -0.474,2.064 -0.688,3.032 -1.678,0.043 -3.225,0.043 -4.817,-0.279 -2.602,-0.496 -4.128,-2.258 -5.289,-4.387 -0.882,-1.656 -1.547,-3.441 -2.408,-5.139 -0.365,-0.732 -0.408,-1.354 0.043,-2.043 0.129,-0.193 0.215,-0.429 0.322,-0.645 1.161,-2.495 2.753,-4.58 5.527,-5.441 0.624,-0.193 1.118,-0.516 1.849,-0.365 0.667,0.151 1.419,-0.086 2.3,-0.15 -0.752,-1.527 -1.031,-3.182 -2.623,-4.042 -1.397,-0.732 -2.215,-1.957 -2.967,-3.29 -0.387,-0.688 -0.882,-1.354 -1.462,-1.935 -1.354,-1.376 -2.795,-2.688 -4.214,-4.021 -1.656,-1.548 -3.398,-2.989 -5.289,-4.149 -0.903,0.3 -1.699,0.581 -2.602,0.881 -0.408,-0.343 -0.818,-0.752 -1.269,-1.075 -0.602,-0.386 -1.203,-0.86 -1.87,-1.032 -0.646,-0.172 -1.355,0.022 -2.064,0 -1.397,-0.021 -2.817,0.043 -4.171,-0.343 -0.474,-1.29 -0.925,-2.517 -1.312,-3.613 -1.913,-0.882 -3.655,-1.742 -5.44,-2.516 -1.506,-0.667 -2.624,-1.656 -3.354,-3.268 1.054,-0.903 2.021,-1.721 3.505,-2.021 1.957,-0.387 3.849,-1.118 5.827,-1.721 0.603,0.968 1.183,1.892 1.828,2.946 0.968,-0.279 1.914,-0.558 3.01,-0.882 -0.86,-1.418 -1.247,-2.795 -1.204,-4.386 1.635,-0.171 3.182,-0.021 4.688,0.56 1.634,0.624 3.225,1.333 4.859,1.978 0.603,0.236 1.075,0.517 1.247,1.183 0.474,1.87 1.871,2.602 3.613,2.881 0.043,0.021 0.064,0.021 0.107,0.043 0.732,0.15 1.247,0.495 1.506,1.247 0.495,1.418 1.268,2.602 2.838,3.053 0.516,0.129 0.839,0.559 0.968,1.161 0.516,2.924 1.139,5.848 2.279,8.687 1.914,1.268 3.655,2.731 4.3,5.16 1.268,-0.538 2.386,-1.011 3.527,-1.484 0.236,0.472 0.429,0.86 0.645,1.246 0.817,1.442 0.386,2.71 -0.43,3.957 -0.258,0.387 -0.408,0.839 -0.602,1.268 1.935,1.354 4.214,1.247 6.192,2.086 0.172,1.01 0.344,1.956 0.538,2.924 0.086,0.387 0.172,0.839 0.43,1.118 1.01,1.054 1.914,2.322 3.569,2.538 1.85,0.214 2.968,1.484 4.064,2.859 -1.096,1.29 -2.86,1.721 -3.634,3.397 -0.731,1.613 -0.645,3.225 -0.925,5.075 0.882,-0.41 1.635,-0.603 2.193,-1.033 0.537,-0.429 0.903,-1.075 1.463,-1.763 0.474,0.451 0.903,0.925 1.376,1.333 0.386,0.322 0.817,0.731 1.268,0.882 3.182,0.903 6.385,1.246 9.611,0.322 0.215,-0.065 0.387,-0.172 0.861,-0.408 -1.312,-0.646 -2.408,-1.161 -3.527,-1.699 0.602,-2.193 1.29,-4.128 3.763,-4.731 0.688,-0.15 1.354,-0.408 2.107,-0.301 1.397,0.172 2.795,0.323 4.214,0 1.699,-0.408 3.441,-0.559 5.203,-0.495 0.323,0 0.775,-0.3 0.968,-0.581 0.667,-0.967 1.247,-1.978 1.849,-2.945 -0.172,-0.301 -0.279,-0.56 -0.429,-0.71 -1.485,-1.397 -2.365,-3.161 -3.204,-4.967 -0.215,-0.474 -0.344,-0.925 0.043,-1.354 0.624,-0.689 1.268,-1.354 1.871,-1.978 1.29,0.086 2.452,0.15 3.505,0.214 0.882,1.85 1.763,3.506 2.473,5.203 0.731,1.764 1.312,3.57 1.914,5.354 0.301,0.839 0.474,1.72 0.753,2.581 0.472,1.418 -0.215,2.645 -0.775,3.827 -0.429,0.86 -0.171,1.656 -0.128,2.495 0.064,1.139 1.053,1.204 1.763,1.57 0.301,0.15 0.602,0.3 0.903,0.365 0.624,0.129 0.989,0.517 1.269,1.032 0.343,0.624 0.752,1.182 1.268,2 -0.065,-1.419 -0.108,-2.538 -0.172,-3.72 1.01,-0.172 1.914,-0.344 2.86,-0.495 0.838,1.72 2.128,3.16 2.279,5.117 0.085,1.419 0.688,2.559 1.57,3.612 0.558,0.646 1.161,1.355 1.375,2.129 0.409,1.548 0.646,3.139 0.387,4.795 -0.279,1.871 -0.624,3.806 -0.452,5.677 0.193,2.279 0.387,4.644 1.635,6.687 0.407,0.688 0.472,1.44 0,2.086 -0.947,1.354 -0.99,2.666 -0.044,4.02 0.022,0.043 0.022,0.086 0.044,0.129 0.516,1.333 1.354,2.43 2.473,3.505 0.429,-2.064 0.107,-4.342 2.58,-5.44 0.172,0.796 0.387,1.526 0.474,2.279 0.129,1.139 0.429,2.128 1.354,2.903 0.538,0.451 0.688,1.161 0.365,1.784 -0.839,1.549 -0.795,3.29 -1.032,4.946 -0.021,0.172 0.086,0.365 0.151,0.624 0.838,-0.129 1.634,-0.279 2.429,-0.408 0.15,-1.29 0.3,-2.474 0.452,-3.699 0.322,-0.15 0.645,-0.301 1.096,-0.495 0.301,1.354 0.56,2.602 0.753,3.548 1.269,0.689 2.408,1.118 3.289,1.828 0.689,0.537 1.269,0.774 1.957,0.344 1.14,-0.71 2.215,-1.484 3.182,-2.15 0.322,-1.44 0.603,-2.688 0.904,-4 1.096,0.215 2.064,0.387 3.01,0.582 0.559,0.128 0.989,0.386 1.29,0.967 0.407,0.796 0.967,1.484 1.547,2.322 0.774,-0.731 1.484,-1.419 2.3,-2.214 0.796,1.01 1.528,1.956 2.279,2.902 1.075,-1.354 2.086,-2.666 3.225,-4.128 0.689,0.903 1.354,1.592 1.806,2.386 0.925,1.656 2.129,3.268 2.56,5.075 0.731,3.139 1.462,6.342 0.86,9.633 -0.129,0.624 0.107,1.096 0.688,1.418 0.365,0.215 0.71,0.474 1.14,0.775 0.086,-0.667 0.15,-1.161 0.193,-1.656 0.774,0.838 0.86,1.785 0.581,2.709 -0.581,1.957 -0.71,3.871 -0.258,5.892 0.258,1.118 0.71,1.785 1.763,2.236 0.538,0.236 1.183,0.752 1.333,1.268 0.538,1.828 0.925,3.72 -0.365,5.462 -0.193,0.258 -0.451,0.516 -0.538,0.796 -0.129,0.495 -0.322,1.075 -0.172,1.505 0.323,0.903 0.861,1.742 1.398,2.753 0.924,-0.28 1.806,-0.581 2.752,-0.882 -1.914,-15.31 -5.462,-30.081 -10.729,-44.424 -5.291,-14.406 -12.193,-28.017 -20.642,-40.811 -8.382,-12.727 -18.102,-24.381 -29.391,-34.681 z m -19.2,203.324 c 1.139,0.817 2.171,1.526 3.225,2.279 -0.301,1.419 -0.903,2.731 -1.828,3.57 -0.817,0.709 -2.214,0.774 -3.591,1.203 -0.258,-1.548 -0.474,-2.816 -0.71,-4.192 0.926,-0.925 1.893,-1.871 2.904,-2.86 z m -80.934,-101.404 c 0.688,-0.107 1.463,-0.043 2.15,0.151 2.279,0.667 4.43,1.698 6.666,2.924 -0.903,0.817 -1.699,1.548 -2.581,2.344 -1.118,-0.386 -2.214,-0.753 -3.311,-1.139 -1.053,-0.387 -2.107,-0.86 -3.182,-1.161 -1.182,-0.344 -1.892,-1.161 -2.666,-2.236 1.096,-0.345 1.999,-0.732 2.924,-0.883 z m -4.172,-92.394 c 0.172,0.021 0.387,0.171 0.472,0.322 0.496,0.774 0.968,1.548 1.442,2.322 -0.086,0.086 -0.172,0.172 -0.236,0.258 -1.119,-0.065 -2.236,-0.129 -3.355,-0.215 -0.171,0 -0.365,-0.043 -0.473,-0.151 -0.558,-0.624 -1.14,-1.246 -1.656,-1.913 -0.15,-0.172 -0.043,-0.517 -0.086,-1.011 1.377,0.13 2.645,0.237 3.892,0.388 z m 0.946,22.771 c -1.527,0.667 -2.989,1.463 -4.602,2.236 -0.838,-0.581 -1.699,-1.204 -2.559,-1.785 -1.161,-0.753 -2.321,-1.484 -3.483,-2.236 -1.699,-1.075 -3.183,-2.452 -4.344,-4.042 -0.666,-0.946 -0.903,-2.279 -1.031,-3.677 1.397,0.107 2.623,0.193 3.87,0.301 1.225,0.107 2.495,0.343 3.72,0.279 1.032,-0.043 2.042,-0.408 3.096,-0.86 -1.333,-0.689 -2.623,-1.505 -4.021,-2 -1.656,-0.559 -2.902,-1.613 -4.063,-2.795 -0.624,-0.603 -1.29,-0.925 -2.064,-1.161 -0.775,-0.237 -1.527,-0.495 -2.431,-0.796 0.322,-0.839 0.537,-1.549 0.86,-2.172 0.108,-0.214 0.537,-0.386 0.818,-0.365 2.042,0.086 4.106,0.172 6.149,0.387 0.688,0.086 1.44,0.386 1.978,0.817 1.527,1.247 2.967,2.645 4.473,3.935 0.43,0.387 0.645,0.796 0.667,1.376 0.021,0.472 0.172,0.946 0.215,1.44 0.086,0.817 0.452,1.397 1.118,1.914 2.321,1.87 4.344,4.042 5.87,6.622 0.128,0.194 0.193,0.43 0.365,0.839 -1.548,0.582 -3.117,1.098 -4.601,1.743 z m 47.907,-36.769 c -2.494,-1.57 -4.902,-3.074 -7.375,-4.601 0.559,-0.861 1.139,-1.742 1.763,-2.71 2.774,0.774 4.989,2.279 6.988,4.344 -0.472,1.032 -0.903,1.935 -1.376,2.967 z m 32.49,33.479 c -0.086,1.268 -0.151,2.364 -0.237,3.677 -1.268,-0.28 -2.494,-0.603 -3.655,-1.161 -0.236,-0.129 -0.474,-0.732 -0.387,-1.032 0.71,-2.624 -0.365,-4.881 -1.505,-7.074 -0.839,-1.613 -1.635,-3.161 -1.183,-5.053 0.108,-0.408 0.022,-0.882 0.022,-1.376 -0.774,-0.558 -1.484,-1.182 -2.279,-1.634 -0.946,-0.495 -1.549,-1.226 -1.785,-2.193 -0.408,-1.699 -1.376,-3.075 -2.43,-4.409 -0.279,-0.365 -0.451,-0.86 -0.581,-1.311 -0.15,-0.559 -0.108,-1.161 -0.322,-1.677 -0.581,-1.526 0.214,-2.602 1.118,-3.613 0.215,-0.236 0.623,-0.387 0.946,-0.408 2.3,-0.086 4.537,0.344 6.601,1.354 1.011,0.474 1.892,1.247 2.71,2.021 1.053,1.011 2.128,2.064 2.924,3.247 0.903,1.376 1.549,2.924 2.279,4.408 0.3,0.581 0.537,1.183 0.86,1.742 1.268,2.365 1.182,5.053 1.742,7.569 0.365,1.742 0.624,3.527 0.903,5.182 -1.463,2.343 -3.57,2.042 -5.741,1.741 z m 63.388,39.564 c 0.301,0.558 0.452,1.204 0.516,1.849 0.151,1.376 0.108,2.817 0.323,4.193 0.279,1.72 -0.753,2.902 -1.42,4.451 -1.096,-0.344 -2.15,-0.645 -3.139,-1.032 -0.237,-0.086 -0.408,-0.474 -0.495,-0.774 -0.129,-0.387 -0.215,-0.796 -0.215,-1.204 -0.021,-1.914 -1.311,-3.032 -2.667,-4.257 -1.01,0.774 -1.999,1.548 -3.053,2.365 -1.225,-0.861 -2.429,-1.678 -3.612,-2.517 -0.194,-0.129 -0.323,-0.386 -0.387,-0.602 -0.56,-2.409 -0.989,-4.838 0,-7.483 0.71,0.301 1.44,0.581 2.15,0.903 0.71,0.322 1.397,0.71 2.322,0.279 -0.408,-1.892 -1.699,-3.441 -2.279,-5.354 0.279,-0.043 0.495,-0.129 0.645,-0.065 1.721,0.474 3.376,1.032 4.881,2.107 2.667,1.938 4.925,4.195 6.43,7.141 z m -10.644,-19.46 c 0.71,0.129 1.42,0.323 2.15,0.387 0.689,0.064 1.118,0.365 1.397,0.968 0.387,0.838 0.818,1.656 1.333,2.709 -1.096,0.667 -2.042,1.247 -2.967,1.806 -2.495,-0.451 -4.688,-1.397 -6.43,-3.203 -0.343,-0.365 -0.493,-0.968 -0.817,-1.635 1.916,-0.386 3.485,-1.332 5.334,-1.032 z"
   id="path840" />
	<path
   fill="#ffffff"
   d="m 1339.266,1556.723 c -1.032,1.505 -2.365,2.795 -3.634,4.257 1.096,0.129 1.182,0.15 1.935,-0.732 1.978,-2.3 4.321,-3.977 7.29,-4.773 0.279,-0.086 0.516,-0.322 0.946,-0.624 -1.333,-1.075 -2.538,-2.043 -3.806,-3.075 -0.969,1.786 -1.699,3.463 -2.731,4.947 z"
   id="path842" />
	<path
   fill="#ffffff"
   d="m 1304.583,1386.619 c 0.365,-1.978 0.214,-2.3 -1.247,-2.559 0.43,0.861 0.817,1.656 1.247,2.559 z"
   id="path844" />
	<path
   fill="#ffffff"
   d="m 1257.751,1542.617 c 0.775,0.301 1.57,0.645 2.343,0.946 1.011,0.387 2,0.774 2.989,1.161 -0.839,-1.957 -2.429,-2.774 -4.343,-3.139 -2.042,-0.365 -4.106,-0.689 -6.299,-1.075 0.172,0.924 0.365,1.849 0.558,2.881 0.775,-0.3 1.397,-0.473 1.957,-0.774 0.946,-0.537 1.871,-0.344 2.795,0 z"
   id="path846" />
	<path
   fill="#ffffff"
   d="m 1251.86,1488.281 c -0.71,0.236 -1.419,0.472 -2.236,0.387 -2.021,-0.194 -4.021,0.043 -5.956,0.581 4.107,1.139 8.084,0.064 12.126,-0.925 -0.58,-0.322 -1.16,-0.646 -1.698,-0.946 -0.818,0.345 -1.505,0.667 -2.236,0.903 z"
   id="path848" />
	<path
   fill="#ffffff"
   d="m 1209.802,1527.738 c 0.667,0.257 1.29,0.322 1.999,0.172 1.721,-0.344 3.463,-0.56 5.161,-0.925 1.139,-0.258 2.214,-0.129 3.182,0.408 1.935,1.054 3.72,0.516 5.612,-0.301 -0.839,-1.57 -1.656,-3.031 -3.246,-3.891 -0.861,-0.474 -1.699,-0.99 -2.431,-1.592 -0.795,-0.645 -1.484,-1.441 -2.321,-2.279 0.838,-0.645 1.591,-1.139 2.235,-1.742 0.689,-0.624 1.247,-1.354 1.85,-2.021 -1.528,-2.257 -3.828,-3.075 -6.279,-4.021 0.796,-1.053 1.463,-1.935 2.215,-2.924 -1.161,-0.817 -2.193,-1.57 -3.225,-2.3 -0.065,0.064 -0.107,0.129 -0.172,0.193 0.474,0.667 0.946,1.333 1.484,2.064 -0.516,0.602 -0.967,1.118 -1.397,1.635 -0.431,0.516 -0.86,1.075 -0.581,1.763 0.474,1.161 1.011,2.3 1.549,3.418 0.343,0.689 0.731,1.355 1.161,2.107 -1.657,0.538 -3.054,0.796 -4.495,-0.129 -1.139,-0.752 -2.407,-1.332 -3.613,-1.978 -0.279,-0.129 -0.579,-0.215 -1.031,-0.365 0.903,2.409 2.236,4.451 2.859,6.687 -2.214,2.431 -2.838,3.484 -3.01,5.118 0.816,0.3 1.655,0.581 2.494,0.903 z"
   id="path850" />
	<path
   fill="#ffffff"
   d="m 1229.927,1715.108 c 0.365,0.666 0.688,1.311 1.097,2.085 1.053,-0.581 1.978,-1.075 3.139,-1.72 -1.526,-0.431 -2.73,-1.247 -4.236,-0.365 z"
   id="path852" />
	<path
   fill="#ffffff"
   d="m 1229.777,1657.869 c 1.182,-2.387 1.871,-2 -0.581,-4 -0.065,-0.064 -0.129,-0.064 -0.129,-0.064 -2.107,0.043 -4.085,0.215 -6.192,0.86 1.849,1.935 3.87,3.311 6.299,4.15 0.238,-0.345 0.452,-0.624 0.603,-0.946 z"
   id="path854" />
	<path
   fill="#ffffff"
   d="m 1320.344,1543.026 c 2.494,-0.581 4.365,-1.677 5.891,-3.311 0.602,-0.645 1.247,-0.731 2.064,-0.645 1.011,0.129 2.064,0.279 3.01,0.043 2.107,-0.537 4.193,-1.226 6.214,-2 2.408,-0.903 4.709,-2 6.623,-3.656 0.064,-0.559 0.129,-1.032 0.193,-1.505 0.129,-1.075 0.408,-2.193 -0.581,-3.032 -1.204,-1.01 -1.484,-2.473 -1.935,-3.87 -0.086,-0.28 -0.043,-0.603 -0.064,-0.989 h 3.203 c 0.108,0.193 0.215,0.279 0.236,0.386 0.56,2.064 1.441,3.828 3.635,4.623 1.203,0.453 2.343,1.075 3.569,1.635 0.688,-1.118 1.269,-2.086 1.849,-3.053 -0.214,-0.431 -0.386,-0.86 -0.624,-1.225 -0.602,-0.882 -0.924,-1.785 -0.386,-2.839 0.258,-0.538 0.021,-1.01 -0.301,-1.484 -0.408,-0.538 -0.731,-1.139 -1.118,-1.742 1.592,-1.978 1.097,-3.978 0.452,-6.042 -0.516,0.215 -0.924,0.43 -1.333,0.56 -1.527,0.495 -2.752,1.333 -3.505,2.795 -0.021,0.086 -0.086,0.129 -0.128,0.215 -0.323,0.451 -0.582,0.882 -0.56,1.527 0.022,0.796 -0.236,1.613 -0.365,2.473 -2.538,-1.204 -3.506,-2.645 -3.634,-5.419 2.128,-1.484 3.677,-3.483 4.192,-6.192 -0.903,-0.516 -1.784,-1.011 -2.774,-1.57 -0.343,0.688 -0.774,1.268 -0.946,1.914 -0.386,1.354 -1.375,1.784 -2.602,2.064 -0.452,-1.032 -0.903,-2.021 -1.375,-3.139 -1.075,0.602 -2.043,1.161 -3.097,1.763 -0.495,-1.268 -0.924,-2.43 -1.397,-3.656 -1.591,-0.322 -2.752,-2.214 -4.902,-1.268 0.386,1.549 0.645,3.075 1.182,4.516 0.408,1.161 1.182,2.214 1.742,3.332 0.365,0.732 0.602,1.442 0.429,2.322 -0.214,1.161 -0.322,2.344 -0.3,3.505 0.064,1.57 -0.172,3.075 -0.537,4.581 -0.107,0.429 -0.322,0.838 -0.538,1.397 -0.71,-0.688 -1.29,-1.225 -1.957,-1.871 -0.495,1.183 -0.903,2.129 -1.29,3.075 -3.375,0.667 -6.859,0.86 -9.31,3.87 0.214,0.603 0.472,1.29 0.752,2.064 1.226,-0.538 2.344,-1.247 3.527,-1.441 1.204,-0.193 2.473,0.129 3.699,0.215 0.538,1.139 1.01,2.15 1.591,3.375 -0.839,0.193 -1.484,0.387 -2.15,0.474 -1.591,0.193 -3.225,0.236 -4.795,0.559 -1.699,0.365 -3.268,0.28 -4.859,-0.473 -0.581,-0.28 -1.333,-0.28 -2.022,-0.322 -1.311,-0.086 -2.644,-0.108 -4.171,-0.151 -0.193,0.236 -0.538,0.689 -0.838,1.161 -0.366,0.538 -0.667,1.118 -1.011,1.656 -0.559,0.903 -1.161,1.763 -1.699,2.666 -0.581,0.968 -1.268,1.742 -2.409,2.108 -1.397,0.451 -2.816,0.666 -4.278,0.645 -0.387,-0.021 -0.796,0 -1.118,0 -0.603,1.182 -1.161,2.214 -1.699,3.268 -0.839,1.656 -1.592,3.332 -1.14,5.267 0.237,1.033 -0.193,1.678 -0.967,2.279 -0.646,0.516 -1.225,1.118 -1.914,1.742 0.753,0.71 1.398,1.312 2.064,1.914 2.15,-0.882 4.344,-1.785 6.537,-2.666 0.408,-1.14 0.817,-2.236 1.268,-3.42 -0.795,-1.01 -1.591,-2 -2.386,-3.01 0.129,-0.215 0.194,-0.365 0.301,-0.474 2.257,-2.473 4.688,-4.73 7.397,-6.708 0.946,-0.689 1.828,-1.118 2.989,-0.775 0.581,0.151 1.032,-0.064 1.44,-0.473 0.517,-0.474 1.096,-0.946 1.656,-1.44 1.891,1.377 3.719,2.711 5.31,3.872 z"
   id="path856" />
	<path
   fill="#ffffff"
   d="m 1373.261,1517.632 c 0.064,0.646 0.129,1.29 0.107,1.914 -0.021,0.473 -0.043,0.989 -0.257,1.376 -0.99,1.763 -2.043,3.505 -1.979,5.633 0.022,0.603 -0.343,0.861 -0.753,1.161 -0.774,0.56 -1.527,1.14 -2.321,1.742 0.838,1.14 1.548,2.129 2.3,3.075 0.408,0.495 0.968,0.882 1.397,1.354 0.344,0.365 0.603,0.753 0.387,1.311 -0.882,2.279 -1.72,4.538 -2.559,6.817 -1.097,0.236 -2.107,0.451 -2.817,0.623 -1.118,2.688 0.451,4.731 1.182,7.01 -1.742,1.182 -3.375,2.322 -5.052,3.375 -0.689,0.452 -1.183,0.903 -1.269,1.785 -0.086,1.333 -0.236,2.645 0.108,3.978 0.171,0.624 0.257,1.268 0.322,1.914 0.043,0.279 0.064,0.602 -0.043,0.838 -0.667,1.442 -1.054,3.032 -2.581,3.978 -1.053,0.667 -1.913,1.549 -2.495,2.753 -0.58,1.246 -1.397,2.386 -2.236,3.483 -1.741,2.236 -3.569,4.409 -5.31,6.666 -0.968,1.247 -1.849,2.538 -3.118,3.57 -0.795,0.645 -1.484,1.505 -2.085,2.343 -1.268,1.764 -2.387,3.591 -3.656,5.354 -0.451,0.624 -1.118,1.139 -1.763,1.613 -1.57,1.118 -3.161,2.171 -4.731,3.268 -0.215,0.15 -0.495,0.386 -0.537,0.623 -0.236,1.226 -0.559,2.474 -0.581,3.699 0,1.161 0.365,2.322 0.56,3.484 0.645,0.408 1.247,0.796 1.763,1.118 1.613,-2.301 2.236,-4.709 1.914,-7.333 0.602,-0.408 1.096,-0.774 1.634,-1.053 1.269,-0.667 2.215,-1.549 2.645,-3.011 0.365,-1.268 1.14,-2.214 2.387,-2.902 1.161,-0.667 2.171,-1.678 3.182,-2.581 1.225,-1.118 2.452,-2.279 3.591,-3.484 1.785,-1.87 3.784,-3.569 4.945,-5.956 0.322,-0.645 0.882,-1.161 1.355,-1.72 1.569,-1.828 3.181,-3.591 4.687,-5.441 2.322,-2.859 4.085,-6.063 5.462,-9.482 0.172,-0.43 0.43,-0.818 0.731,-1.333 0.646,0.56 1.226,0.946 1.678,1.463 0.258,0.3 0.495,0.817 0.43,1.203 -0.344,2.882 -0.56,5.806 -1.376,8.623 -0.322,1.118 -0.495,2.279 -0.689,3.441 -0.193,1.354 -0.279,2.752 -1.547,3.677 -0.322,0.236 -0.603,0.559 -0.796,0.903 -0.215,0.365 -0.387,0.774 -0.429,1.182 -0.172,1.613 -0.258,3.247 -0.431,4.86 -0.129,1.204 -0.344,2.343 -1.14,3.397 -1.139,1.484 -1.978,3.16 -2.085,5.095 -0.065,0.968 -0.624,1.657 -1.161,2.365 -1.29,1.742 -2.602,3.441 -3.849,5.182 -0.344,0.474 -0.495,1.097 -0.667,1.677 -0.236,0.796 -0.408,1.635 -0.624,2.517 -1.956,-0.753 -2.386,-2.365 -2.602,-4.3 -1.075,1.354 -1.978,2.473 -2.838,3.548 0.214,1.311 0.408,2.516 0.602,3.72 -1.032,0.753 -1.978,1.44 -2.903,2.107 -0.989,-0.667 -1.892,-1.268 -2.967,-1.978 -0.516,2.343 -1.634,4.128 -3.441,5.203 -0.15,0.753 -0.279,1.311 -0.386,1.849 -0.194,0.882 -0.065,1.14 0.731,1.57 0.474,0.258 0.946,0.538 1.677,0.968 -1.311,0.838 -2.343,1.527 -3.353,2.171 -0.732,-0.129 -1.42,-0.236 -2.086,-0.386 -2.236,-0.495 -4.171,0.214 -5.891,1.548 -1.247,0.968 -2.322,2.15 -3.484,3.225 -1.419,1.333 -2.624,2.903 -4.323,3.914 -1.204,0.752 -2.407,1.505 -3.591,2.278 -2.624,1.699 -5.053,3.699 -7.934,4.989 -1.806,0.796 -3.548,1.935 -5.591,1.742 -1.118,-0.108 -1.699,0.3 -2.322,1.118 -2.214,2.967 -5.074,4.795 -8.944,4.666 -0.365,-0.022 -0.817,0.15 -1.075,0.408 -1.247,1.161 -2.474,2.365 -2.774,4.171 -0.086,0.474 -0.301,0.925 -0.474,1.463 -0.516,0.107 -1.01,0.236 -1.526,0.3 -2.86,0.387 -5.376,1.463 -7.526,3.42 -0.71,0.645 -1.57,1.161 -2.452,1.57 -1.677,0.774 -3.462,1.397 -5.138,2.171 -2.172,1.011 -4.279,2.193 -6.451,3.161 -0.796,0.365 -1.226,0.838 -1.463,1.613 -0.215,0.71 -0.516,1.354 -0.796,2.042 -0.365,0.086 -0.688,0.172 -1.01,0.215 -1.526,0.215 -3.075,0.365 -4.43,1.226 -1.312,0.838 -2.581,0.624 -3.914,0.021 -0.752,-0.344 -1.548,-0.558 -2.473,-0.43 -1.182,0.172 -2.407,0.129 -3.612,0.172 -0.796,0.043 -1.764,-0.172 -2.365,0.194 -1.44,0.946 -3.29,1.526 -3.763,3.569 -0.107,0.538 -0.452,1.032 -0.689,1.549 -1.139,0.365 -2.343,0.581 -3.375,1.096 -1.828,0.925 -3.677,1.419 -5.719,1.032 -0.28,-0.064 -0.56,-0.064 -0.904,-0.086 -0.064,0.086 -0.15,0.194 -0.215,0.28 -1.139,1.742 -2.516,3.246 -4.214,4.516 -1.655,1.246 -2.988,2.816 -4.171,4.558 -0.731,1.097 -1.784,1.978 -2.666,2.968 -0.474,0.516 -1.032,0.602 -1.678,0.516 -0.838,-0.086 -1.677,-0.15 -2.86,-0.236 1.592,2.408 0.989,4.601 -0.171,6.794 0.667,0.818 1.311,1.57 1.978,2.387 0.795,-0.581 1.463,-1.032 2.107,-1.526 1.161,-0.839 2.602,-0.753 3.849,0.322 -0.387,0.408 -0.71,0.882 -1.161,1.225 -1.161,0.903 -1.613,2.043 -1.44,3.484 0.064,0.538 0.064,1.096 0.107,1.634 0.968,0.108 1.785,0.172 2.581,0.301 0.386,0.065 0.838,0.151 1.096,0.408 1.054,0.989 1.892,2.043 0.86,3.57 -0.129,0.193 -0.107,0.474 -0.236,0.688 -0.408,0.732 -0.774,1.506 -1.29,2.15 -1.182,1.484 -2.429,2.925 -3.655,4.365 1.484,-0.344 2.86,-0.903 4.257,-1.419 1.182,-0.43 2.343,-0.989 3.569,-1.161 2.688,-0.408 5.096,-1.591 7.612,-2.429 2.107,-0.71 4.193,-1.484 6.365,-1.957 3.011,-0.645 6.085,-0.989 8.924,-2.257 1.01,-0.451 2.021,-0.451 3.074,-0.365 1.914,0.172 1.914,0.193 1.764,2.085 -0.022,0.172 0,0.322 0,0.495 -0.022,0.689 -0.237,1.247 -0.882,1.613 -0.86,0.495 -1.656,1.054 -2.429,1.549 -1.204,-0.301 -2.344,-0.581 -3.57,-0.882 -0.193,0.839 -0.301,1.549 -0.537,2.215 -0.15,0.429 -0.408,0.924 -0.753,1.161 -0.688,0.429 -1.441,0.731 -2.214,1.01 -0.387,0.15 -0.882,0.301 -1.268,0.215 -2,-0.43 -3.849,-0.065 -5.634,0.881 -1.097,0.582 -2.15,1.204 -3.247,2.129 0.946,0.667 1.721,1.204 2.431,1.678 1.289,-0.151 2.192,-1.14 3.483,-1.119 0.172,1.033 0.603,1.979 0.387,3.14 -3.397,0.043 -6.192,1.677 -9.117,2.945 -1.075,0.474 -2.193,0.925 -3.332,1.054 -2.15,0.279 -3.999,1.247 -5.934,2.107 -1.398,0.645 -2.818,1.311 -4.3,1.634 -2.946,0.646 -5.935,1.032 -8.881,1.57 -1.548,0.258 -2.903,-0.429 -4.494,-0.645 0.731,-1.054 1.935,-0.882 2.795,-1.677 -1.634,-0.753 -3.139,-1.442 -4.795,-2.193 0.817,-0.903 1.505,-1.678 2.215,-2.452 0.538,0.129 0.967,0.215 1.397,0.322 1.247,0.322 2.43,0.322 3.613,-0.365 0.989,-0.603 2.106,-1.011 3.181,-1.505 1.485,-0.645 2.968,-1.268 4.624,-1.441 1.01,-0.107 1.999,-0.472 2.988,-0.71 v -0.3 c -0.946,-0.28 -1.849,-0.646 -2.881,-0.451 -1.849,0.343 -3.72,0.495 -5.526,0.946 -2.064,0.495 -3.311,-0.796 -4.924,-1.635 0.925,-2.257 1.763,-4.387 2.666,-6.601 -0.924,-0.279 -1.806,-0.537 -2.752,-0.817 -3.397,1.526 -6.816,3.074 -10.277,4.623 -0.839,-0.946 -1.613,-1.828 -2.538,-2.881 1.032,-0.496 1.892,-0.882 2.731,-1.333 0.882,-0.495 1.634,-1.161 2.236,-2.129 -0.968,-0.043 -1.806,-0.086 -2.581,-0.129 -0.279,-0.881 -0.495,-1.677 -0.753,-2.429 -0.3,-0.796 -0.193,-1.505 0.366,-2.15 0.322,-0.408 0.58,-0.86 0.86,-1.268 -0.022,-0.065 -0.065,-0.129 -0.108,-0.172 -1.397,0.429 -2.816,0.882 -4.494,1.397 -1.484,-0.774 -3.311,-1.462 -4.795,-2.602 -1.097,-0.817 -2.193,-1.506 -3.419,-2.064 -0.474,-0.215 -0.968,-0.387 -1.484,-0.558 -0.516,-0.172 -0.753,-0.517 -0.839,-1.075 -0.129,-1.011 -0.344,-2 -0.56,-3.14 -1.741,-0.667 -3.439,-1.44 -5.224,-1.935 -1.463,-0.386 -2.022,-1.44 -2.688,-2.602 0.924,-0.731 1.763,-1.397 2.602,-2.064 -0.043,-0.086 -0.086,-0.172 -0.129,-0.258 -0.688,0.065 -1.44,0 -2.107,0.172 -1.914,0.516 -3.763,1.268 -5.698,1.656 -1.935,0.408 -3.72,1.118 -5.484,1.914 -1.935,0.882 -3.892,1.677 -6.02,1.849 -0.279,0.022 -0.603,0.064 -0.817,0.215 -1.333,0.946 -2.731,1.806 -3.892,2.903 -1.311,1.225 -2.538,2.236 -4.452,2.451 -3.031,0.301 -5.612,1.742 -7.697,4.021 -0.301,0.322 -0.646,0.667 -0.796,1.075 -0.689,1.742 -2.064,2.796 -3.613,3.613 -0.753,0.386 -1.204,0.924 -1.526,1.677 -0.387,0.925 -0.817,1.828 -1.247,2.753 -2.322,-0.237 -4.516,-0.022 -6.708,0.386 -0.624,0.129 -1.011,0.387 -1.312,0.968 -0.43,0.839 -0.968,1.634 -1.484,2.495 -2.516,-0.581 -4.924,-1.14 -7.376,-1.699 -0.946,0.709 -1.913,1.44 -2.967,2.236 0.237,0.516 0.452,0.967 0.645,1.461 0.344,0.86 0.861,1.699 0.99,2.581 0.257,1.699 0.817,3.182 2.042,4.451 0.517,0.516 1.011,0.882 1.699,1.054 1.549,0.386 3.096,0.774 4.602,1.204 1.677,0.473 3.332,1.01 5.117,0.924 0.387,-0.021 0.774,0.301 1.161,0.495 0.215,0.086 0.408,0.279 0.646,0.323 4.429,0.838 8.858,1.655 13.309,2.516 1.14,0.214 2.15,0 3.118,-0.538 1.333,-0.753 2.71,-0.947 4.214,-0.603 0.731,0.151 1.505,0.129 2.258,0.193 3.031,0.28 6.042,0.582 9.073,0.839 2.408,0.194 4.86,0.732 7.268,0.043 1.87,-0.558 3.225,0.431 4.902,1.226 -0.408,0.171 -0.624,0.257 -0.839,0.365 -1.247,0.538 -2.559,0.688 -3.892,0.688 0.387,0.043 0.774,0.15 1.161,0.15 6.494,0.086 12.966,-0.042 19.417,-0.688 4.816,-0.474 9.633,-1.032 14.406,-1.699 9.547,-1.354 18.857,-3.634 28.061,-6.451 13.847,-4.235 27.007,-10.063 39.607,-17.159 0.624,-0.365 1.247,-0.753 1.87,-1.118 -0.795,0.129 -1.505,0.43 -2.171,0.796 -2.171,1.139 -4.408,2.021 -7.095,1.634 -0.451,-0.623 -0.968,-1.332 -1.526,-2.107 1.182,-1.527 2.064,-3.182 4.042,-3.806 0.946,-0.3 1.806,-0.817 2.559,-1.548 1.225,-1.14 1.978,-2.559 2.795,-3.957 0.344,-0.623 0.753,-1.117 1.484,-1.354 0.452,-0.15 0.861,-0.429 1.312,-0.624 1.441,-0.624 2.881,-1.247 4.515,-1.44 0,0.365 0.044,0.646 0,0.925 -0.365,1.656 -0.731,3.311 -1.117,4.988 -0.28,1.161 -0.646,2.322 -0.043,3.548 0.451,-0.257 0.838,-0.451 1.225,-0.688 15.224,-9.676 28.899,-21.18 41.004,-34.553 9.676,-10.708 18.084,-22.341 25.265,-34.877 7.419,-13.008 13.332,-26.662 17.61,-41.004 1.571,-5.268 2.839,-10.622 4.064,-15.976 2.279,-9.977 3.462,-20.126 4.107,-30.339 0.236,-3.505 0.258,-7.01 0.279,-10.515 0,-3.096 -0.086,-6.192 -0.215,-9.289 -0.107,-2.559 -0.343,-5.118 -0.451,-7.677 -0.043,-1.053 -0.645,-1.484 -1.527,-1.849 0.129,1.651 0.279,3.221 0.388,4.791 z m -94.352,154.708 c -0.322,0.516 -0.58,1.032 -0.924,1.634 -1.311,-0.452 -2.516,-0.86 -3.784,-1.29 -0.582,-1.032 0.021,-2.107 -0.108,-3.225 1.419,-0.386 2.752,-0.752 4.107,-1.096 0.257,0.215 0.343,0.301 0.429,0.387 1.549,1.633 1.549,1.633 0.28,3.59 z m 20.083,14.083 c -0.817,0.344 -1.613,0.774 -2.452,1.032 -0.43,0.129 -0.946,0.043 -1.419,-0.043 -0.473,-0.086 -0.924,-0.301 -1.375,-0.451 0.129,-1.075 2.473,-2.946 5.01,-3.956 0.279,0.817 0.58,1.57 0.795,2.343 0.151,0.517 -0.085,0.86 -0.559,1.075 z m 8.064,-18.492 c -1.785,1.14 -3.699,1.85 -5.806,1.957 -1.053,0.065 -2.279,-0.882 -2.602,-2.107 0.517,-0.236 1.097,-0.452 1.613,-0.731 0.646,-0.387 1.269,-0.818 1.893,-1.247 0.085,-0.065 0.171,-0.194 0.279,-0.215 1.311,-0.365 2.623,-0.731 3.999,-1.096 0.408,0.838 0.753,1.527 1.053,2.214 0.215,0.515 0.044,0.925 -0.429,1.225 z"
   id="path858" />
	<path
   fill="#ffffff"
   d="m 1266.653,1607.296 c -0.258,-1.333 -0.474,-2.495 -0.688,-3.591 h -2.817 c -0.258,1.182 -0.495,2.214 -0.732,3.246 -1.892,0.022 -3.483,-0.429 -4.387,-2.128 -0.558,-1.054 -1.44,-1.29 -2.536,-1.269 -1.118,0.022 -2.257,-0.193 -3.376,-0.15 -0.903,0.021 -1.849,-0.408 -2.73,0.236 -1.592,1.204 -3.161,2.408 -3.635,4.645 1.033,-0.431 2.022,-0.839 3.011,-1.225 0.107,0.128 0.193,0.214 0.236,0.322 1.397,2.967 2.774,5.934 4.192,8.901 0.172,0.387 0.43,0.796 0.753,1.032 1.785,1.161 3.677,2.064 5.806,2.365 0.408,0.065 0.86,0 1.247,-0.129 1.548,-0.558 2.945,-1.484 4.687,-1.397 1.419,0.065 2.839,-0.215 4.236,-0.107 0.86,0.064 1.397,-0.194 1.914,-0.753 0.322,-0.344 0.623,-0.731 0.989,-1.075 2.085,-1.914 3.031,-4.473 3.892,-7.053 0.064,-0.214 0.042,-0.494 0,-0.709 -0.28,-1.269 -0.516,-2.559 -0.903,-3.763 -0.646,-1.914 -1.419,-3.806 -2.581,-5.462 -0.946,-0.151 -1.828,-0.322 -3.032,-0.516 1.204,2.86 0.365,5.246 -0.817,7.677 -0.815,0.279 -1.718,0.558 -2.729,0.903 z"
   id="path860" />
	<path
   fill="#ffffff"
   d="m 1211.995,1683.348 c 0.429,0.237 0.795,0.431 1.247,0.667 -0.387,-0.881 -0.387,-0.881 -1.247,-0.667 z"
   id="path862" />
	<path
   fill="#ffffff"
   d="m 1325.526,1589.943 c -0.558,-1.246 0.344,-2.343 -0.387,-3.396 -0.602,-0.129 -1.225,-0.172 -1.784,-0.366 -1.011,-0.322 -1.785,-0.085 -2.559,0.603 -1.592,1.376 -3.247,2.688 -5.01,4.15 0.538,1.117 1.053,2.15 1.57,3.246 0.429,-0.021 0.817,-0.043 1.247,-0.086 -0.129,-1.075 -0.237,-2.021 -0.344,-2.903 2.171,-1.743 4.579,-1.7 7.267,-1.248 z"
   id="path864" />
	<path
   fill="#ffffff"
   d="m 1250.892,1630.002 c -0.774,0.752 -1.526,1.57 -2.257,2.364 -0.108,0.129 -0.151,0.387 -0.129,0.581 0.172,1.14 0.344,2.279 0.558,3.549 1.269,-0.366 2.322,-0.667 3.398,-0.968 0.451,-1.139 0.86,-2.236 1.333,-3.462 -0.559,-0.732 -1.14,-1.484 -1.806,-2.365 -0.43,0.107 -0.861,0.086 -1.097,0.301 z"
   id="path866" />
	<path
   fill="#ffffff"
   d="m 1310.259,1559.54 c 0.474,-0.495 0.968,-1.011 1.526,-1.397 1.42,-0.99 1.506,-2.581 2.064,-4.107 -1.246,-0.365 -2.278,-1.097 -3.569,-0.775 v 2.903 c -0.43,0.322 -0.968,0.732 -1.505,1.161 -1.505,1.226 -1.613,3.01 -1.763,4.731 -0.021,0.15 0.107,0.301 0.172,0.451 0.559,1.247 1.139,2.495 1.656,3.763 0.301,0.731 0.495,1.505 0.667,2.021 -0.451,1.14 -1.85,0.538 -2.022,1.463 0.624,0.731 1.161,1.375 1.721,2.042 0.967,-0.365 1.828,-0.667 2.666,-0.989 -0.172,-1.828 -0.322,-3.548 -1.289,-5.01 -1.14,-1.741 -0.861,-3.634 -0.689,-5.526 0.022,-0.259 0.172,-0.56 0.365,-0.731 z"
   id="path868" />
</g>
</svg>
