<!DOCTYPE svg PUBLIC "-//W3C//DTD SVG 20010904//EN" "http://www.w3.org/TR/2001/REC-SVG-20010904/DTD/svg10.dtd">
<svg version="1.0" xmlns="http://www.w3.org/2000/svg" width="1200px" height="428px" viewBox="0 0 12000 4280" preserveAspectRatio="xMidYMid meet">
<g id="layer101" fill="#000000" stroke="none">
<path d="M1781 4009 c-1 -6 184 -432 373 -858 25 -58 45 -105 43 -106 -1 -1 -24 -14 -52 -30 -156 -88 -306 -247 -389 -412 -45 -89 -84 -226 -97 -335 -31 -265 73 -567 264 -766 124 -129 285 -224 456 -270 82 -22 117 -25 246 -26 134 0 161 3 253 28 57 16 104 27 106 25 11 -14 106 -242 104 -248 -2 -4 -57 6 -123 22 -435 106 -520 126 -523 122 -3 -2 132 -71 298 -153 l303 -149 -264 -161 c-277 -169 -311 -191 -293 -192 6 0 145 45 308 100 164 56 301 100 305 98 4 -2 0 -34 -9 -73 -41 -166 -131 -542 -135 -565 -3 -14 64 111 148 277 83 167 155 303 158 303 4 0 79 -118 167 -262 89 -145 168 -272 176 -283 9 -11 -32 123 -91 298 -58 175 -104 320 -102 322 3 2 74 -13 159 -34 424 -104 494 -121 496 -118 2 1 -132 70 -296 152 -165 82 -300 152 -300 155 0 3 105 69 233 147 278 171 344 212 335 213 -4 0 -148 -47 -319 -105 -172 -58 -315 -103 -318 -100 -2 3 30 150 73 326 43 176 76 322 74 324 -2 2 -71 -131 -153 -296 -83 -164 -152 -299 -155 -299 -8 0 -120 232 -120 248 0 6 4 12 9 12 5 0 35 20 68 44 262 198 397 465 397 786 0 269 -95 499 -285 688 -87 87 -184 153 -293 200 -123 54 -206 72 -351 79 -139 6 -240 -8 -354 -48 -30 -10 -56 -17 -58 -15 -3 2 -109 215 -238 472 -128 258 -234 466 -234 463z"/>
</g>
<g id="layer102" fill="#fefefe" stroke="none">
<path d="M1781 4009 c-1 -6 184 -432 373 -858 25 -58 45 -105 43 -106 -1 -1 -24 -14 -52 -30 -156 -88 -306 -247 -389 -412 -45 -89 -84 -226 -97 -335 -31 -265 73 -567 264 -766 124 -129 285 -224 456 -270 82 -22 117 -25 246 -26 134 0 161 3 253 28 57 16 104 27 106 25 11 -14 106 -242 104 -248 -2 -4 -57 6 -123 22 -435 106 -520 126 -523 122 -3 -2 132 -71 298 -153 l303 -149 -264 -161 c-277 -169 -311 -191 -293 -192 6 0 145 45 308 100 164 56 301 100 305 98 4 -2 0 -34 -9 -73 -41 -166 -131 -542 -135 -565 -3 -14 64 111 148 277 83 167 155 303 158 303 4 0 79 -118 167 -262 89 -145 168 -272 176 -283 9 -11 -32 123 -91 298 -58 175 -104 320 -102 322 3 2 74 -13 159 -34 424 -104 494 -121 496 -118 2 1 -132 70 -296 152 -165 82 -300 152 -300 155 0 3 105 69 233 147 278 171 344 212 335 213 -4 0 -148 -47 -319 -105 -172 -58 -315 -103 -318 -100 -2 3 30 150 73 326 43 176 76 322 74 324 -2 2 -71 -131 -153 -296 -83 -164 -152 -299 -155 -299 -8 0 -120 232 -120 248 0 6 4 12 9 12 5 0 35 20 68 44 262 198 397 465 397 786 0 269 -95 499 -285 688 -87 87 -184 153 -293 200 -123 54 -206 72 -351 79 -139 6 -240 -8 -354 -48 -30 -10 -56 -17 -58 -15 -3 2 -109 215 -238 472 -128 258 -234 466 -234 463z m659 -934 c-15 -19 -5 -34 19 -28 10 3 22 0 25 -6 4 -6 16 -11 28 -11 19 0 20 1 4 25 -9 14 -13 25 -8 25 20 0 112 -31 117 -40 3 -5 0 -7 -8 -4 -8 3 -17 -2 -20 -10 -7 -19 -34 -21 -39 -4 -2 6 -9 8 -15 5 -24 -15 2 -46 72 -85 78 -43 107 -46 135 -10 9 10 29 20 45 21 32 2 57 25 48 42 -3 5 0 4 8 -2 7 -7 32 -13 56 -13 32 0 43 -4 43 -15 0 -8 -7 -15 -15 -15 -18 0 -20 -26 -2 -34 6 -3 2 -3 -10 0 -16 4 -23 1 -23 -9 0 -8 -8 -18 -17 -23 -14 -6 -10 -9 17 -13 23 -4 38 -14 47 -30 12 -24 54 -50 118 -71 18 -6 44 -21 58 -34 14 -13 44 -32 66 -42 22 -11 41 -24 41 -29 0 -6 36 -34 80 -63 44 -29 80 -57 80 -63 0 -5 10 -14 23 -20 13 -6 28 -24 34 -40 6 -16 22 -33 35 -38 24 -9 39 -32 57 -90 14 -45 14 -118 -1 -127 -8 -5 -9 -2 -5 10 4 11 -11 43 -46 94 -28 42 -55 79 -59 80 -5 2 -8 10 -8 17 0 8 -5 17 -11 21 -9 5 -10 -1 -5 -22 7 -28 89 -158 106 -169 5 -3 7 -19 3 -35 -4 -22 -1 -31 11 -36 19 -7 33 -71 17 -87 -8 -8 -7 -14 1 -24 13 -16 13 -82 -1 -96 -5 -5 -7 -15 -4 -23 2 -7 -2 -26 -10 -41 -8 -15 -26 -53 -41 -83 -16 -33 -26 -46 -26 -33 0 18 -5 21 -30 17 -21 -4 -32 -1 -36 10 -5 12 -10 13 -25 5 -13 -6 -19 -6 -19 1 0 5 -5 10 -11 10 -7 0 -9 -10 -5 -25 4 -14 2 -25 -4 -25 -5 0 -10 5 -10 12 0 16 -20 -4 -24 -23 -2 -8 -6 -32 -10 -54 -11 -62 -23 -85 -41 -79 -8 3 -15 1 -15 -6 0 -6 -4 -9 -9 -6 -5 3 -11 -12 -15 -33 -3 -21 -13 -44 -21 -51 -17 -14 -21 0 -4 17 8 8 6 20 -7 44 -15 31 -18 32 -25 14 -7 -18 -8 -18 -9 5 -2 18 -4 20 -7 8 -2 -10 -12 -18 -20 -18 -14 0 -14 -3 2 -20 12 -13 15 -27 11 -46 -8 -32 -68 -94 -73 -77 -3 7 -12 9 -21 6 -9 -3 -5 3 9 15 40 32 61 84 49 117 -8 20 -15 25 -28 20 -9 -4 -25 -10 -34 -12 -10 -3 -15 -9 -13 -14 3 -4 -3 -13 -14 -19 -16 -8 -22 -6 -30 7 -9 15 -12 16 -20 4 -7 -11 -10 -9 -16 10 -6 17 -2 27 16 42 22 18 23 18 29 1 6 -16 9 -14 21 11 13 28 18 30 82 33 65 3 67 2 78 -25 7 -16 13 -23 16 -15 3 6 9 10 14 6 22 -13 6 17 -21 40 -28 23 -45 28 -129 40 -14 2 -31 -2 -38 -10 -21 -21 -32 -17 -25 8 l5 22 -30 -22 c-17 -12 -37 -22 -45 -22 -7 0 -21 -12 -30 -28 -9 -15 -26 -36 -38 -47 -21 -19 -21 -19 -14 1 4 10 11 25 17 31 10 14 -12 55 -44 83 -16 15 -16 17 -1 36 10 12 26 24 37 28 18 7 17 10 -19 41 -37 33 -39 34 -61 17 -12 -9 -21 -22 -18 -28 2 -6 -17 -15 -42 -21 -41 -9 -47 -8 -60 10 -23 32 -2 53 76 77 52 16 99 23 174 24 57 0 101 4 98 9 -2 4 -18 7 -34 7 -18 0 -28 4 -24 10 4 6 -5 10 -20 10 -22 0 -25 3 -20 20 4 13 2 20 -6 20 -7 0 -10 2 -7 5 3 3 16 2 29 -3 24 -9 96 4 85 15 -3 3 -1 12 6 20 16 19 7 24 -50 25 -31 0 -60 -6 -74 -16 -25 -18 -58 -21 -58 -6 0 6 6 10 14 10 17 0 30 30 13 30 -7 1 -5 6 6 14 30 23 20 36 -28 36 -25 0 -45 -4 -45 -10 0 -5 5 -10 11 -10 5 0 7 -5 3 -11 -3 -6 -1 -15 6 -19 9 -6 10 -12 1 -26 -9 -16 -10 -16 -11 -3 0 24 -36 31 -36 8 0 -11 5 -19 11 -19 5 0 3 -5 -5 -10 -13 -9 -13 -11 0 -20 11 -7 4 -10 -27 -10 -24 0 -43 5 -43 10 0 7 -6 7 -19 0 -28 -15 -38 -13 -44 9 -4 16 -11 19 -40 15 -20 -2 -47 3 -63 11 -28 14 -29 14 -32 -10 -3 -21 -9 -25 -37 -25 -18 0 -40 -3 -49 -6 -11 -4 -16 -1 -16 10 0 9 -5 16 -11 16 -6 0 -9 -7 -5 -15 3 -8 1 -15 -5 -15 -6 0 -8 -7 -5 -16 4 -10 -1 -25 -11 -36 -16 -18 -16 -19 6 -25 16 -4 20 -10 15 -22 -22 -51 -9 -100 19 -72 6 6 20 11 30 11 16 0 17 -3 8 -14 -15 -18 1 -30 32 -23 15 4 33 -4 60 -26 35 -30 36 -32 13 -32 -13 0 -22 3 -20 6 2 4 -3 12 -11 19 -12 10 -15 10 -15 0 0 -12 -18 -10 -72 6 -14 4 -16 1 -11 -12 5 -14 3 -15 -16 -4 -13 6 -29 9 -38 6 -12 -5 -13 -8 0 -20 7 -8 24 -16 37 -18 29 -4 39 -28 11 -28 -11 0 -23 5 -26 10 -12 19 -26 11 -15 -9 16 -30 13 -46 -5 -31 -20 17 -19 1 2 -22 27 -30 5 -34 -25 -5 -23 23 -25 30 -15 46 10 15 9 20 -2 25 -10 3 -12 0 -9 -12 5 -16 5 -16 -8 -1 -11 14 -18 15 -36 5 -13 -7 -20 -14 -18 -17 3 -3 -4 -5 -14 -6 -11 -1 -20 4 -20 10 0 7 -12 23 -25 36 l-25 23 0 -36 c0 -25 4 -34 13 -30 7 2 23 -6 34 -18 l22 -23 -59 -1 c-33 0 -57 3 -54 7 2 4 0 10 -6 14 -5 3 -10 0 -10 -7 0 -7 -8 -1 -17 12 -10 14 -18 29 -18 34 0 15 -86 56 -117 56 -21 0 -28 -5 -28 -20 0 -11 -7 -23 -15 -26 -13 -5 -12 -11 8 -38 13 -17 27 -42 32 -55 4 -12 21 -36 39 -52 l31 -28 -30 -1 -30 -1 23 -16 c12 -8 22 -20 22 -25 0 -6 10 -24 22 -41 l22 -30 -31 23 c-73 53 -189 214 -237 327 -59 141 -71 205 -70 378 1 143 3 169 27 248 54 175 135 306 269 433 99 93 202 154 336 200 110 38 131 42 112 19z m341 -27 c-25 -4 -47 -6 -49 -3 -9 9 42 22 67 16 22 -4 19 -6 -18 -13z m-96 2 c-3 -5 -13 -10 -21 -10 -8 0 -12 5 -9 10 3 6 13 10 21 10 8 0 12 -4 9 -10z m233 -42 c-6 -18 -28 -21 -28 -4 0 9 7 16 16 16 9 0 14 -5 12 -12z m125 -34 c20 -10 37 -21 37 -25 0 -5 -17 -1 -37 8 -53 21 -113 53 -113 58 0 6 65 -18 113 -41z m382 -1211 c-4 -16 -7 -28 -8 -28 -1 -1 -11 -7 -21 -15 -17 -14 -18 -13 -12 8 6 18 4 21 -11 15 -16 -6 -16 -5 -5 10 8 8 20 13 28 10 8 -3 14 1 14 11 0 9 5 16 11 16 7 0 9 -10 4 -27z m-959 -5 c4 -7 4 -10 -1 -6 -4 4 -17 2 -29 -4 -19 -10 -20 -10 -7 5 16 20 27 21 37 5z m29 -88 c3 -5 0 -19 -8 -31 l-15 -21 -7 24 c-18 63 -18 60 3 49 12 -6 24 -16 27 -21z m-58 -3 c7 -5 10 -13 8 -18 -3 -4 -15 1 -25 11 -33 33 -21 37 17 7z m-163 -12 c23 -35 20 -38 -14 -13 -32 23 -38 38 -16 38 7 0 21 -11 30 -25z m-48 -26 l19 -21 -35 7 c-44 9 -52 14 -45 26 10 16 41 10 61 -12z m503 8 c15 -19 4 -27 -37 -27 l-34 0 23 20 c29 23 33 24 48 7z m639 -19 c-2 -15 -11 -24 -25 -26 -13 -2 -23 -9 -23 -16 0 -16 -28 -41 -36 -33 -14 13 53 97 78 97 5 0 8 -10 6 -22z m-821 -29 c-1 -22 -37 -27 -37 -4 0 9 6 12 18 8 14 -5 15 -3 5 8 -18 18 -16 34 1 20 8 -7 14 -21 13 -32z m478 -27 c-34 -17 -44 -8 -20 18 14 16 21 17 32 8 12 -10 10 -14 -12 -26z m-338 12 c-16 -9 -31 -13 -34 -10 -3 3 5 10 18 15 37 15 47 12 16 -5z m-117 -30 c0 -9 -7 -14 -17 -12 -25 5 -28 28 -4 28 12 0 21 -6 21 -16z m371 -28 c-12 -12 -21 -27 -21 -33 0 -14 -44 -43 -65 -43 -8 0 -15 5 -15 11 0 6 -7 9 -15 6 -8 -4 -17 -2 -20 4 -4 5 -12 7 -18 3 -7 -3 -1 3 13 14 28 23 73 35 78 21 2 -5 20 7 40 26 39 37 59 29 23 -9z m225 -41 c1 -17 -9 -34 -32 -55 -33 -28 -84 -41 -84 -21 0 10 -49 -2 -82 -20 -25 -13 -22 4 5 28 24 22 83 41 72 23 -13 -20 33 -9 61 15 16 14 32 25 37 25 4 0 7 7 7 15 0 25 15 16 16 -10z"/>
<path d="M2183 2974 c3 -4 -5 -21 -18 -39 -25 -32 -33 -65 -16 -65 5 0 25 7 45 15 32 14 37 19 36 40 -1 3 6 13 15 21 25 25 18 34 -27 34 -23 0 -39 -3 -35 -6z"/>
<path d="M2749 2904 c-21 -24 -22 -26 -3 -16 25 13 50 42 37 42 -5 0 -20 -12 -34 -26z"/>
<path d="M2845 2900 c-3 -5 -12 -7 -20 -4 -8 3 -20 -6 -29 -23 -10 -18 -15 -22 -16 -11 0 14 -4 15 -29 5 -22 -8 -43 -7 -85 3 -31 7 -59 10 -63 6 -14 -13 31 -30 80 -32 48 -1 80 -22 54 -35 -29 -15 -77 -18 -84 -5 -8 12 -43 30 -43 21 0 -15 24 -53 31 -49 5 3 9 -2 9 -12 0 -14 2 -14 16 -3 13 10 17 10 25 -2 5 -8 7 -22 5 -31 -2 -10 0 -21 5 -24 5 -3 7 -9 4 -14 -3 -5 2 -21 11 -35 17 -26 17 -26 -9 -19 -35 8 -36 -12 -2 -28 14 -6 25 -17 25 -24 0 -17 -32 -27 -42 -12 -11 18 -10 0 2 -22 8 -15 7 -17 -13 -12 -20 5 -21 4 -8 -12 14 -17 12 -17 -35 -11 -27 4 -57 9 -66 12 -24 6 -23 -12 2 -37 12 -12 18 -25 15 -30 -9 -15 7 -11 29 5 30 23 49 19 40 -7 l-6 -23 24 23 c13 12 28 22 32 22 5 0 -2 -9 -15 -20 -24 -20 -24 -20 -5 -35 27 -21 42 -19 24 3 -13 15 -13 19 4 35 17 16 18 16 18 -2 0 -23 30 -37 42 -19 5 8 8 9 8 2 0 -6 -6 -17 -14 -24 -8 -6 -12 -18 -9 -26 4 -10 0 -12 -13 -8 -16 6 -15 3 4 -15 12 -12 22 -29 22 -38 0 -8 8 -23 18 -32 10 -9 26 -29 37 -46 l19 -30 8 25 c6 18 7 13 4 -17 -4 -43 -4 -43 30 -43 19 0 34 5 34 11 0 6 15 9 35 7 35 -3 66 19 45 32 -6 4 -6 19 0 40 5 18 8 48 5 67 -3 24 -1 33 8 30 7 -2 11 -12 11 -21 -1 -9 6 -16 15 -16 20 0 21 47 2 60 -18 10 41 18 65 9 11 -4 13 -8 6 -8 -7 -1 -10 -5 -7 -11 3 -5 3 -16 -2 -22 -4 -7 -8 -20 -8 -28 0 -9 -11 -14 -30 -15 -20 0 -29 -4 -27 -14 2 -8 -3 -18 -10 -22 -7 -4 -9 -11 -5 -15 4 -4 13 -2 19 4 20 20 28 13 21 -19 -5 -28 -4 -30 18 -27 21 3 24 -1 24 -25 -1 -26 0 -27 12 -11 7 10 13 38 13 63 0 28 8 59 20 79 18 29 22 31 40 20 15 -9 23 -10 28 -2 4 6 21 10 37 10 26 -1 30 3 33 30 2 19 -3 36 -12 44 -15 11 -23 60 -11 60 3 0 16 -9 28 -20 12 -12 23 -16 25 -10 2 5 12 0 21 -12 12 -14 20 -17 25 -10 4 6 -12 30 -35 54 -26 26 -44 38 -46 31 -3 -7 -11 -13 -18 -13 -16 0 -75 54 -75 69 0 6 -10 11 -21 11 -19 0 -21 -4 -15 -32 4 -18 11 -34 16 -36 6 -2 10 -10 10 -18 0 -8 7 -14 15 -14 9 0 15 -9 15 -24 0 -19 -5 -23 -25 -23 -32 0 -44 -11 -25 -23 22 -14 7 -12 -31 5 -19 8 -27 14 -18 15 17 0 29 28 29 68 0 23 -33 44 -56 35 -7 -2 -15 1 -19 7 -8 13 -35 -6 -35 -25 0 -7 -7 -15 -15 -19 -8 -3 -15 -16 -15 -28 0 -22 0 -22 -27 4 -20 20 -27 37 -26 62 1 50 8 55 58 50 39 -3 45 -1 45 15 0 10 -8 21 -17 25 -10 3 -24 9 -32 12 -11 5 -12 1 -7 -20 6 -26 6 -27 -18 -11 -19 13 -25 13 -29 3 -3 -8 -6 -6 -6 6 -1 12 -6 16 -16 12 -10 -4 -15 1 -15 15 0 15 -4 19 -16 15 -11 -4 -15 -2 -11 7 7 18 -33 89 -53 94 -12 4 -12 2 -2 -5 11 -7 11 -11 0 -20 -10 -8 -22 -7 -47 5 -28 14 -34 14 -42 2 -7 -11 -9 -10 -9 4 0 12 12 23 30 30 17 6 30 17 30 23 0 21 29 68 44 70 8 1 22 7 33 13 16 9 16 10 1 11 -9 0 -19 -4 -23 -10z m-3 -187 c-17 -14 -47 -13 -47 2 0 6 8 10 17 9 10 0 21 9 24 20 7 21 7 21 14 1 5 -13 3 -24 -8 -32z m-32 -31 c0 -5 16 -16 35 -25 38 -18 54 -42 39 -57 -6 -6 -21 -4 -38 5 -34 18 -36 18 -36 5 0 -5 7 -10 15 -10 8 0 15 -4 15 -10 0 -5 8 -10 18 -11 10 0 12 -3 5 -6 -7 -2 -13 -11 -13 -19 0 -8 -4 -14 -10 -14 -5 0 -10 11 -10 25 0 16 -6 25 -15 25 -9 0 -15 9 -15 25 0 28 -3 29 -31 14 -18 -9 -20 -7 -17 18 3 27 18 41 46 42 6 1 12 -3 12 -7z m51 -221 c18 -53 18 -53 -1 -36 -19 18 -20 17 -20 -8 0 -27 -13 -36 -25 -17 -3 6 -1 10 5 10 6 0 9 4 6 9 -4 5 -1 22 4 37 8 19 8 30 0 38 -13 13 -13 29 1 24 6 -2 19 -28 30 -57z m75 48 c4 -7 8 -26 10 -43 l4 -31 -20 25 c-25 33 -32 60 -15 60 8 0 17 -5 21 -11z m144 -45 c0 -24 -2 -25 -17 -13 -10 7 -20 14 -22 16 -8 5 11 23 25 23 8 0 14 -10 14 -26z m-95 -114 c3 -5 -1 -10 -9 -10 -8 0 -18 5 -21 10 -3 6 1 10 9 10 8 0 18 -4 21 -10z m-2 -42 c6 -18 -19 -64 -38 -72 -9 -3 -24 -2 -33 4 -15 8 -15 9 2 10 18 0 18 1 3 18 -23 26 -22 30 16 41 44 13 45 13 50 -1z"/>
<path d="M2240 2804 c-19 -7 -43 -13 -52 -13 -10 -1 -18 -6 -18 -12 0 -6 7 -8 16 -5 12 5 15 2 10 -10 -3 -8 -6 -20 -6 -25 0 -16 -30 -9 -37 9 -15 39 -52 44 -45 5 4 -21 2 -25 -10 -20 -18 6 -56 -33 -50 -51 4 -14 -39 -12 -49 2 -8 11 -65 -23 -98 -59 -28 -30 -23 -66 13 -83 30 -13 46 1 46 40 0 42 20 80 36 67 9 -7 19 -7 33 1 14 7 21 7 21 0 0 -5 4 -10 10 -10 5 0 7 6 4 14 -3 9 3 20 15 28 12 7 21 18 21 24 0 14 43 26 64 18 9 -3 16 -12 16 -19 0 -17 47 -14 85 6 17 8 29 20 28 26 -1 6 23 -3 55 -19 44 -23 61 -27 75 -18 11 6 17 7 17 0 0 -16 22 -12 36 8 17 22 18 38 1 23 -8 -6 -17 -8 -21 -4 -15 16 -85 33 -136 33 -48 1 -52 2 -35 13 12 7 19 20 17 30 -4 20 -13 20 -62 1z"/>
<path d="M1990 2790 c0 -5 7 -10 15 -10 8 0 15 5 15 10 0 6 -7 10 -15 10 -8 0 -15 -4 -15 -10z"/>
<path d="M2914 2738 c-18 -20 -18 -21 -1 -15 10 4 23 7 28 7 5 0 9 7 9 15 0 21 -14 19 -36 -7z"/>
<path d="M2548 2701 l-26 -17 24 -23 c16 -16 24 -19 25 -10 1 8 3 26 5 42 1 15 2 27 1 26 -1 0 -14 -8 -29 -18z"/>
<path d="M2384 2658 c-5 -7 -2 -9 8 -5 10 3 27 -6 44 -24 33 -35 74 -39 74 -8 0 17 -5 20 -24 17 -15 -3 -27 2 -35 14 -12 20 -56 24 -67 6z"/>
<path d="M2573 2637 c-18 -6 -33 -17 -33 -24 0 -8 -7 -16 -15 -19 -17 -7 -21 -34 -5 -34 6 0 10 5 10 10 0 6 10 10 23 10 18 0 19 -2 7 -10 -10 -6 -11 -10 -3 -10 7 0 20 11 29 25 9 14 23 25 30 25 16 0 16 2 8 24 -7 18 -6 18 -51 3z"/>
<path d="M2487 2512 c-19 -21 -24 -107 -7 -117 6 -3 10 3 10 14 0 13 12 27 30 36 32 17 33 37 2 28 -16 -4 -18 0 -14 26 5 36 1 38 -21 13z"/>
<path d="M2420 2475 c-7 -8 -25 -15 -41 -15 -19 0 -29 -5 -29 -15 0 -21 43 -19 62 3 18 21 31 42 25 42 -3 0 -10 -7 -17 -15z"/>
<path d="M1865 2410 c-3 -5 -1 -18 4 -27 9 -16 10 -14 11 10 0 28 -5 34 -15 17z"/>
<path d="M3316 2412 c-4 -7 -3 -19 4 -27 14 -17 50 -20 50 -5 0 6 -9 10 -19 10 -11 0 -21 8 -23 18 -3 13 -5 14 -12 4z"/>
<path d="M2146 2301 c-15 -16 -34 -27 -42 -24 -34 13 -234 -168 -234 -213 0 -8 -7 -14 -15 -14 -9 0 -19 -8 -22 -17 -4 -10 -16 -25 -27 -34 -22 -18 -15 -36 19 -49 15 -6 25 -20 29 -44 6 -33 10 -36 41 -36 48 0 86 16 79 34 -7 18 7 26 35 19 17 -4 20 -10 15 -27 -6 -18 -5 -19 10 -7 14 12 16 11 16 -8 0 -17 6 -21 31 -21 24 0 30 -4 25 -15 -3 -9 0 -15 8 -15 17 0 27 24 20 44 -3 8 2 26 11 40 16 24 16 28 -4 61 -11 19 -17 35 -13 35 15 0 57 -65 62 -94 3 -16 11 -31 19 -34 9 -3 11 1 7 15 -4 12 0 25 9 33 8 7 15 18 15 25 0 7 8 16 18 20 16 6 16 7 -1 16 -20 12 -37 4 -37 -16 0 -25 -20 -27 -29 -3 -7 18 -4 28 12 45 l20 23 -34 7 c-19 4 -38 6 -42 5 -5 -1 -17 8 -27 20 -15 19 -20 20 -33 9 -9 -7 -21 -28 -27 -47 -6 -19 -16 -34 -21 -34 -5 0 -9 -4 -9 -10 0 -5 9 -10 20 -10 12 0 20 -7 20 -16 0 -15 -2 -15 -22 0 -13 9 -31 19 -42 23 -16 5 -18 13 -13 55 4 27 3 47 -1 44 -4 -2 -20 -29 -36 -60 -16 -31 -31 -54 -33 -52 -2 2 -1 32 3 66 11 100 86 184 196 219 42 14 61 33 56 56 -2 13 -9 10 -32 -14z"/>
<path d="M3264 2248 c7 -38 11 -42 26 -33 9 5 9 10 1 18 -6 6 -11 19 -11 29 0 10 -5 18 -11 18 -8 0 -9 -11 -5 -32z"/>
<path d="M3204 2230 c3 -18 6 -36 6 -41 0 -5 6 -9 13 -9 23 0 18 54 -5 69 -20 12 -21 11 -14 -19z"/>
<path d="M3380 2252 c0 -11 22 -32 32 -32 5 0 4 9 -2 20 -11 20 -30 28 -30 12z"/>
<path d="M3399 2186 c14 -14 29 -26 35 -26 7 0 20 -15 30 -34 19 -35 56 -46 56 -18 0 12 -3 12 -15 2 -12 -10 -15 -7 -21 15 -5 19 -1 30 12 41 18 15 18 15 1 10 -10 -3 -30 0 -45 8 -15 7 -38 17 -52 21 l-25 7 24 -26z"/>
<path d="M3260 2160 c0 -14 51 -59 68 -60 6 0 12 -7 12 -16 0 -8 5 -12 10 -9 14 9 13 -48 -2 -63 -20 -20 0 -25 26 -5 14 10 29 29 32 43 3 14 9 33 14 42 12 21 -10 45 -48 54 -15 4 -33 11 -39 17 -9 6 -18 6 -27 -2 -10 -8 -16 -9 -21 -1 -8 13 -25 13 -25 0z m75 -21 c10 -15 2 -19 -23 -12 -12 3 -19 9 -16 14 7 12 31 11 39 -2z"/>
<path d="M3064 2149 c-6 -8 -14 -21 -17 -29 -4 -12 -6 -11 -6 3 -1 24 -13 21 -41 -8 -17 -18 -19 -25 -9 -26 39 -3 99 -28 99 -41 0 -7 5 -6 14 1 10 8 16 9 21 1 12 -19 33 -11 28 11 -5 18 -3 20 16 14 12 -4 21 -2 21 4 0 6 -5 11 -11 11 -6 0 -22 9 -36 20 -15 12 -34 18 -44 15 -13 -4 -18 0 -21 16 -2 18 -5 20 -14 8z"/>
<path d="M2881 2124 c-15 -11 -19 -20 -13 -26 13 -13 52 8 52 27 0 19 -10 19 -39 -1z"/>
<path d="M2120 2115 c0 -8 5 -15 10 -15 6 0 10 7 10 15 0 8 -4 15 -10 15 -5 0 -10 -7 -10 -15z"/>
<path d="M3437 2093 c-11 -10 -8 -53 3 -53 18 0 31 37 16 49 -7 6 -16 8 -19 4z"/>
<path d="M2430 2072 c0 -14 11 -21 26 -15 8 3 11 9 8 14 -7 11 -34 12 -34 1z"/>
<path d="M3200 2061 c0 -10 75 -61 90 -61 15 0 12 17 -6 45 -12 19 -25 25 -50 25 -19 0 -34 -4 -34 -9z"/>
<path d="M3013 1924 c0 -9 9 -19 19 -22 10 -2 18 -13 18 -23 0 -13 7 -19 23 -20 22 0 22 0 -2 -10 -23 -9 -23 -10 -5 -23 16 -12 21 -12 35 0 8 8 20 14 26 14 6 0 31 9 57 20 68 31 58 60 -24 66 -19 2 -60 5 -91 8 -47 5 -56 3 -56 -10z"/>
<path d="M3350 1925 c-10 -13 -9 -15 8 -15 15 0 20 5 16 15 -4 8 -7 15 -9 15 -1 0 -8 -7 -15 -15z"/>
<path d="M3020 1845 c0 -8 5 -15 10 -15 6 0 10 7 10 15 0 8 -4 15 -10 15 -5 0 -10 -7 -10 -15z"/>
<path d="M2862 1793 c-1 -30 1 -34 8 -18 11 26 12 55 2 55 -4 0 -9 -17 -10 -37z"/>
<path d="M3120 1802 c-25 -15 -51 -27 -59 -27 -8 0 -16 -6 -19 -14 -3 -9 0 -11 7 -6 20 12 99 16 106 5 3 -5 18 -10 32 -10 19 0 24 4 19 16 -3 9 -6 22 -6 29 0 32 -35 34 -80 7z"/>
<path d="M2203 1783 c-7 -3 -13 -10 -13 -18 0 -16 60 -29 74 -15 7 7 4 10 -8 10 -11 0 -24 6 -30 14 -6 7 -17 12 -23 9z"/>
<path d="M3000 1780 c-8 -5 -11 -12 -8 -16 10 -9 38 3 38 16 0 12 -10 13 -30 0z"/>
<path d="M11080 3380 l0 -360 -665 0 -665 0 0 -190 0 -190 322 -438 c827 -1123 1016 -1380 1043 -1419 l30 -43 198 0 197 0 0 935 0 935 210 0 210 0 0 205 0 205 -210 0 -210 0 0 360 0 360 -230 0 -230 0 0 -360z m0 -1332 c0 -477 -2 -560 -14 -548 -7 8 -132 177 -276 375 -145 198 -307 419 -360 490 -136 184 -170 232 -170 239 0 3 185 6 410 6 l410 0 0 -562z"/>
<path d="M40 2175 l0 -845 128 0 127 0 234 440 c128 243 235 439 236 438 1 -2 75 -138 163 -303 88 -165 186 -347 217 -405 31 -58 63 -120 72 -137 l17 -33 123 0 123 0 -2 843 -3 842 -147 3 -148 3 -2 -490 -3 -489 -205 384 c-160 300 -207 381 -216 371 -7 -6 -102 -178 -211 -382 l-198 -369 -5 484 -5 485 -147 3 -148 3 0 -846z"/>
<path d="M4170 2315 l0 -705 -225 0 -225 0 0 -140 0 -140 600 0 600 0 0 140 0 140 -220 0 -220 0 0 705 0 705 -155 0 -155 0 0 -705z"/>
<path d="M5280 2175 l0 -845 150 0 150 0 2 348 3 347 283 3 282 2 0 -350 0 -350 155 0 155 0 0 845 0 845 -155 0 -155 0 0 -360 0 -360 -285 0 -285 0 0 360 0 360 -150 0 -150 0 0 -845z"/>
<path d="M6880 2175 l0 -845 515 0 516 0 -3 138 -3 137 -358 3 -357 2 2 208 3 207 203 3 202 2 0 140 0 140 -205 0 -205 0 0 215 0 215 375 0 375 0 0 140 0 140 -530 0 -530 0 0 -845z"/>
<path d="M8300 2175 l0 -846 438 3 c387 3 442 6 483 21 63 25 115 70 147 131 l27 51 0 300 c0 348 -3 365 -86 439 -48 43 -131 76 -192 76 -15 0 -27 3 -27 6 0 3 101 151 225 329 124 178 225 326 225 329 0 3 -85 6 -189 6 l-189 0 -218 -335 -219 -335 -57 0 -58 0 -2 333 -3 332 -152 3 -153 3 0 -846z m781 -105 c18 -10 19 -23 19 -223 0 -152 -3 -216 -12 -225 -9 -9 -77 -12 -245 -12 l-233 0 0 235 0 235 226 0 c136 0 233 -4 245 -10z"/>
</g>


</svg>